# Blender v2.93.9 OBJ File: 'Постаменты.blend'
# www.blender.org
mtllib Cam_Raw.mtl
o Камера_Куб.016
v 12.668895 12.700122 -19.158466
v 12.668895 13.153382 -19.158466
v 13.000692 12.700122 -19.968534
v 13.000692 13.153382 -19.968534
v 13.088334 12.700122 -18.986668
v 13.088334 13.153382 -18.986668
v 13.420132 12.700122 -19.796734
v 13.420132 13.153382 -19.796734
v 13.008745 12.700122 -19.947313
v 12.689519 12.700122 -19.167942
v 13.399508 12.700122 -19.787260
v 13.080282 12.700122 -19.007887
v 13.008745 12.627391 -19.947313
v 12.689519 12.627391 -19.167942
v 13.399508 12.627391 -19.787260
v 13.080282 12.627391 -19.007887
v 12.710816 12.745424 -19.141296
v 12.710816 13.108081 -19.141296
v 13.046412 13.108081 -19.003838
v 13.046412 12.745424 -19.003838
v 12.668895 13.167480 -19.158466
v 13.000692 13.167480 -19.968534
v 13.420132 13.167480 -19.796734
v 13.088334 13.167480 -18.986668
v 13.040397 13.153382 -18.869631
v 12.620957 13.153382 -19.041431
v 13.040397 13.167480 -18.869631
v 12.620957 13.167480 -19.041431
v 13.435386 13.153382 -19.790485
v 13.103588 13.153382 -18.980419
v 13.435386 13.167480 -19.790485
v 13.103588 13.167480 -18.980419
v 13.055651 13.153382 -18.863382
v 13.055651 13.167480 -18.863382
v 12.654260 13.153382 -19.164461
v 12.986057 13.153382 -19.974527
v 12.654260 13.167480 -19.164461
v 12.986057 13.167480 -19.974527
v 12.606322 13.153382 -19.047424
v 12.606322 13.167480 -19.047424
v 12.653650 12.886617 -19.164711
v 12.985448 12.886617 -19.974777
v 13.435354 12.886617 -19.790499
v 13.103557 12.886617 -18.980433
v 12.637952 12.886617 -19.171141
v 13.119919 12.886617 -18.973730
v 13.077685 12.886617 -18.917271
v 12.627779 12.886617 -19.101549
v 13.451716 12.886617 -19.783798
v 13.094048 12.886617 -18.910568
v 12.969749 12.886617 -19.981209
v 12.612081 12.886617 -19.107979
v 12.639035 12.904345 -19.170698
v 12.613165 12.904345 -19.107536
v 12.628792 12.904345 -19.101135
v 12.654663 12.904345 -19.164297
v 12.986461 12.904345 -19.974363
v 12.970834 12.904345 -19.980764
v 13.076610 12.905472 -18.917711
v 13.102481 12.905472 -18.980873
v 13.118764 12.905472 -18.974203
v 13.450562 12.905472 -19.784269
v 13.092894 12.905472 -18.911041
v 13.434278 12.905472 -19.790939
v 12.666884 12.885734 -19.159290
v 12.998682 12.885734 -19.969357
v 12.641013 12.885734 -19.096128
v 12.642027 12.903461 -19.095715
v 12.667897 12.903461 -19.158876
v 12.999695 12.903461 -19.968943
v 13.102481 12.905472 -18.980873
v 13.103557 12.886617 -18.980433
v 13.435354 12.886617 -19.790499
v 13.077685 12.886617 -18.917271
v 13.434278 12.905472 -19.790939
v 13.076610 12.905472 -18.917711
v 13.089429 12.904603 -18.986219
v 13.090506 12.885747 -18.985779
v 13.422303 12.885747 -19.795845
v 13.064634 12.885747 -18.922617
v 13.421227 12.904603 -19.796286
v 13.063559 12.904603 -18.923058
v 12.653645 12.767790 -19.164713
v 12.985443 12.767790 -19.974779
v 12.647486 12.767790 -19.149675
v 12.666879 12.766907 -19.159292
v 12.998677 12.766907 -19.969360
v 12.660720 12.766907 -19.144255
v 13.435349 12.767790 -19.790501
v 13.103552 12.767790 -18.980434
v 13.097392 12.767790 -18.965397
v 13.422298 12.766920 -19.795847
v 13.090500 12.766920 -18.985781
v 13.084341 12.766920 -18.970741
v 13.079641 13.068069 -19.936197
v 13.079641 12.785437 -19.936197
v 13.341184 12.785437 -19.829071
v 13.341184 13.068069 -19.829071
v 13.232038 12.981725 -20.080469
v 13.232038 12.871778 -20.080469
v 13.333781 12.871778 -20.038795
v 13.333781 12.981725 -20.038795
v 13.301766 13.154266 -20.463430
v 13.136556 13.085834 -20.463430
v 13.068124 12.920624 -20.463430
v 13.136556 12.755413 -20.463430
v 13.301766 12.686980 -20.463430
v 13.466977 12.755413 -20.463430
v 13.535409 12.920624 -20.463430
v 13.466977 13.085834 -20.463430
v 13.301766 12.967083 -20.170702
v 13.268915 12.953476 -20.170702
v 13.255308 12.920625 -20.170702
v 13.268915 12.887774 -20.170702
v 13.301766 12.874166 -20.170702
v 13.334617 12.887774 -20.170702
v 13.348225 12.920625 -20.170702
v 13.334617 12.953476 -20.170702
v 13.466977 12.755413 -20.345234
v 13.420305 12.802085 -20.227036
v 13.469405 12.920624 -20.227036
v 13.535409 12.920624 -20.345234
v 13.136556 12.755413 -20.345234
v 13.183228 12.802085 -20.227036
v 13.301766 12.752985 -20.227036
v 13.301766 12.686980 -20.345234
v 13.136556 13.085834 -20.345234
v 13.183228 13.039163 -20.227036
v 13.134127 12.920624 -20.227036
v 13.068124 12.920624 -20.345234
v 13.420305 13.039163 -20.227036
v 13.466977 13.085834 -20.345234
v 13.301766 13.154266 -20.345234
v 13.301766 13.088264 -20.227036
v 13.257103 12.954639 -20.070204
v 13.257103 12.898865 -20.070204
v 13.308717 12.898865 -20.049063
v 13.308717 12.954639 -20.049063
v 13.280971 12.891491 -20.060427
v 13.285058 12.962192 -20.058752
v 13.250185 12.924000 -20.073036
v 13.315610 12.927984 -20.046238
vt 0.984012 0.241202
vt 0.870252 0.241202
vt 0.870252 0.021496
vt 0.984012 0.021496
vt 0.244290 0.100089
vt 0.399947 0.100089
vt 0.370648 0.129387
vt 0.273588 0.129387
vt 0.379046 0.079792
vt 0.379814 0.078966
vt 0.381410 0.080449
vt 0.380641 0.081275
vt 0.012832 0.830707
vt 0.175646 0.830707
vt 0.159374 0.846980
vt 0.029105 0.846980
vt 0.703753 0.494191
vt 0.703753 0.649593
vt 0.698066 0.644280
vt 0.698067 0.499503
vt 0.522378 0.006745
vt 0.522455 0.002556
vt 0.527153 0.002642
vt 0.527077 0.006831
vt 0.566032 0.016987
vt 0.771115 0.016987
vt 0.771115 0.052310
vt 0.566032 0.052310
vt 0.403648 0.494198
vt 0.409334 0.499510
vt 0.403649 0.649588
vt 0.409335 0.644276
vt 0.728009 0.334224
vt 0.728009 0.477426
vt 0.442394 0.477426
vt 0.442394 0.334224
vt 0.754820 0.691517
vt 0.754820 0.585535
vt 0.773075 0.585535
vt 0.773075 0.691517
vt 0.773423 0.348190
vt 0.773423 0.559573
vt 0.755168 0.559573
vt 0.755169 0.348190
vt 0.774936 0.148386
vt 0.563555 0.148386
vt 0.563555 0.130131
vt 0.774936 0.130131
vt 0.029105 0.977249
vt 0.159374 0.977249
vt 0.012832 0.993522
vt 0.175646 0.993522
vt 0.443891 0.320784
vt 0.443888 0.174796
vt 0.725841 0.174799
vt 0.725838 0.320781
vt 0.673848 0.901541
vt 0.787608 0.901541
vt 0.787608 0.933284
vt 0.673848 0.933284
vt 0.229364 0.078712
vt 0.028646 0.655237
vt 0.010635 0.647393
vt 0.214181 0.074080
vt 0.725838 0.326091
vt 0.443891 0.326094
vt 0.387710 0.004278
vt 0.387786 0.000090
vt 0.377714 0.079810
vt 0.381782 0.079856
vt 0.381690 0.082049
vt 0.378650 0.083128
vt 0.987005 0.985053
vt 0.986934 0.744849
vt 0.992147 0.744849
vt 0.992189 0.985053
vt 0.766572 0.174800
vt 0.766572 0.320781
vt 0.917777 0.745160
vt 0.918783 0.984908
vt 0.914598 0.984927
vt 0.913686 0.745181
vt 0.913649 0.709219
vt 0.917657 0.709215
vt 0.382812 0.004189
vt 0.382889 0.000000
vt 0.220407 0.061098
vt 0.231510 0.066423
vt 0.894693 0.979445
vt 0.894720 0.958573
vt 0.900124 0.958575
vt 0.900124 0.979445
vt 0.766572 0.326091
vt 0.819214 0.693870
vt 0.818117 0.958022
vt 0.813608 0.958004
vt 0.814605 0.693856
vt 0.817902 0.997654
vt 0.813483 0.997643
vt 0.725842 0.169706
vt 0.766572 0.169706
vt 0.381765 0.080041
vt 0.381812 0.080183
vt 0.381681 0.080300
vt 0.443888 0.169702
vt 0.016790 0.675708
vt 0.000000 0.666228
vt 0.382203 0.081326
vt 0.382322 0.081418
vt 0.381883 0.082162
vt 0.789773 0.971646
vt 0.570064 0.971646
vt 0.570063 0.967388
vt 0.789773 0.967388
vt 0.384854 0.078587
vt 0.384910 0.078639
vt 0.552933 0.971646
vt 0.552933 0.967388
vt 0.381741 0.081521
vt 0.558130 0.096181
vt 0.770379 0.096198
vt 0.770383 0.099903
vt 0.558133 0.099885
vt 0.525555 0.082809
vt 0.530572 0.082901
vt 0.530824 0.088174
vt 0.525784 0.088082
vt 0.380235 0.078513
vt 0.380870 0.070237
vt 0.387453 0.072585
vt 0.788027 0.096181
vt 0.788031 0.099886
vt 0.986950 0.725913
vt 0.992189 0.725925
vt 0.894681 0.693744
vt 0.900056 0.693742
vt 0.325908 0.905150
vt 0.340102 0.883168
vt 0.362339 0.899579
vt 0.347994 0.921743
vt 0.807629 0.241202
vt 0.807629 0.021496
vt 0.870252 0.272945
vt 0.807629 0.258333
vt 0.381739 0.080549
vt 0.864018 0.359756
vt 0.864018 0.335392
vt 0.870359 0.335392
vt 0.870359 0.359756
vt 0.864018 0.672234
vt 0.870359 0.672234
vt 0.353341 0.865229
vt 0.375579 0.881640
vt 0.464651 0.746191
vt 0.775144 0.746191
vt 0.775144 0.788338
vt 0.464651 0.788338
vt 0.521530 0.088266
vt 0.521302 0.082993
vt 0.846294 0.309984
vt 0.846294 0.653176
vt 0.799709 0.653176
vt 0.799709 0.309984
vt 0.381295 0.078478
vt 0.383791 0.078572
vt 0.383125 0.078940
vt 0.382149 0.078897
vt 0.768023 0.114008
vt 0.557359 0.113987
vt 0.557355 0.110310
vt 0.768019 0.110331
vt 0.382208 0.081317
vt 0.937319 0.687107
vt 0.937319 0.662160
vt 0.944224 0.662160
vt 0.944224 0.687107
vt 0.937320 0.342222
vt 0.944225 0.342222
vt 0.530824 0.982061
vt 0.517585 1.000000
vt 0.785784 0.113987
vt 0.785780 0.110310
vt 0.381862 0.080614
vt 0.381921 0.081129
vt 0.987654 0.662160
vt 0.987654 0.668100
vt 0.772314 0.081632
vt 0.559684 0.081627
vt 0.559680 0.077916
vt 0.772310 0.077920
vt 0.776523 0.081627
vt 0.776519 0.077916
vt 0.558130 0.065699
vt 0.769256 0.065705
vt 0.769261 0.069390
vt 0.558134 0.069384
vt 0.773494 0.065699
vt 0.773499 0.069384
vt 0.912775 0.359756
vt 0.912775 0.672234
vt 0.846294 0.679935
vt 0.799709 0.659547
vt 0.525279 0.126619
vt 0.521026 0.126804
vt 0.382040 0.080852
vt 0.381990 0.080946
vt 0.912775 0.353956
vt 0.440442 0.746191
vt 0.458887 0.788338
vt 0.987654 0.342222
vt 0.383128 0.078684
vt 0.382937 0.078776
vt 0.011345 0.818081
vt 0.011345 0.747145
vt 0.064015 0.768816
vt 0.064015 0.796410
vt 0.244290 0.255746
vt 0.273588 0.226447
vt 0.399947 0.255746
vt 0.370648 0.226447
vt 0.410321 0.020284
vt 0.461203 0.037632
vt 0.434375 0.044338
vt 0.321668 0.921757
vt 0.321668 0.992692
vt 0.268998 0.971022
vt 0.268998 0.943427
vt 0.457339 0.818847
vt 0.457339 0.889783
vt 0.404669 0.868112
vt 0.404669 0.840517
vt 0.253102 0.913016
vt 0.253102 0.983952
vt 0.200432 0.962281
vt 0.200432 0.934687
vt 0.410321 0.117924
vt 0.427736 0.071548
vt 0.507961 0.020284
vt 0.507961 0.117924
vt 0.490523 0.068010
vt 0.457280 0.100419
vt 0.483907 0.044338
vt 0.483907 0.093871
vt 0.434375 0.093871
vt 0.278918 0.661127
vt 0.318908 0.603623
vt 0.306686 0.586578
vt 0.242810 0.620795
vt 0.228555 0.567913
vt 0.303405 0.565063
vt 0.305397 0.543251
vt 0.237897 0.513452
vt 0.270652 0.467475
vt 0.317019 0.524786
vt 0.336485 0.514205
vt 0.324330 0.439284
vt 0.330097 0.682524
vt 0.337516 0.612617
vt 0.359212 0.516628
vt 0.397391 0.439683
vt 0.394864 0.678435
vt 0.358050 0.609770
vt 0.392460 0.818483
vt 0.405542 0.754536
vt 0.313413 0.741776
vt 0.295713 0.798691
vt 0.267240 0.309821
vt 0.299868 0.374741
vt 0.405542 0.351429
vt 0.383651 0.272088
vt 0.118799 0.473762
vt 0.180796 0.493652
vt 0.225465 0.423545
vt 0.174838 0.378473
vt 0.138860 0.679956
vt 0.191576 0.648487
vt 0.169682 0.573392
vt 0.106817 0.580456
vt 0.242442 0.706464
vt 0.207058 0.755095
vt 0.047392 0.098887
vt 0.042485 0.123481
vt 0.122529 0.120863
vt 0.119110 0.102255
vt 0.120547 0.083814
vt 0.052190 0.074271
vt 0.126166 0.062292
vt 0.055951 0.049475
vt 0.040523 0.148484
vt 0.128337 0.141852
vt 0.057878 0.024471
vt 0.135721 0.042517
vt 0.049174 0.197655
vt 0.058421 0.220967
vt 0.135721 0.200720
vt 0.135472 0.181920
vt 0.042478 0.173486
vt 0.132720 0.162594
vn -0.9254 0.0000 -0.3790
vn 0.3790 0.0000 -0.9254
vn 0.9254 0.0000 0.3790
vn -0.3790 -0.0000 0.9254
vn 0.0000 -1.0000 0.0000
vn 0.0000 1.0000 0.0000
vn 0.9234 0.0661 0.3782
vn -0.9234 0.0659 -0.3782
vn 0.0000 0.0000 1.0000
vn 0.0570 0.9981 0.0233
vn 0.3789 0.0000 -0.9254
vn 0.9234 0.0660 0.3782
vn 0.9236 -0.0616 0.3783
vn -0.3691 -0.2276 0.9011
vn -0.9236 -0.0616 -0.3783
vn -0.9236 -0.0615 -0.3783
vn -0.3691 -0.2286 0.9008
vn 0.9236 -0.0617 0.3783
vn 0.3791 -0.0001 -0.9254
vn -0.9254 0.0001 -0.3790
vn -0.3791 0.0001 0.9254
vn 0.3791 0.0000 -0.9253
vn -0.0569 0.9981 -0.0233
vn -0.3789 -0.0000 0.9254
vn -0.0570 -0.9981 -0.0234
vn 0.0570 -0.9981 0.0233
vn -0.3701 -0.4008 0.8381
vn -0.3242 -0.4008 0.8569
vn 0.9994 0.0000 -0.0353
vn 0.3791 0.0001 -0.9254
vn 0.1559 -0.9114 -0.3807
vn 0.1560 0.9114 -0.3807
vn -0.6875 0.0000 -0.7262
vn 0.3791 0.0000 -0.9254
vn 0.3789 0.0001 -0.9254
vn 0.3792 -0.0000 -0.9253
vn 0.3790 -0.0001 -0.9254
vn 0.7173 0.0000 0.6967
vn 0.7242 -0.0026 0.6896
vn 0.5106 -0.5052 0.6957
vn 0.5072 -0.5072 0.6967
vn 0.0000 -0.7173 0.6967
vn 0.0024 -0.7567 0.6537
vn -0.5457 -0.5682 0.6159
vn -0.5072 -0.5072 0.6967
vn -0.7173 0.0000 0.6967
vn -0.8199 -0.0109 0.5723
vn -0.5656 0.5769 0.5893
vn -0.5072 0.5072 0.6967
vn 0.5072 0.5072 0.6967
vn 0.5385 0.5105 0.6703
vn 0.0196 0.7882 0.6150
vn 0.0000 0.7173 0.6967
vn 0.0000 0.9712 0.2381
vn 0.6868 0.6868 0.2381
vn 0.7071 0.7071 0.0000
vn -0.7071 0.7071 0.0000
vn -0.6868 0.6868 0.2381
vn -0.7071 -0.7071 0.0000
vn -0.6868 -0.6868 0.2381
vn -0.9712 0.0000 0.2381
vn -1.0000 0.0000 0.0000
vn 0.7071 -0.7071 0.0000
vn 0.6868 -0.6868 0.2381
vn 0.0000 -0.9712 0.2381
vn 0.9712 0.0000 0.2381
vn 1.0000 0.0000 0.0000
vn 0.3154 -0.6759 -0.6660
vn -0.1297 -0.4991 -0.8567
vn -0.4310 -0.0064 -0.9023
vn -0.0876 0.4717 -0.8773
vn 0.6905 -0.3544 -0.6305
vn 0.3330 0.6319 -0.6999
vn 0.6743 0.3517 -0.6493
vn 0.8419 0.0108 -0.5395
usemtl None
s off
f 1/1/1 2/2/1 4/3/1 3/4/1
f 4/5/2 8/6/2 98/7/2 95/8/2
f 7/9/3 8/10/3 6/11/3 5/12/3
f 6/13/4 2/14/4 18/15/4 19/16/4
f 3/17/5 7/18/5 11/19/5 9/20/5
f 26/21/4 28/22/4 40/23/4 39/24/4
f 12/25/4 10/26/4 14/27/4 16/28/4
f 1/29/5 3/17/5 9/20/5 10/30/5
f 7/18/5 5/31/5 12/32/5 11/19/5
f 5/31/5 1/29/5 10/30/5 12/32/5
f 13/33/5 15/34/5 16/35/5 14/36/5
f 9/37/2 11/38/2 15/39/2 13/40/2
f 11/41/3 12/42/3 16/43/3 15/44/3
f 10/45/1 9/46/1 13/47/1 14/48/1
f 20/49/4 19/16/4 18/15/4 17/50/4
f 5/51/4 6/13/4 19/16/4 20/49/4
f 2/14/4 1/52/4 17/50/4 18/15/4
f 1/52/4 5/51/4 20/49/4 17/50/4
f 23/53/6 22/54/6 21/55/6 24/56/6
f 2/57/5 6/58/5 25/59/5 26/60/5
f 8/61/2 4/62/2 22/63/2 23/64/2
f 23/53/6 24/56/6 32/65/6 31/66/6
f 26/21/4 25/67/4 27/68/4 28/22/4
f 63/69/4 59/70/4 47/71/4 50/72/4
f 62/73/7 61/74/7 46/75/7 49/76/7
f 24/56/6 21/55/6 28/77/6 27/78/6
f 30/79/3 29/80/3 31/81/3 32/82/3
f 30/79/3 32/82/3 34/83/3 33/84/3
f 27/68/4 25/67/4 33/85/4 34/86/4
f 8/61/2 23/64/2 31/87/2 29/88/2
f 54/89/8 53/90/8 45/91/8 52/92/8
f 24/56/6 27/78/6 34/93/6 32/65/6
f 36/94/1 35/95/1 37/96/1 38/97/1
f 37/96/1 35/95/1 39/98/1 40/99/1
f 28/77/6 21/55/6 37/100/6 40/101/6
f 59/70/9 60/102/9 71/103/9 76/104/9
f 21/55/6 22/54/6 38/105/6 37/100/6
f 22/63/2 4/62/2 36/106/2 38/107/2
f 47/71/5 44/108/5 46/109/5 50/110/5
f 42/111/5 41/112/5 45/113/5 51/114/5
f 44/108/5 43/115/5 49/116/5 46/109/5
f 41/112/5 48/117/5 52/118/5 45/113/5
f 47/71/9 59/70/9 76/104/9 74/119/9
f 57/120/10 56/121/10 69/122/10 70/123/10
f 55/124/4 54/125/4 52/126/4 48/127/4
f 64/128/11 62/129/11 49/130/11 43/115/11
f 56/121/10 55/131/10 68/132/10 69/122/10
f 61/74/12 63/133/12 50/134/12 46/75/12
f 53/90/8 58/135/8 51/136/8 45/91/8
f 58/137/2 57/138/2 42/139/2 51/140/2
f 36/106/2 4/62/2 57/138/2 58/137/2
f 35/95/8 36/94/8 58/135/8 53/90/8
f 4/3/13 2/2/13 56/141/13 57/142/13
f 26/21/14 39/24/14 54/125/14 55/124/14
f 2/2/13 26/143/13 55/144/13 56/141/13
f 39/98/8 35/95/8 53/90/8 54/89/8
f 30/79/12 33/84/12 63/133/12 61/74/12
f 8/61/2 29/88/2 62/129/2 64/128/2
f 6/11/15 8/10/15 64/128/15 60/102/15
f 25/145/16 6/11/16 60/102/16 59/70/16
f 29/80/12 30/79/12 61/74/12 62/73/12
f 33/85/17 25/67/17 59/70/17 63/69/17
f 69/146/18 68/147/18 67/148/18 65/149/18
f 70/150/13 69/146/13 65/149/13 66/151/13
f 42/139/19 57/138/19 70/152/19 66/153/19
f 41/154/20 42/155/20 84/156/20 83/157/20
f 55/124/21 48/127/21 67/158/21 68/159/21
f 73/160/3 72/161/3 90/162/3 89/163/3
f 75/164/22 73/165/22 79/166/22 81/167/22
f 71/168/23 75/169/23 81/170/23 77/171/23
f 43/115/9 44/108/9 72/172/9 73/165/9
f 64/128/9 43/115/9 73/165/9 75/164/9
f 44/108/9 47/71/9 74/119/9 72/172/9
f 60/102/9 64/128/9 75/164/9 71/103/9
f 82/173/16 77/174/16 78/175/16 80/176/16
f 77/174/16 81/177/16 79/178/16 78/175/16
f 42/139/11 66/153/11 87/179/11 84/180/11
f 76/181/23 71/168/23 77/171/23 82/182/23
f 74/119/24 76/104/24 82/183/24 80/184/24
f 80/176/1 78/175/1 93/185/1 94/186/1
f 83/187/25 84/188/25 87/189/25 86/190/25
f 85/191/25 83/187/25 86/190/25 88/192/25
f 89/193/26 90/194/26 93/195/26 92/196/26
f 90/194/26 91/197/26 94/198/26 93/195/26
f 66/151/3 65/149/3 86/199/3 87/200/3
f 72/161/3 74/201/3 91/202/3 90/162/3
f 67/158/27 48/127/27 85/203/27 88/204/27
f 74/119/28 80/184/28 94/205/28 91/206/28
f 65/149/3 67/148/3 88/207/3 86/199/3
f 48/208/1 41/154/1 83/157/1 85/209/1
f 78/175/1 79/178/1 92/210/1 93/185/1
f 79/166/11 73/165/11 89/211/11 92/212/11
f 98/213/29 97/214/29 101/215/29 102/216/29
f 3/217/2 4/5/2 95/8/2 96/218/2
f 8/6/2 7/219/2 97/220/2 98/7/2
f 7/219/2 3/217/2 96/218/2 97/220/2
f 99/221/30 140/222/30 135/223/30
f 97/224/31 96/225/31 100/226/31 101/227/31
f 95/228/32 98/229/32 102/230/32 99/231/32
f 96/232/33 95/233/33 99/234/33 100/235/33
f 100/236/34 99/221/34 141/237/34
f 102/238/34 101/239/34 142/240/34
f 101/239/34 100/236/34 139/241/34
f 140/222/35 102/238/35 138/242/35
f 102/238/2 140/222/2 99/221/2
f 142/240/36 138/242/36 102/238/36
f 142/240/22 101/239/22 137/243/22
f 139/241/2 137/243/2 101/239/2
f 139/241/37 100/236/37 136/244/37
f 141/237/11 99/221/11 135/223/11
f 141/237/11 136/244/11 100/236/11
s 1
f 121/245/38 117/246/39 116/247/40 120/248/41
f 125/249/42 115/250/43 114/251/44 124/252/45
f 129/253/46 113/254/47 112/255/48 128/256/49
f 131/257/50 118/258/51 117/246/39 121/245/38
f 120/248/41 116/247/40 115/250/43 125/249/42
f 124/252/45 114/251/44 113/254/47 129/253/46
f 128/256/49 112/255/48 111/259/52 134/260/53
f 134/261/53 111/262/52 118/258/51 131/257/50
f 103/263/6 133/264/54 132/265/55 110/266/56
f 133/264/54 134/261/53 131/257/50 132/265/55
f 104/267/57 127/268/58 133/269/54 103/270/6
f 127/268/58 128/256/49 134/260/53 133/269/54
f 106/271/59 123/272/60 130/273/61 105/274/62
f 123/272/60 124/252/45 129/253/46 130/273/61
f 108/275/63 119/276/64 126/277/65 107/278/5
f 119/276/64 120/248/41 125/249/42 126/277/65
f 110/266/56 132/265/55 122/279/66 109/280/67
f 132/265/55 131/257/50 121/245/38 122/279/66
f 105/274/62 130/273/61 127/268/58 104/267/57
f 130/273/61 129/253/46 128/256/49 127/268/58
f 107/278/5 126/277/65 123/272/60 106/271/59
f 126/277/65 125/249/42 124/252/45 123/272/60
f 109/280/67 122/279/66 119/276/64 108/275/63
f 122/279/66 121/245/38 120/248/41 119/276/64
f 114/281/44 115/282/43 139/283/68 136/284/69
f 114/281/44 136/284/69 141/285/70 113/286/47
f 113/286/47 141/285/70 135/287/71 112/288/48
f 115/282/43 116/289/40 137/290/72 139/283/68
f 111/291/52 112/288/48 135/287/71 140/292/73
f 118/293/51 111/294/52 140/295/73 138/296/74
f 117/297/39 118/293/51 138/296/74 142/298/75
f 116/289/40 117/297/39 142/298/75 137/290/72
