# Blender v2.93.8 OBJ File: 'СтеныСКлетками.blend'
# www.blender.org
mtllib CornerWall_Raw.mtl
o Corner_wall_Куб.001
v -10.087996 7.500001 -24.324085
v -10.087996 7.500001 -24.619125
v -5.465986 7.500001 -24.324085
v -5.465986 7.500001 -24.619125
v -5.739963 8.461126 -24.619125
v -5.739963 8.461126 -24.324085
v -9.767243 8.461126 -24.324085
v -9.767243 8.461126 -24.619125
v -9.767243 15.465295 -24.324085
v -10.087996 15.465295 -24.619125
v -5.739963 15.465295 -24.619125
v -5.739963 15.465295 -24.324085
v -9.767243 15.465295 -24.619125
v -5.465986 15.465295 -24.619125
v -12.087997 7.500001 -23.124086
v -12.087997 0.000001 -23.124086
v -3.465986 7.500001 -23.124086
v -3.465986 0.000001 -23.124086
v -2.865986 0.000001 -23.124086
v -10.087996 7.500001 -23.524086
v -9.767243 15.465295 -23.524086
v -12.087997 15.465295 -23.524086
v -12.087997 7.500001 -23.524086
v -10.087996 7.500001 -25.419127
v -10.087996 15.465295 -25.419127
v -5.465986 7.500001 -23.524086
v -5.739963 15.465295 -23.524086
v -3.465986 7.500001 -23.524086
v -3.465986 15.465295 -23.524086
v -5.465986 7.500001 -25.419127
v -2.865986 7.500001 -25.419127
v -5.465986 15.465295 -25.419127
v -2.865986 15.465295 -25.419127
v -10.087996 17.465294 -25.419127
v -15.687996 17.465294 -25.419127
v -5.465986 17.465294 -25.419127
v -2.865986 17.465294 -25.419127
v -2.865986 0.000001 -25.419127
v -10.087996 0.000001 -25.419127
v -12.087997 0.000001 -23.524086
v -10.087996 0.000001 -23.524086
v -5.465986 0.000001 -23.524086
v -3.465986 0.000001 -23.524086
v -5.465986 0.000001 -25.419127
v -12.687997 0.000001 -21.524086
v -9.767243 15.465295 -23.250086
v -2.865986 7.500001 -21.924086
v -2.865986 15.465295 -21.924086
v -12.687997 15.465295 -21.650085
v -15.687996 17.465294 -21.924086
v -12.687996 7.533297 -21.924086
v -12.087997 7.500001 -21.924086
v -12.087997 15.465295 -21.650085
v -3.465986 7.500001 -21.924086
v -2.865986 0.000001 -21.924086
v -3.465986 15.465295 -21.924086
v -12.087997 0.700001 -23.124086
v -3.465986 0.700001 -23.124086
v -12.087997 0.700001 -21.924086
v -12.687996 0.700001 -21.924086
v -3.465986 0.700001 -21.924086
v -2.865986 0.700001 -21.924086
v -3.865986 0.000001 -23.124086
v -3.865986 0.000001 -21.524086
v -3.825524 0.643661 -23.124086
v -3.825524 0.643661 -21.564548
v -2.865986 0.000001 -21.524086
v -2.865986 0.643661 -21.564548
v -11.687997 0.000001 -21.524086
v -11.687997 0.000001 -23.124086
v -11.728609 0.643661 -23.124086
v -11.728609 0.643661 -21.564697
v -12.087997 16.659840 -23.524086
v -12.687997 0.643661 -21.564697
v -10.087996 16.659840 -23.524086
v -12.087997 0.500001 -23.124086
v -3.465986 0.500001 -23.124086
v -12.687997 0.500001 -21.524086
v -2.865986 0.500001 -21.924086
v -3.865986 0.500001 -23.124086
v -3.865986 0.500001 -21.524086
v -5.465986 16.659840 -23.524086
v -2.865986 0.500001 -21.524086
v -11.687997 0.500001 -23.124086
v -11.687997 0.500001 -21.524086
v -3.465986 16.659840 -23.524086
v -2.865986 16.659840 -21.924086
v -12.087997 16.659838 -21.924086
v -3.465986 16.659840 -21.924086
v -11.487997 17.465294 -21.924086
v -11.687997 16.659838 -21.924086
v -3.865986 16.659840 -23.124086
v -11.687997 16.659840 -23.124086
v -11.487997 17.465294 -22.924086
v -2.865986 17.465294 -21.324085
v -4.065986 17.465294 -21.324085
v -2.865986 16.659840 -21.524086
v -3.865986 16.659840 -21.524086
v -4.065986 17.465294 -22.924086
v -10.087996 17.465294 -22.924086
v -3.465986 6.799931 -23.524086
v -10.087996 16.659840 -23.124086
v -5.465986 16.659840 -23.124086
v -5.465986 17.465294 -22.924086
v -15.687996 0.000001 -25.419127
v -11.687997 17.194496 -21.924086
v -3.865986 17.194496 -23.124086
v -11.687997 17.194496 -23.124086
v -2.865986 17.194496 -21.524086
v -3.865986 17.194496 -21.524086
v -10.087996 17.194496 -23.124086
v -5.465986 17.194496 -23.124086
v -12.087997 6.999931 -23.124086
v -3.465986 6.999931 -23.124086
v -12.087997 6.799931 -23.524086
v -10.087996 6.799931 -23.524086
v -5.465986 6.799931 -23.524086
v -5.465986 7.500001 -23.124086
v -10.087996 7.500001 -23.124086
v -5.465986 6.999931 -23.124086
v -10.087996 6.999931 -23.124086
v -10.087996 15.064957 -24.324085
v -10.087996 15.064957 -23.524086
v -12.087997 15.064957 -23.524086
v -12.687996 15.064957 -21.924086
v -12.087997 15.064957 -21.924086
v -11.813997 15.465295 -23.250086
v -11.813997 15.465295 -21.650085
v -3.739986 15.465295 -21.650085
v -2.865986 15.465295 -21.650085
v -3.739986 15.465295 -23.250086
v -5.465986 15.064957 -24.324085
v -5.465986 15.064957 -23.524086
v -3.465986 15.064957 -23.524086
v -3.465986 15.064957 -21.924086
v -2.865986 15.064957 -21.924086
v -5.739963 15.465295 -23.250086
v -15.687996 0.000001 -16.927004
v -15.687996 17.465294 -16.927004
v -15.687996 0.000001 -21.924086
v -12.687996 0.000001 -17.327003
v -15.687996 0.000001 -16.327003
v -15.687996 17.465294 -16.327003
v -12.687996 0.000001 -16.327003
v -12.687996 0.500001 -17.327003
v -12.687996 15.465295 -17.203003
v -12.687996 0.700001 -16.927004
v -12.087996 0.500001 -16.327003
v -12.087996 0.700001 -16.927004
v -12.087996 0.700001 -16.327003
v -11.687996 0.500001 -17.327003
v -11.687996 0.000001 -17.327003
v -11.687996 0.500001 -16.327003
v -11.687996 0.000001 -16.327003
v -11.728609 0.643661 -17.286833
v -11.728609 0.643661 -16.327003
v -12.087996 15.064957 -16.327003
v -12.687996 0.643661 -17.286833
v -15.687996 15.465295 -16.327003
v -15.687996 15.465295 -21.924086
v -12.687996 15.064957 -16.927004
v -15.687996 15.465295 -16.927004
v -12.087996 15.465295 -16.327003
v -12.087996 0.000001 -16.327003
v -12.087996 15.465295 -17.203003
v -12.087996 15.064957 -16.927004
v -11.811996 15.465295 -17.203003
v -12.087996 16.659838 -16.327003
v -11.811996 15.465295 -16.327003
v -12.087997 16.659838 -16.927004
v -15.687996 15.465295 -25.419127
v -11.687997 17.194496 -16.927004
v -11.687997 16.659838 -16.927004
v -11.687996 17.194496 -16.327003
v -11.687997 16.659838 -16.327003
v -11.487997 17.465294 -16.327003
v -11.487997 17.465294 -16.927004
v -15.687996 7.392565 -21.924086
v -12.687996 7.566592 -16.927004
v -12.087996 7.566592 -16.327003
v -12.087996 7.566592 -16.927004
v -15.687996 7.392565 -16.327003
v -15.687996 7.392565 -16.927004
v -15.687996 7.392565 -25.419127
vt 0.298152 0.735826
vt 0.157662 0.735826
vt 0.157662 0.744075
vt 0.298152 0.744075
vt 0.514577 0.453485
vt 0.525299 0.485612
vt 0.659916 0.485612
vt 0.669074 0.453485
vt 0.336065 0.476650
vt 0.205422 0.476650
vt 0.205422 0.471582
vt 0.336065 0.471582
vt 0.349599 0.426142
vt 0.340209 0.459081
vt 0.202190 0.459081
vt 0.191198 0.426142
vt 0.149056 0.368993
vt 0.207719 0.368993
vt 0.207719 0.414118
vt 0.149056 0.414118
vt 0.217110 0.490256
vt 0.327719 0.490256
vt 0.327719 0.500394
vt 0.217110 0.500394
vt 0.538809 0.713767
vt 0.538809 0.503812
vt 0.549976 0.503812
vt 0.549976 0.713767
vt 0.389116 0.639157
vt 0.389116 0.422706
vt 0.446341 0.422706
vt 0.446341 0.639157
vt 0.834776 0.613185
vt 0.834776 0.622744
vt 0.730492 0.622743
vt 0.730492 0.613185
vt 0.372728 0.638324
vt 0.372728 0.423844
vt 0.360717 0.423844
vt 0.360717 0.638324
vt 0.498779 0.871010
vt 0.502939 0.860374
vt 0.469662 0.860374
vt 0.465502 0.871010
vt 0.231024 0.869679
vt 0.204999 0.869679
vt 0.204999 0.856370
vt 0.236229 0.856370
vt 0.920445 0.663362
vt 0.988133 0.671610
vt 0.988133 0.743678
vt 0.906907 0.696354
vt 0.312004 0.368993
vt 0.312004 0.414118
vt 0.298152 0.713457
vt 0.157662 0.713457
vt 0.307709 0.766444
vt 0.307709 0.744075
vt 0.146472 0.766444
vt 0.146472 0.744075
vt 0.757498 0.704602
vt 0.757498 0.743678
vt 0.698835 0.743678
vt 0.712373 0.704602
vt 0.861782 0.704602
vt 0.861782 0.743678
vt 0.461064 0.767926
vt 0.468395 0.593801
vt 0.481863 0.593880
vt 0.480779 0.771890
vt 0.098929 0.881666
vt 0.126004 0.911476
vt 0.126004 0.930593
vt 0.098929 0.930593
vt 0.698835 0.696354
vt 0.712373 0.696354
vt 0.872940 0.853208
vt 0.872940 0.841927
vt 0.881965 0.841927
vt 0.881965 0.853208
vt 0.463518 0.593732
vt 0.050445 0.520259
vt 0.048168 0.530009
vt 0.033351 0.527220
vt 0.036707 0.517050
vt 0.048544 0.710822
vt 0.035783 0.711663
vt 0.635075 0.823316
vt 0.635075 0.789065
vt 0.652279 0.789065
vt 0.652279 0.823316
vt 0.495405 0.594007
vt 0.494945 0.769258
vt 0.809290 0.873368
vt 0.783253 0.873368
vt 0.767651 0.865106
vt 0.809290 0.865106
vt 0.012857 0.531573
vt 0.022259 0.711872
vt 0.622825 0.823473
vt 0.622825 0.791396
vt 0.587247 0.791396
vt 0.587247 0.823473
vt 0.741405 0.900577
vt 0.741405 0.871246
vt 0.757994 0.862462
vt 0.757994 0.900577
vt 0.280101 0.807261
vt 0.238752 0.807261
vt 0.231670 0.771551
vt 0.280101 0.771551
vt 0.022414 0.722504
vt 0.037685 0.856312
vt 0.024170 0.856489
vt 0.483945 0.444121
vt 0.497157 0.444275
vt 0.050445 0.856144
vt 0.463696 0.578623
vt 0.465410 0.428448
vt 0.469912 0.443961
vt 0.468324 0.583093
vt 0.086096 0.018932
vt 0.060129 0.030213
vt 0.060129 0.018932
vt 0.017965 0.726816
vt 0.019861 0.871436
vt 0.149056 0.189275
vt 0.149056 0.020056
vt 0.207719 0.020056
vt 0.207719 0.189275
vt 0.730492 0.590551
vt 0.730492 0.437127
vt 0.834776 0.437127
vt 0.834776 0.590551
vt 0.685367 0.590551
vt 0.685366 0.437127
vt 0.312003 0.020056
vt 0.312003 0.189275
vt 0.879901 0.590551
vt 0.879901 0.437127
vt 0.806917 0.816174
vt 0.806917 0.794477
vt 0.770150 0.794477
vt 0.770150 0.816174
vt 0.783253 0.900943
vt 0.767651 0.900943
vt 0.721398 0.663362
vt 0.721398 0.696354
vt 0.767540 0.852361
vt 0.767540 0.830664
vt 0.810935 0.830664
vt 0.810935 0.852361
vt 0.698835 0.671610
vt 0.060129 0.034725
vt 0.052349 0.033454
vt 0.051473 0.030213
vt 0.758534 0.818072
vt 0.719426 0.818072
vt 0.719426 0.794993
vt 0.758534 0.794993
vt 0.888070 0.844594
vt 0.888070 0.840082
vt 0.896179 0.841353
vt 0.897095 0.844594
vt 0.760971 0.852240
vt 0.714813 0.852240
vt 0.714813 0.829161
vt 0.760971 0.829161
vt 0.417909 0.870478
vt 0.417909 0.859735
vt 0.459396 0.859735
vt 0.454210 0.870478
vt 0.713710 0.871246
vt 0.713710 0.862462
vt 0.031274 0.514844
vt 0.897882 0.696354
vt 0.897882 0.663362
vt 0.759096 0.858871
vt 0.714813 0.858871
vt 0.888070 0.855875
vt 0.897095 0.855875
vt 0.758534 0.824704
vt 0.720419 0.824704
vt 0.051473 0.018932
vt 0.769296 0.858595
vt 0.810935 0.858595
vt 0.806917 0.822408
vt 0.771080 0.822408
vt 0.469962 0.439544
vt 0.872940 0.857721
vt 0.881052 0.856450
vt 0.024226 0.860742
vt 0.024366 0.871376
vt 0.853728 0.038068
vt 0.854642 0.041309
vt 0.758347 0.041309
vt 0.759251 0.038068
vt 0.423780 0.791465
vt 0.519070 0.791465
vt 0.525553 0.819730
vt 0.416190 0.819730
vt 0.368867 0.791465
vt 0.368867 0.819730
vt 0.572876 0.791465
vt 0.572876 0.819730
vt 0.906907 0.704602
vt 0.261765 0.870478
vt 0.256580 0.859735
vt 0.298066 0.859735
vt 0.298066 0.870478
vt 0.204999 0.830093
vt 0.236229 0.830093
vt 0.506816 0.870372
vt 0.514123 0.860479
vt 0.550657 0.860479
vt 0.550657 0.870372
vt 0.058805 0.796292
vt 0.058805 0.822989
vt 0.071409 0.816315
vt 0.071409 0.796292
vt 0.293464 0.923424
vt 0.293464 0.911476
vt 0.388226 0.881666
vt 0.388226 0.923424
vt 0.514123 0.840946
vt 0.550657 0.840946
vt 0.330484 0.796292
vt 0.349390 0.796292
vt 0.349390 0.789618
vt 0.317880 0.789618
vt 0.502939 0.839374
vt 0.469662 0.839374
vt 0.267464 0.816315
vt 0.267464 0.822989
vt 0.330484 0.822989
vt 0.317880 0.816315
vt 0.060129 0.394820
vt 0.051473 0.406883
vt 0.051473 0.394820
vt 0.478920 0.783752
vt 0.497157 0.777677
vt 0.417909 0.838523
vt 0.459396 0.838523
vt 0.157592 0.911476
vt 0.157592 0.881667
vt 0.261876 0.911476
vt 0.261876 0.881667
vt 0.256580 0.838523
vt 0.298066 0.838523
vt 0.121825 0.822989
vt 0.121825 0.816315
vt 0.834776 0.597124
vt 0.730492 0.597123
vt 0.135760 0.018932
vt 0.135760 0.188151
vt 0.060129 0.188151
vt 0.685367 0.597123
vt 0.685367 0.608406
vt 0.730492 0.608406
vt 0.879901 0.613185
vt 0.834776 0.608406
vt 0.879901 0.608406
vt 0.879901 0.597123
vt 0.685367 0.613185
vt 0.017207 0.711994
vt 0.154615 0.461978
vt 0.154615 0.688289
vt 0.094783 0.688289
vt 0.094783 0.461978
vt 0.184112 0.468675
vt 0.184112 0.694791
vt 0.171450 0.694791
vt 0.171450 0.468675
vt 0.202190 0.699121
vt 0.191198 0.685401
vt 0.514577 0.719736
vt 0.525299 0.719736
vt 0.567449 0.514365
vt 0.571667 0.514365
vt 0.571667 0.703475
vt 0.567449 0.703475
vt 0.076703 0.713457
vt 0.076703 0.661057
vt 0.086262 0.661057
vt 0.086262 0.705795
vt 0.157662 0.705795
vt 0.377478 0.668719
vt 0.367920 0.661057
vt 0.398409 0.661057
vt 0.398409 0.668719
vt 0.030348 0.035656
vt 0.033483 0.046074
vt 0.026149 0.037135
vt 0.377478 0.713457
vt 0.367920 0.705795
vt 0.060129 0.367868
vt 0.060129 0.358836
vt 0.135760 0.367868
vt 0.298152 0.705795
vt 0.372728 0.649674
vt 0.360717 0.649674
vt 0.164210 0.700266
vt 0.102980 0.700266
vt 0.639709 0.507449
vt 0.639709 0.714162
vt 0.650703 0.714162
vt 0.650703 0.507449
vt 0.659916 0.719736
vt 0.669074 0.719736
vt 0.624027 0.519200
vt 0.619935 0.519200
vt 0.619935 0.702673
vt 0.624027 0.702673
vt 0.349599 0.685401
vt 0.340209 0.699121
vt 0.013263 0.520931
vt 0.461575 0.778125
vt 0.438501 0.650612
vt 0.381277 0.650612
vt 0.356603 0.649674
vt 0.171450 0.706757
vt 0.184112 0.706757
vt 0.167113 0.706757
vt 0.618713 0.370087
vt 0.618206 0.415208
vt 0.516423 0.414067
vt 0.516929 0.368945
vt 0.518972 0.186814
vt 0.445740 0.368146
vt 0.447783 0.186016
vt 0.920445 0.576818
vt 0.988133 0.568570
vt 0.920445 0.556197
vt 0.988133 0.556197
vt 0.675435 0.889411
vt 0.675435 0.872611
vt 0.694438 0.872611
vt 0.694438 0.899486
vt 0.853728 0.026786
vt 0.759251 0.026786
vt 0.620756 0.187956
vt 0.622627 0.021171
vt 0.634848 0.021308
vt 0.632977 0.188093
vt 0.745454 0.029491
vt 0.744538 0.032732
vt 0.736429 0.034004
vt 0.736429 0.029491
vt 0.035433 0.222542
vt 0.040974 0.047440
vt 0.042206 0.222476
vt 0.862732 0.042580
vt 0.750247 0.042580
vt 0.694965 0.795609
vt 0.694965 0.822047
vt 0.666965 0.822047
vt 0.666965 0.795609
vt 0.693840 0.829643
vt 0.666965 0.829643
vt 0.906907 0.556197
vt 0.021914 0.222692
vt 0.019470 0.048847
vt 0.109610 0.807261
vt 0.116742 0.771551
vt 0.642914 0.835378
vt 0.642914 0.861816
vt 0.695790 0.861816
vt 0.695790 0.835378
vt 0.642914 0.869413
vt 0.693643 0.869413
vt 0.736429 0.188931
vt 0.736429 0.358114
vt 0.655204 0.367146
vt 0.655204 0.185005
vt 0.094103 0.807261
vt 0.094103 0.771551
vt 0.897882 0.576817
vt 0.897882 0.556197
vt 0.643709 0.889411
vt 0.643709 0.899486
vt 0.745454 0.018210
vt 0.736429 0.018210
vt 0.722892 0.018210
vt 0.736429 0.367146
vt 0.862732 0.196757
vt 0.862732 0.366690
vt 0.750247 0.366690
vt 0.750247 0.197508
vt 0.856564 0.375723
vt 0.756460 0.375723
vt 0.019470 0.039620
vt 0.040974 0.037781
vt 0.076703 0.536712
vt 0.076703 0.512218
vt 0.086332 0.512218
vt 0.086332 0.536712
vt 0.742656 0.367146
vt 0.736429 0.394098
vt 0.745454 0.394098
vt 0.745454 0.406162
vt 0.630934 0.370224
vt 0.630427 0.415345
vt 0.058805 0.702901
vt 0.058805 0.712913
vt 0.071409 0.712913
vt 0.071409 0.702901
vt 0.074948 0.856370
vt 0.074948 0.830093
vt 0.059333 0.856370
vt 0.059333 0.830093
vt 0.655204 0.412271
vt 0.074948 0.869679
vt 0.059333 0.869679
vt 0.388226 0.983128
vt 0.293464 0.983128
vt 0.388226 0.990296
vt 0.293464 0.990296
vt 0.445234 0.413268
vt 0.055773 0.536712
vt 0.055773 0.661057
vt 0.054200 0.367868
vt 0.520843 0.020029
vt 0.655204 0.018210
vt 0.023908 0.373380
vt 0.037075 0.373205
vt 0.044045 0.373119
vt 0.449654 0.019231
vt 0.438354 0.020056
vt 0.438354 0.186851
vt 0.438354 0.368993
vt 0.438354 0.414118
vt 0.135760 0.412993
vt 0.470088 0.428501
vt 0.047145 0.412993
vt 0.698835 0.663362
vt 0.749967 0.412271
vn 0.0000 -1.0000 0.0000
vn 0.0000 0.0000 -1.0000
vn 0.0000 1.0000 0.0000
vn 0.0000 0.0000 1.0000
vn 1.0000 0.0000 0.0000
vn -1.0000 0.0000 0.0000
vn -0.8044 -0.5941 0.0000
vn 0.8044 -0.5941 0.0000
vn 0.0000 -0.5648 0.8252
vn 0.0000 0.9879 0.1548
vn 0.1549 0.9879 0.0000
vn -0.1548 0.9879 0.0000
vn 0.0000 -0.5941 0.8044
vn 0.0000 0.9879 0.1549
vn 0.0000 0.2720 0.9623
vn 0.9623 0.2720 0.0000
vn 0.0000 0.2711 0.9625
vn -0.9626 0.2711 0.0000
vn 0.0000 -0.8944 0.4472
vn 0.0000 -0.5676 -0.8233
vn -0.8252 -0.5648 0.0000
vn 0.8252 -0.5648 0.0000
vn -0.8253 -0.5648 0.0000
vn 0.7804 -0.6253 0.0000
vn 0.0000 0.2693 -0.9631
vn 0.0000 0.9880 -0.1547
vn 0.8233 -0.5676 0.0000
usemtl None
s off
f 12/1/1 9/2/1 13/3/1 11/4/1
f 2/5/2 8/6/2 5/7/2 4/8/2
f 5/9/3 8/10/3 7/11/3 6/12/3
f 3/13/4 6/14/4 7/15/4 1/16/4
f 33/17/2 32/18/2 36/19/2 37/20/2
f 2/21/3 4/22/3 30/23/3 24/24/3
f 10/25/5 2/26/5 24/27/5 25/28/5
f 133/29/4 26/30/4 28/31/4 134/32/4
f 26/33/3 3/34/3 1/35/3 20/36/3
f 132/37/6 3/38/6 26/39/6 133/40/6
f 99/41/7 107/42/7 110/43/7 96/44/7
f 94/45/8 90/46/8 106/47/8 108/48/8
f 45/49/1 140/50/1 105/51/1 16/52/1
f 25/53/2 34/54/2 36/19/2 32/18/2
f 27/55/1 9/2/1 12/1/1
f 27/55/1 21/56/1 9/2/1
f 11/4/1 32/57/1 14/58/1
f 25/59/1 13/3/1 10/60/1
f 42/61/1 44/62/1 38/63/1 43/64/1
f 41/65/1 39/66/1 44/62/1 42/61/1
f 134/67/6 17/68/6 54/69/6 135/70/6
f 37/71/3 99/72/3 96/73/3 95/74/3
f 43/64/1 38/63/1 19/75/1 18/76/1
f 77/77/2 18/78/2 63/79/2 80/80/2
f 134/67/6 28/81/6 17/68/6
f 49/82/9 125/83/9 126/84/9 53/85/9
f 126/84/4 125/83/4 51/86/4 52/87/4
f 89/88/4 56/89/4 48/90/4 87/91/4
f 135/70/4 54/69/4 47/92/4 136/93/4
f 62/94/10 61/95/10 66/96/10 68/97/10
f 124/98/5 126/84/5 52/87/5 15/99/5
f 86/100/6 29/101/6 56/102/6 89/103/6
f 57/104/11 59/105/11 72/106/11 71/107/11
f 73/108/5 88/109/5 53/110/5 22/111/5
f 113/112/5 52/87/5 59/113/5 57/114/5
f 54/69/4 61/115/4 62/116/4 47/92/4
f 52/87/4 51/86/4 60/117/4 59/113/4
f 101/118/6 43/119/6 58/120/6 114/121/6
f 114/121/6 58/120/6 61/115/6 54/69/6
f 19/122/5 79/123/5 55/124/5
f 115/125/5 113/112/5 57/114/5 40/126/5
f 31/127/2 38/128/2 44/129/2 30/130/2
f 116/131/4 41/132/4 42/133/4 117/134/4
f 115/135/4 40/136/4 41/132/4 116/131/4
f 30/130/2 44/129/2 39/137/2 24/138/2
f 101/139/4 117/134/4 42/133/4 43/140/4
f 80/141/6 63/142/6 64/143/6 81/144/6
f 61/95/12 58/145/12 65/146/12 66/96/12
f 18/76/1 64/147/1 63/148/1
f 81/149/4 64/150/4 67/151/4 83/152/4
f 55/153/1 64/147/1 19/75/1
f 79/123/5 62/154/5 68/155/5 83/156/5
f 84/157/5 85/158/5 69/159/5 70/160/5
f 76/161/2 57/162/2 71/163/2 84/164/2
f 85/165/4 78/166/4 45/167/4 69/168/4
f 104/169/13 112/170/13 107/171/13 99/172/13
f 59/105/14 60/173/14 74/174/14 72/106/14
f 53/85/9 126/84/9 128/175/9
f 16/52/1 70/176/1 69/177/1 45/49/1
f 72/178/15 74/179/15 78/166/15 85/165/15
f 16/180/2 76/161/2 84/164/2 70/181/2
f 71/182/16 72/183/16 85/158/16 84/157/16
f 55/124/5 79/123/5 83/156/5 67/184/5
f 66/185/17 81/149/17 83/152/17 68/186/17
f 65/187/18 80/141/18 81/144/18 66/188/18
f 43/119/6 77/189/6 58/120/6
f 58/190/2 77/77/2 80/80/2 65/191/2
f 40/126/5 76/192/5 16/193/5
f 78/194/5 74/195/5 158/196/5 145/197/5
f 21/198/4 27/199/4 82/200/4 75/201/4
f 22/202/4 21/198/4 75/201/4 73/203/4
f 27/199/4 29/204/4 86/205/4 82/200/4
f 105/51/1 39/66/1 41/65/1 40/206/1
f 94/207/13 108/208/13 111/209/13 100/210/13
f 108/48/5 106/47/5 91/211/5 93/212/5
f 96/213/13 110/214/13 109/215/13 95/216/13
f 88/217/1 73/218/1 93/219/1 91/220/1
f 90/221/3 94/222/3 35/223/3 50/224/3
f 110/214/4 98/225/4 97/226/4 109/215/4
f 89/227/1 87/228/1 97/229/1 98/230/1
f 25/59/1 11/4/1 13/3/1
f 107/42/6 92/231/6 98/232/6 110/43/6
f 103/233/1 82/234/1 86/235/1 92/236/1
f 86/235/1 89/227/1 98/230/1 92/236/1
f 87/237/5 109/238/5 97/239/5
f 129/240/9 135/70/9 136/93/9 130/241/9
f 100/210/13 111/209/13 112/170/13 104/169/13
f 112/170/4 103/242/4 92/243/4 107/171/4
f 104/244/3 99/72/3 37/71/3 36/245/3
f 94/222/3 100/246/3 34/247/3 35/223/3
f 108/208/4 93/248/4 102/249/4 111/209/4
f 93/219/1 73/218/1 75/250/1 102/251/1
f 100/246/3 104/244/3 36/245/3 34/247/3
f 111/209/4 102/249/4 103/242/4 112/170/4
f 102/251/1 75/250/1 82/234/1 103/233/1
f 120/252/19 121/253/19 116/131/19 117/134/19
f 38/254/5 31/255/5 47/256/5 19/122/5
f 19/122/5 47/256/5 62/154/5
f 116/131/19 121/253/19 113/257/19 115/135/19
f 15/258/4 113/257/4 121/253/4 119/259/4
f 28/260/3 26/33/3 118/261/3 17/262/3
f 120/252/19 117/134/19 101/139/19 114/263/19
f 26/33/3 20/36/3 119/259/3 118/261/3
f 20/36/3 23/264/3 15/258/3 119/259/3
f 119/259/4 121/253/4 120/252/4 118/261/4
f 17/262/4 118/261/4 120/252/4 114/263/4
f 23/265/5 124/98/5 15/99/5
f 20/266/4 123/267/4 124/268/4 23/269/4
f 1/270/5 122/271/5 123/272/5 20/273/5
f 1/16/4 7/15/4 9/274/4 122/275/4
f 8/6/2 2/5/2 10/276/2 13/277/2
f 7/278/5 8/279/5 13/280/5 9/281/5
f 22/282/3 53/283/3 128/284/3 127/285/3
f 21/56/3 22/282/3 127/285/3 46/286/3
f 56/287/3 129/288/3 130/289/3 48/290/3
f 167/291/20 166/292/20 165/293/20
f 56/287/3 29/294/3 131/295/3 129/288/3
f 48/296/5 136/297/5 33/298/5
f 47/256/5 31/255/5 33/298/5 136/297/5
f 131/295/3 29/294/3 27/55/3 137/299/3
f 30/130/2 32/18/2 33/17/2 31/127/2
f 12/300/21 132/37/21 133/40/21 27/301/21
f 123/267/9 46/302/9 127/303/9 124/268/9
f 4/304/6 14/305/6 32/306/6 30/307/6
f 4/8/2 5/7/2 11/308/2 14/309/2
f 5/310/6 6/311/6 12/312/6 11/313/6
f 6/14/4 3/13/4 132/314/4 12/315/4
f 128/175/22 126/84/22 124/98/22 127/316/22
f 134/67/21 135/70/21 129/240/21 131/317/21
f 131/318/9 137/319/9 133/29/9 134/32/9
f 133/40/23 137/320/23 27/301/23
f 21/321/24 123/272/24 122/271/24 9/322/24
f 46/323/24 123/272/24 21/321/24
f 162/324/6 139/325/6 50/326/6 160/327/6
f 178/328/6 160/327/6 171/329/6 184/330/6
f 140/50/1 45/49/1 141/331/1 138/332/1
f 138/332/1 141/331/1 144/333/1 142/334/1
f 149/335/11 150/336/11 156/337/11 155/338/11
f 45/339/5 78/194/5 145/197/5 141/340/5
f 183/341/6 138/342/6 142/343/6 182/344/6
f 153/345/4 156/346/4 150/347/4 148/348/4
f 181/349/5 166/292/5 157/350/5 180/351/5
f 74/195/5 60/352/5 147/353/5 158/196/5
f 152/354/5 151/355/5 153/356/5 154/357/5
f 151/355/16 155/358/16 156/359/16 153/356/16
f 144/333/1 141/331/1 164/360/1
f 179/361/2 161/362/2 166/292/2 181/349/2
f 53/110/5 88/109/5 170/363/5 165/364/5
f 141/365/2 145/366/2 151/367/2 152/368/2
f 145/366/25 158/369/25 155/370/25 151/367/25
f 180/371/4 157/372/4 159/373/4 182/374/4
f 165/364/5 170/363/5 168/375/5 163/376/5
f 141/331/1 152/377/1 154/378/1 164/360/1
f 147/379/26 149/335/26 155/338/26 158/380/26
f 154/381/4 153/345/4 148/348/4 164/382/4
f 164/382/4 148/348/4 144/383/4
f 159/373/4 157/372/4 163/384/4
f 183/341/6 162/324/6 160/327/6 178/328/6
f 148/348/4 150/347/4 144/383/4
f 51/385/5 125/386/5 161/387/5 179/388/5
f 125/386/5 49/389/5 146/390/5 161/387/5
f 166/292/20 161/362/20 146/391/20 165/293/20
f 166/292/27 167/291/27 169/392/27 157/350/27
f 165/393/3 163/394/3 169/395/3 167/396/3
f 163/384/4 157/372/4 169/397/4
f 168/398/4 175/399/4 174/400/4
f 139/325/6 162/324/6 159/401/6 143/402/6
f 168/403/1 170/404/1 173/405/1 175/406/1
f 91/211/5 106/47/5 172/407/5 173/408/5
f 173/408/5 172/407/5 174/409/5 175/410/5
f 170/404/1 88/217/1 91/220/1 173/405/1
f 174/400/4 143/411/4 168/398/4
f 172/407/8 177/412/8 176/413/8 174/409/8
f 106/47/8 90/46/8 177/412/8 172/407/8
f 50/224/3 139/414/3 177/415/3 90/221/3
f 139/414/3 143/416/3 176/417/3 177/415/3
f 168/398/4 143/411/4 159/373/4 163/384/4
f 40/206/1 16/52/1 105/51/1
f 160/327/6 50/326/6 35/418/6 171/329/6
f 165/393/1 146/419/1 49/420/1 53/283/1
f 48/296/5 130/421/5 136/297/5
f 17/68/6 114/121/6 54/69/6
f 113/112/5 15/99/5 52/87/5
f 60/352/5 51/385/5 179/388/5 147/353/5
f 138/342/6 183/341/6 178/328/6 140/422/6
f 144/383/4 180/371/4 182/374/4 142/423/4
f 147/424/2 179/361/2 181/349/2 149/425/2
f 149/425/5 181/349/5 180/351/5 150/426/5
f 162/324/6 183/341/6 182/344/6 159/401/6
f 140/422/6 178/328/6 184/330/6 105/427/6
f 39/137/2 105/428/2 184/429/2 24/138/2
f 24/138/2 184/429/2 171/430/2 25/53/2
f 171/430/2 35/431/2 34/54/2 25/53/2
f 87/237/5 48/296/5 33/298/5 37/432/5
f 43/119/6 18/433/6 77/189/6
f 19/122/5 62/154/5 79/123/5
f 95/434/5 109/238/5 37/432/5
f 109/238/5 87/237/5 37/432/5
f 11/4/1 25/59/1 32/57/1
f 40/126/5 57/114/5 76/192/5
f 150/347/4 180/371/4 144/383/4
f 18/76/1 19/75/1 64/147/1
f 55/153/1 67/435/1 64/147/1
f 174/400/4 176/436/4 143/411/4
