# Blender v2.93.8 OBJ File: 'СтеныСКлетками.blend'
# www.blender.org
mtllib DoorWall_Raw.mtl
o Door_wall_Куб.010
v -38.688343 0.000000 4.139726
v -38.688343 17.465294 4.139726
v -38.688343 0.000000 -4.483903
v -38.688343 17.465294 -4.483903
v -35.688343 0.000000 3.739727
v -34.488346 17.465294 4.139726
v -35.688343 0.000000 -4.083903
v -34.488346 17.465294 -4.483903
v -38.688343 0.000000 4.739726
v -38.688343 17.465294 4.739726
v -34.488346 17.465294 4.739726
v -35.688343 0.000000 4.739726
v -35.688343 0.500000 -4.083903
v -35.688343 0.500000 3.739727
v -35.088451 0.000000 4.739726
v -35.688343 15.465294 3.863726
v -35.688343 0.700000 -4.483903
v -35.688343 0.700000 4.139726
v -35.088345 0.700000 4.139726
v -35.088345 0.700000 4.739726
v -34.688343 0.500000 3.739727
v -34.688343 0.000000 3.739727
v -34.688343 0.500000 4.739726
v -34.688343 0.000000 4.739726
v -34.728958 0.643660 3.779897
v -34.728958 0.643660 4.739726
v -35.688343 0.000000 -5.083903
v -35.688343 15.465294 -4.207903
v -35.088345 15.064957 4.739726
v -35.688343 0.643660 3.779897
v -38.688343 15.465294 4.739726
v -38.688343 15.465294 -4.483903
v -35.688343 15.064957 4.139726
v -38.688343 15.465294 4.139726
v -35.088451 0.500000 4.739726
v -35.088345 15.465294 4.739726
v -35.088345 15.465294 3.863727
v -35.088345 15.064957 4.139726
v -35.088345 15.465294 -4.207903
v -34.812344 15.465294 3.863726
v -35.088345 16.659836 4.739726
v -34.812344 15.465294 4.739727
v -35.088345 16.659836 -4.483903
v -35.088345 16.659836 4.139726
v -34.688343 17.194496 4.739726
v -34.688347 17.194496 -4.483903
v -34.688347 16.659836 -4.483903
v -34.688343 17.194496 4.139726
v -34.688347 16.659836 4.139726
v -34.688343 16.659836 4.739726
v -35.088345 0.000000 -5.083903
v -38.688343 0.000000 -5.083903
v -38.688343 17.465294 -5.083903
v -34.488346 17.465294 -5.083903
v -35.088345 0.500000 -5.083903
v -38.688343 15.465294 -5.083903
v -35.088345 15.465294 -5.083903
v -35.088345 16.659836 -5.083903
v -34.688347 17.194496 -5.083903
v -34.688347 16.659836 -5.083903
v -34.688343 0.500000 -4.083903
v -34.688343 0.000000 -4.083903
v -34.688343 0.500000 -5.083903
v -34.688343 0.000000 -5.083903
v -35.688343 15.064957 -4.483903
v -35.088345 15.064957 -5.083903
v -35.088345 0.700000 -4.483903
v -34.812344 15.465294 -5.083904
v -35.088345 15.064957 -4.483903
v -34.812344 15.465294 -4.207903
v -35.088345 0.700000 -5.083903
v -35.688343 0.643660 -4.123903
v -34.728958 0.643660 -4.123903
v -34.728958 0.643660 -5.083904
v -38.688343 0.000000 -2.790290
v -38.688343 0.000000 2.446119
v -38.688343 17.465294 2.446119
v -38.688343 17.465294 -2.790289
v -35.488346 0.000000 2.446118
v -35.488346 0.000000 -2.790290
v -34.488346 17.465294 -3.637097
v -34.488346 17.465294 3.292923
v -38.688343 15.465294 2.446119
v -38.688343 15.465294 -2.790291
v -35.088345 15.465294 -3.499097
v -35.088345 15.465294 3.154923
v -35.688343 15.465294 -3.499097
v -35.688343 15.465294 3.154923
v -35.088345 16.659836 -3.637097
v -35.088345 16.659836 3.292923
v -34.688347 16.659836 -3.637097
v -34.688347 16.659836 3.292923
v -34.688347 17.194496 -3.637097
v -34.688347 17.194496 3.292923
v -35.688343 15.064957 -3.637097
v -35.688343 15.064957 3.292923
v -35.688343 12.395441 -4.483904
v -35.088345 11.460783 4.739726
v -35.088345 11.460783 -5.083903
v -35.088345 12.395441 4.139726
v -35.688343 12.395441 4.139730
v -35.088345 12.395441 -4.483903
v -35.488346 10.613081 -2.790290
v -35.488346 10.613081 2.446119
v -38.688343 11.533417 -4.483903
v -38.688343 11.533417 4.739726
v -38.688343 11.533417 4.139726
v -38.688343 11.533417 -5.083903
v -38.688343 10.613081 2.446119
v -38.688343 10.613081 -2.790291
v -35.688343 0.700000 3.292923
v -35.688343 0.000000 3.292922
v -35.688343 0.000000 -3.637097
v -35.688343 0.700000 -3.637097
v -35.688343 10.613081 -3.637097
v -35.488346 0.000000 3.292922
v -35.488346 11.460783 3.292923
v -35.488346 11.460783 -3.637097
v -35.488346 0.000000 -3.637097
v -35.588345 11.995441 -3.637097
v -35.588345 11.995441 3.292923
v -35.588345 11.460783 -3.637097
v -35.588345 11.460783 3.292923
v -35.688343 11.995441 3.863731
v -35.688343 11.995441 -4.207904
v -35.688343 12.395441 -3.637097
v -35.088345 11.995441 -4.207904
v -35.088345 11.995441 3.863731
v -35.688343 12.395441 3.292923
v -34.812344 12.395441 -4.483904
v -34.812344 12.395441 -3.637097
v -34.812344 12.395441 3.292923
v -34.812344 12.395441 4.139730
v -35.088345 11.995441 3.292923
v -35.088345 11.995441 -3.637097
v -35.688343 10.613081 -4.207904
v -35.488346 10.613081 -4.207904
v -35.688343 10.613081 3.292923
v -35.688343 10.613081 3.863731
v -35.488346 10.613081 3.292923
v -35.488346 10.613081 3.863731
v -35.488346 10.613081 -3.637097
vt 0.783534 0.756987
vt 0.805663 0.756362
vt 0.805733 0.759778
vt 0.783572 0.760514
vt 0.570615 0.853157
vt 0.570615 0.963591
vt 0.554635 0.963591
vt 0.554635 0.853157
vt 0.763928 0.147622
vt 0.791569 0.052201
vt 0.806153 0.052202
vt 0.819210 0.147622
vt 0.593169 0.853157
vt 0.615723 0.963591
vt 0.612940 0.488081
vt 0.618275 0.495612
vt 0.506249 0.495612
vt 0.838794 0.052202
vt 0.838794 0.147622
vt 0.640909 0.017860
vt 0.638689 0.026046
vt 0.619045 0.029256
vt 0.619040 0.017860
vt 0.805716 0.758233
vt 0.832616 0.757842
vt 0.832632 0.759387
vt 0.586254 0.009927
vt 0.619042 0.009928
vt 0.655258 0.577837
vt 0.650030 0.541525
vt 0.678261 0.541525
vt 0.678261 0.599465
vt 0.707720 0.046860
vt 0.707720 0.066137
vt 0.695820 0.060629
vt 0.695820 0.046860
vt 0.813968 0.834879
vt 0.814177 0.824908
vt 0.832573 0.825352
vt 0.832371 0.835386
vt 0.472128 0.331650
vt 0.472128 0.014025
vt 0.488108 0.014025
vt 0.488108 0.331650
vt 0.602269 0.328635
vt 0.814574 0.805452
vt 0.814580 0.803191
vt 0.832914 0.803371
vt 0.832900 0.805602
vt 0.540082 0.628367
vt 0.515579 0.628367
vt 0.515579 0.547208
vt 0.540082 0.547208
vt 0.508541 0.628367
vt 0.508541 0.547208
vt 0.603519 0.759643
vt 0.599775 0.802343
vt 0.572849 0.802755
vt 0.581300 0.759077
vt 0.540082 0.697000
vt 0.515579 0.697000
vt 0.508541 0.697000
vt 0.090838 0.012860
vt 0.090841 0.021087
vt 0.067974 0.021087
vt 0.067972 0.012860
vt 0.554422 0.803241
vt 0.554254 0.759031
vt 0.621666 0.577837
vt 0.621666 0.599465
vt 0.640911 0.009928
vt 0.472128 0.495010
vt 0.472128 0.439931
vt 0.488108 0.439931
vt 0.488108 0.495010
vt 0.602270 0.428862
vt 0.602270 0.439995
vt 0.506248 0.439995
vt 0.108391 0.430815
vt 0.108391 0.441921
vt 0.100692 0.441921
vt 0.208817 0.332840
vt 0.208817 0.441921
vt 0.108392 0.330825
vt 0.635429 0.444009
vt 0.635429 0.433101
vt 0.631164 0.433101
vt 0.631164 0.444009
vt 0.637391 0.444009
vt 0.287554 0.439931
vt 0.287554 0.495010
vt 0.242446 0.495010
vt 0.242446 0.439931
vt 0.670656 0.443828
vt 0.683170 0.454624
vt 0.643450 0.454624
vt 0.643450 0.443828
vt 0.602271 0.473213
vt 0.554256 0.757479
vt 0.581302 0.757525
vt 0.609632 0.439995
vt 0.572877 0.805027
vt 0.554464 0.805484
vt 0.800297 0.963591
vt 0.800297 0.853158
vt 0.816277 0.853158
vt 0.816277 0.963591
vt 0.599766 0.805065
vt 0.599363 0.823771
vt 0.573503 0.824580
vt 0.555097 0.825344
vt 0.787804 0.803133
vt 0.787804 0.805842
vt 0.612940 0.473213
vt 0.573843 0.834537
vt 0.555440 0.835386
vt 0.599457 0.833166
vt 0.208816 0.497407
vt 0.091653 0.497407
vt 0.097232 0.489894
vt 0.108391 0.475061
vt 0.097232 0.475061
vt 0.226465 0.495010
vt 0.226465 0.439931
vt 0.090842 0.032457
vt 0.125137 0.012860
vt 0.915055 0.053908
vt 0.903271 0.143238
vt 0.885597 0.143238
vt 0.885597 0.053908
vt 0.583299 0.627436
vt 0.560514 0.627436
vt 0.560514 0.546917
vt 0.583299 0.546917
vt 0.017588 0.070526
vt 0.040141 0.070526
vt 0.032790 0.343526
vt 0.017588 0.343526
vt 0.583299 0.699048
vt 0.560514 0.699048
vt 0.287553 0.306304
vt 0.242446 0.331650
vt 0.506247 0.330655
vt 0.180519 0.811804
vt 0.311916 0.811810
vt 0.333164 0.833806
vt 0.159270 0.833798
vt 0.670656 0.371832
vt 0.643450 0.346625
vt 0.226465 0.331650
vt 0.589805 0.546917
vt 0.589805 0.627436
vt 0.053506 0.375304
vt 0.053506 0.061836
vt 0.080711 0.061836
vt 0.080711 0.350253
vt 0.049204 0.375304
vt 0.049204 0.061836
vt 0.049204 0.457584
vt 0.049204 0.446854
vt 0.053469 0.446854
vt 0.053469 0.457584
vt 0.621465 0.648187
vt 0.621465 0.630010
vt 0.677126 0.630010
vt 0.655336 0.648512
vt 0.589805 0.699048
vt 0.677126 0.678916
vt 0.649361 0.678916
vt 0.070297 0.029254
vt 0.080711 0.457584
vt 0.040991 0.457584
vt 0.080711 0.446854
vt 0.055431 0.457584
vt 0.765302 0.679699
vt 0.768978 0.690724
vt 0.750099 0.690723
vt 0.742748 0.679699
vt 0.838794 0.020395
vt 0.838794 0.033121
vt 0.806153 0.020395
vt 0.885597 0.036042
vt 0.885597 0.024131
vt 0.915055 0.024131
vt 0.949876 0.679698
vt 0.946201 0.690723
vt 0.427020 0.306304
vt 0.427020 0.439931
vt 0.788282 0.824602
vt 0.788200 0.834017
vt 0.965825 0.174140
vt 0.965824 0.466415
vt 0.870597 0.466415
vt 0.870593 0.174140
vt 0.427020 0.495010
vt 0.765043 0.178475
vt 0.844303 0.178475
vt 0.844303 0.470750
vt 0.765040 0.470750
vt 0.777743 0.853158
vt 0.755189 0.963591
vt 0.953162 0.143238
vt 0.928217 0.053908
vt 0.953162 0.047953
vt 0.685166 0.066137
vt 0.694750 0.064586
vt 0.603554 0.756110
vt 0.155534 0.554914
vt 0.155534 0.536439
vt 0.159283 0.536439
vt 0.670656 0.056413
vt 0.643450 0.056413
vt 0.631164 0.041677
vt 0.631164 0.360360
vt 0.635429 0.360360
vt 0.635429 0.041677
vt 0.808016 0.504992
vt 0.947483 0.504992
vt 0.947483 0.571310
vt 0.808016 0.571311
vt 0.242446 0.014027
vt 0.226465 0.014027
vt 0.506241 0.009928
vt 0.287553 0.014027
vt 0.208822 0.012860
vt 0.427020 0.014025
vt 0.336544 0.536287
vt 0.336544 0.554914
vt 0.333177 0.536446
vt 0.581350 0.755652
vt 0.147019 0.967108
vt 0.124105 0.967108
vt 0.124105 0.959200
vt 0.147019 0.955562
vt 0.763928 0.045840
vt 0.029488 0.051248
vt 0.029488 0.065018
vt 0.017588 0.051248
vt 0.972430 0.679698
vt 0.965079 0.690723
vt 0.791569 0.045840
vt 0.030553 0.068974
vt 0.333165 0.811811
vt 0.159271 0.811803
vt 0.336544 0.811876
vt 0.928217 0.047953
vt 0.399150 0.915243
vt 0.367024 0.915243
vt 0.367024 0.880467
vt 0.399150 0.880467
vt 0.424628 0.751125
vt 0.451083 0.871306
vt 0.424628 0.824823
vt 0.333190 0.836840
vt 0.159295 0.836832
vt 0.413927 0.915243
vt 0.110062 0.908372
vt 0.094453 0.873596
vt 0.094453 0.908372
vt 0.692517 0.339137
vt 0.692517 0.377207
vt 0.685166 0.388223
vt 0.121849 0.937225
vt 0.129338 0.929102
vt 0.144824 0.929102
vt 0.144824 0.937225
vt 0.357449 0.959200
vt 0.334535 0.955562
vt 0.357449 0.955562
vt 0.334535 0.967108
vt 0.159295 0.850704
vt 0.333189 0.850713
vt 0.332847 0.929102
vt 0.332847 0.937225
vt 0.348334 0.929102
vt 0.355822 0.937225
vt 0.124105 0.955562
vt 0.143348 0.885142
vt 0.330433 0.885142
vt 0.330433 0.878552
vt 0.143348 0.878552
vt 0.367024 0.760286
vt 0.377732 0.760286
vt 0.060522 0.873596
vt 0.060522 0.908372
vt 0.040141 0.392611
vt 0.409435 0.806089
vt 0.412071 0.806089
vt 0.412071 0.758095
vt 0.409435 0.758095
vt 0.099421 0.793383
vt 0.099421 0.745389
vt 0.096785 0.745389
vt 0.096785 0.793383
vt 0.071833 0.753415
vt 0.060522 0.753415
vt 0.129338 0.901030
vt 0.144824 0.901030
vt 0.332847 0.901030
vt 0.348334 0.901030
vt 0.032790 0.381595
vt 0.418015 0.824823
vt 0.418015 0.871306
vt 0.311929 0.536445
vt 0.357449 0.967108
vt 0.707720 0.339137
vt 0.155534 0.811854
vt 0.110069 0.811654
vt 0.103694 0.811654
vt 0.103694 0.858137
vt 0.135570 0.858137
vt 0.110069 0.737956
vt 0.180532 0.536440
vt 0.949877 0.606182
vt 0.972430 0.606182
vt 0.765302 0.606182
vt 0.742748 0.606182
vn 0.0000 -1.0000 0.0000
vn 0.0000 1.0000 0.0000
vn 0.0000 0.0000 1.0000
vn 0.1549 0.9879 0.0000
vn 1.0000 0.0000 0.0000
vn 0.8044 -0.5941 0.0000
vn -1.0000 0.0000 0.0000
vn 0.9623 0.2721 0.0000
vn 0.0000 0.0000 -1.0000
vn 0.0000 0.2693 -0.9631
vn 0.0000 0.9880 -0.1547
vn 0.0000 -0.5676 -0.8233
vn 0.8233 -0.5676 0.0000
vn 0.9623 0.2720 0.0000
vn 0.0000 -0.5676 0.8233
vn 0.0000 0.9880 0.1546
vn 0.0000 0.2682 0.9634
vn 1.0000 0.0001 0.0000
vn 0.0000 -0.5679 0.8231
vn -0.0000 -0.5679 -0.8231
vn 0.8231 -0.5679 0.0000
vn 0.9606 -0.2780 0.0000
usemtl None
s off
f 87/1/1 28/2/1 39/3/1 85/4/1
f 6/5/2 2/6/2 10/7/2 11/8/2
f 76/9/1 112/10/1 5/11/1 1/12/1
f 82/13/2 77/14/2 2/6/2 6/5/2
f 45/15/3 11/16/3 10/17/3
f 1/12/1 5/11/1 12/18/1 9/19/1
f 23/20/3 26/21/3 20/22/3 35/23/3
f 39/3/2 70/24/2 68/25/2 57/26/2
f 12/27/3 15/28/3 35/23/3
f 19/29/4 20/30/4 26/31/4 25/32/4
f 112/33/5 111/34/5 14/35/5 5/36/5
f 8/37/6 46/38/6 59/39/6 54/40/6
f 107/41/7 1/42/7 9/43/7 106/44/7
f 98/45/3 12/27/3 20/22/3
f 47/46/1 43/47/1 58/48/1 60/49/1
f 22/50/5 21/51/5 23/52/5 24/53/5
f 21/51/8 25/54/8 26/55/8 23/52/8
f 86/56/5 90/57/5 44/58/5 37/59/5
f 5/60/9 14/61/9 21/51/9 22/50/9
f 14/61/10 30/62/10 25/54/10 21/51/10
f 51/63/9 55/64/9 63/65/9 64/66/9
f 37/59/5 44/58/5 41/67/5 36/68/5
f 18/69/11 19/29/11 25/32/11 30/70/11
f 35/23/3 15/28/3 24/71/3 23/20/3
f 12/27/3 35/23/3 20/22/3
f 2/72/7 34/73/7 31/74/7 10/75/7
f 29/76/3 36/77/3 31/78/3
f 66/79/9 57/80/9 68/81/9
f 108/82/9 56/83/9 66/79/9 99/84/9
f 37/85/12 38/86/12 33/87/12 16/88/12
f 40/89/12 38/86/12 37/85/12
f 84/90/7 78/91/7 4/92/7 32/93/7
f 38/94/13 40/95/13 42/96/13 29/97/13
f 36/77/3 41/98/3 10/17/3 31/78/3
f 37/59/2 36/68/2 42/99/2 40/100/2
f 36/77/3 29/76/3 42/101/3
f 41/67/1 44/58/1 49/102/1 50/103/1
f 41/98/3 45/15/3 10/17/3
f 4/104/2 8/105/2 54/106/2 53/107/2
f 92/108/5 94/109/5 48/110/5 49/102/5
f 49/102/5 48/110/5 45/111/5 50/103/5
f 89/112/1 43/47/1 47/46/1 91/113/1
f 45/15/3 41/98/3 50/114/3
f 48/110/6 6/115/6 11/116/6 45/111/6
f 94/109/6 82/117/6 6/115/6 48/110/6
f 53/118/9 54/119/9 59/120/9
f 56/83/9 57/80/9 66/79/9
f 58/121/9 57/80/9 56/83/9 53/118/9
f 58/121/9 59/120/9 60/122/9
f 53/118/9 59/120/9 58/121/9
f 32/93/7 4/92/7 53/123/7 56/124/7
f 71/125/9 55/64/9 27/126/9
f 46/38/5 47/46/5 60/49/5 59/39/5
f 7/127/1 3/128/1 52/129/1 27/130/1
f 43/47/5 39/3/5 57/26/5 58/48/5
f 61/131/5 62/132/5 64/133/5 63/134/5
f 114/135/5 17/136/5 136/137/5 115/138/5
f 13/139/3 7/140/3 62/132/3 61/131/3
f 110/141/7 84/90/7 32/93/7 105/142/7
f 98/45/3 29/76/3 31/78/3 106/143/3
f 104/144/5 103/145/5 118/146/5 117/147/5
f 100/148/5 38/94/5 29/97/5 98/149/5
f 105/142/7 32/93/7 56/124/7 108/150/7
f 63/134/14 74/151/14 73/152/14 61/131/14
f 102/153/5 67/154/5 71/155/5 99/156/5
f 27/126/9 55/64/9 51/63/9
f 97/157/3 17/158/3 67/154/3 102/153/3
f 28/159/15 65/160/15 69/161/15 39/162/15
f 17/163/16 72/164/16 73/165/16 67/166/16
f 72/167/17 13/139/17 61/131/17 73/152/17
f 67/166/4 73/165/4 74/168/4 71/169/4
f 71/125/9 74/170/9 63/65/9 55/64/9
f 68/171/13 70/172/13 69/161/13 66/173/13
f 39/162/15 69/161/15 70/174/15
f 96/175/5 88/176/5 16/177/5 33/178/5
f 24/179/1 15/180/1 5/11/1 22/181/1
f 5/11/1 15/180/1 12/18/1
f 27/130/1 51/182/1 7/127/1
f 64/183/1 62/184/1 7/127/1 51/182/1
f 95/185/5 87/186/5 88/176/5 96/175/5
f 109/187/7 83/188/7 84/90/7 110/141/7
f 93/189/6 81/190/6 82/117/6 94/109/6
f 90/57/1 89/112/1 91/113/1 92/108/1
f 91/113/5 93/189/5 94/109/5 92/108/5
f 110/191/3 75/192/3 80/193/3 103/194/3
f 83/188/7 77/195/7 78/91/7 84/90/7
f 85/4/5 89/112/5 90/57/5 86/56/5
f 109/196/9 104/197/9 79/198/9 76/199/9
f 81/200/2 78/201/2 77/14/2 82/13/2
f 75/202/1 113/203/1 80/204/1
f 18/205/18 30/206/18 111/34/18
f 88/207/1 87/1/1 85/4/1 86/56/1
f 111/34/5 30/206/5 14/35/5
f 111/208/3 112/209/3 116/210/3
f 19/211/5 100/148/5 98/149/5 20/212/5
f 18/213/9 101/214/9 100/215/9 19/216/9
f 109/217/1 110/218/1 103/219/1 104/220/1
f 3/221/7 105/142/7 108/150/7 52/222/7
f 12/27/3 98/45/3 106/143/3 9/223/3
f 75/224/7 110/141/7 105/142/7 3/221/7
f 52/225/9 108/82/9 99/84/9 27/126/9
f 27/126/9 99/84/9 71/125/9
f 1/42/7 107/41/7 109/187/7 76/226/7
f 113/227/9 114/228/9 119/229/9
f 16/230/1 88/207/1 86/56/1 37/59/1
f 34/73/7 2/72/7 77/195/7 83/188/7
f 44/58/1 90/57/1 92/108/1 49/102/1
f 107/41/7 34/73/7 83/188/7 109/187/7
f 129/231/2 101/232/2 100/233/2 132/234/2
f 76/9/1 79/235/1 112/10/1
f 3/128/1 7/127/1 113/203/1 75/202/1
f 8/105/2 4/104/2 78/201/2 81/200/2
f 7/236/5 13/237/5 114/135/5 113/238/5
f 39/3/5 43/47/5 89/112/5 85/4/5
f 47/46/5 46/38/5 93/189/5 91/113/5
f 46/38/6 8/37/6 81/190/6 93/189/6
f 65/239/5 28/240/5 87/186/5 95/185/5
f 112/10/1 79/235/1 116/241/1
f 34/73/7 107/41/7 106/44/7 31/74/7
f 69/161/5 102/153/5 99/156/5 66/173/5
f 72/242/5 17/136/5 114/135/5
f 13/237/5 72/242/5 114/135/5
f 103/145/5 142/243/5 118/146/5
f 117/147/5 140/244/5 104/144/5
f 115/245/9 142/243/9 119/229/9 114/228/9
f 80/204/1 113/203/1 119/246/1
f 100/247/19 101/248/19 124/249/19 128/250/19
f 142/251/3 135/252/3 118/253/3
f 117/147/2 118/146/2 122/254/2 123/255/2
f 100/247/19 128/250/19 133/256/19
f 130/257/20 127/258/20 102/259/20
f 139/260/5 124/261/5 101/262/5
f 133/263/21 128/264/21 134/265/21 132/266/21
f 102/267/2 131/268/2 130/269/2
f 129/231/2 132/234/2 131/268/2 126/270/2
f 121/271/5 123/255/5 122/254/5 120/272/5
f 132/266/21 134/265/21 135/273/21 131/274/21
f 131/274/21 135/273/21 127/275/21 130/276/21
f 100/233/2 133/277/2 132/234/2
f 121/278/1 120/279/1 135/280/1 134/281/1
f 128/250/3 124/249/3 139/282/3 141/283/3
f 125/284/20 97/285/20 102/259/20 127/258/20
f 17/136/5 97/286/5 136/137/5
f 136/287/1 137/288/1 142/289/1 115/290/1
f 101/214/9 33/87/9 38/86/9 100/215/9
f 140/291/1 141/292/1 139/293/1 138/294/1
f 125/284/9 127/258/9 137/295/9 136/296/9
f 134/265/22 128/264/22 141/297/22 140/298/22
f 127/275/22 135/273/22 142/299/22 137/300/22
f 97/286/5 125/301/5 136/137/5
f 122/302/3 118/253/3 135/252/3 120/303/3
f 103/145/5 80/304/5 119/229/5 142/243/5
f 102/267/2 97/305/2 126/270/2 131/268/2
f 102/153/3 69/161/3 65/160/3 97/157/3
f 18/205/5 139/260/5 101/262/5
f 18/205/5 111/34/5 138/306/5 139/260/5
f 140/244/3 138/307/3 111/208/3 116/210/3
f 117/308/9 123/309/9 121/310/9 134/311/9
f 134/311/9 140/312/9 117/308/9
f 116/210/5 79/313/5 104/144/5 140/244/5
f 95/185/5 126/314/5 97/315/5 65/239/5
f 96/175/5 129/316/5 126/314/5 95/185/5
f 96/175/5 33/178/5 101/317/5 129/316/5
