# Blender v2.93.9 OBJ File: 'Постаменты.blend'
# www.blender.org
mtllib Relief_Raw.mtl
o Барельеф_лоу_Куб.006
v 11.883763 1.862545 -20.064964
v 11.883763 5.043287 -20.064964
v 11.880692 1.864751 -20.431847
v 11.897846 5.031495 -20.434828
v 13.514977 1.862545 -20.064964
v 13.514977 5.043287 -20.064964
v 13.510626 1.865400 -20.433502
v 13.501492 5.039164 -20.434681
v 11.705312 1.866718 -20.430555
v 11.702702 1.865706 -20.068409
v 11.720306 5.006699 -20.091198
v 11.727482 5.009914 -20.402405
v 13.654248 5.031413 -20.412773
v 13.687576 1.866672 -20.432518
v 13.692157 1.865455 -20.071249
v 13.671872 5.025329 -20.086830
v 11.878538 1.865030 -20.030849
v 11.883765 5.043487 -20.029070
v 11.705478 1.867065 -20.031687
v 11.728590 5.002140 -20.052820
v 13.514773 5.043681 -20.029074
v 13.515617 1.865617 -20.029459
v 13.662189 5.019766 -20.050751
v 13.689638 1.866103 -20.033543
v 12.230287 5.225053 -20.029081
v 12.121300 5.337139 -20.047857
v 13.217747 5.357874 -20.043810
v 13.167606 5.225211 -20.029093
v 12.121424 5.361435 -20.078737
v 12.697567 5.310967 -20.029165
v 12.688097 5.485044 -20.411703
v 12.692311 5.479670 -20.046274
v 12.698322 5.310728 -20.064964
v 12.696436 1.865023 -20.432543
v 12.688588 4.716502 -20.438444
v 12.698322 1.862545 -20.064964
v 12.698322 5.043287 -20.064964
v 13.165826 5.225283 -20.064964
v 12.231867 5.225282 -20.064964
v 13.237852 5.353474 -20.416471
v 12.693111 5.309102 -20.434500
v 12.245253 5.231459 -20.434364
v 13.151040 5.218379 -20.434643
v 12.160503 5.356334 -20.414040
v 12.698811 5.507339 -20.072746
v 13.230238 5.381059 -20.069317
v 12.287649 1.865497 -20.433750
v 12.291043 5.043287 -20.064964
v 12.457675 5.287342 -20.029072
v 12.441754 5.476216 -20.074530
v 12.439366 5.450864 -20.047924
v 12.280590 4.887900 -20.437943
v 12.291043 1.862545 -20.064964
v 12.457600 5.287035 -20.064964
v 12.442591 5.449893 -20.416327
v 13.095027 4.881413 -20.437998
v 13.106649 1.862545 -20.064964
v 12.948445 5.451819 -20.046513
v 12.945644 5.481051 -20.082321
v 12.937883 5.288424 -20.029112
v 12.969507 5.450818 -20.411894
v 13.102680 1.865040 -20.432585
v 13.106649 5.043287 -20.064964
v 12.939373 5.287036 -20.064964
v 11.864741 5.209476 -20.091986
v 13.503024 5.212357 -20.054039
v 12.058172 5.136456 -20.434683
v 12.698322 5.177008 -20.064964
v 13.508121 5.209718 -20.407890
v 11.874623 5.198252 -20.056273
v 13.362691 5.139352 -20.064964
v 12.035722 5.139352 -20.064964
v 13.514663 5.224789 -20.083042
v 12.690392 5.014366 -20.437593
v 11.881928 5.198849 -20.411842
v 13.332293 5.131493 -20.434801
v 12.035100 5.139690 -20.029093
v 13.364919 5.138649 -20.029093
v 12.374322 5.165161 -20.064964
v 13.023011 5.165162 -20.064964
v 11.883763 1.862545 -20.220356
v 13.514977 1.862545 -20.220356
v 11.705034 1.865037 -20.214317
v 11.713782 5.011505 -20.218081
v 13.691352 1.865165 -20.225006
v 13.676913 5.034726 -20.219158
v 13.240941 5.389463 -20.220955
v 12.129577 5.376571 -20.220036
v 12.698322 1.862545 -20.220356
v 12.698944 5.522038 -20.227350
v 12.291043 1.862545 -20.220356
v 12.447919 5.491299 -20.220453
v 12.968315 5.485468 -20.225161
v 13.106649 1.862545 -20.220356
v 13.535810 5.220901 -20.223610
v 11.860872 5.218990 -20.220518
vt 0.051511 0.787254
vt 0.017180 0.788504
vt 0.017659 0.781197
vt 0.051373 0.780349
vt 0.747769 0.013697
vt 0.747768 0.629933
vt 0.668862 0.629933
vt 0.668863 0.013697
vt 0.130646 0.817289
vt 0.051539 0.817359
vt 0.130620 0.787183
vt 0.367567 0.817081
vt 0.367542 0.786976
vt 0.402627 0.787614
vt 0.402196 0.815883
vt 0.052416 0.858656
vt 0.018132 0.858497
vt 0.017365 0.818293
vt 0.889580 0.653545
vt 0.905784 0.629933
vt 0.984893 0.629933
vt 0.955389 0.648544
vt 0.368557 0.780349
vt 0.402088 0.780494
vt 0.763903 0.653545
vt 0.826674 0.655840
vt 0.826674 0.681747
vt 0.780037 0.677156
vt 0.288662 0.817150
vt 0.209756 0.817220
vt 0.209729 0.787114
vt 0.288636 0.787045
vt 0.905783 0.013697
vt 0.826674 0.629933
vt 0.826674 0.013697
vt 0.698302 0.648544
vt 0.736303 0.665192
vt 0.984892 0.013697
vt 0.873375 0.677157
vt 0.917248 0.665192
vt 0.210157 0.858331
vt 0.131451 0.858408
vt 0.368200 0.858056
vt 0.289356 0.858497
vt 0.402181 0.857778
vt 0.115159 0.001736
vt 0.116620 0.586135
vt 0.037917 0.616569
vt 0.036084 0.001806
vt 0.759114 0.781891
vt 0.759609 0.788838
vt 0.717866 0.789109
vt 0.717499 0.782160
vt 0.441044 0.006136
vt 0.435784 0.602617
vt 0.400747 0.602056
vt 0.400049 0.006136
vt 0.348413 0.615023
vt 0.352030 0.001736
vt 0.386009 0.002103
vt 0.382012 0.611079
vt 0.459876 0.601893
vt 0.468707 0.006470
vt 0.479076 0.006788
vt 0.470272 0.600780
vt 0.584510 0.012304
vt 0.586904 0.612820
vt 0.561805 0.611190
vt 0.555381 0.012527
vt 0.008018 0.615229
vt 0.001798 0.002041
vt 0.527572 0.007711
vt 0.527572 0.623500
vt 0.497171 0.615437
vt 0.494042 0.008032
vt 0.458101 0.801709
vt 0.949118 0.801709
vt 0.949170 0.810269
vt 0.458717 0.810273
vt 0.243125 0.696527
vt 0.194485 0.669057
vt 0.281309 0.653906
vt 0.297901 0.678358
vt 0.009429 0.717171
vt 0.625143 0.717171
vt 0.625070 0.750895
vt 0.014071 0.746038
vt 0.461307 0.825775
vt 0.955721 0.825775
vt 0.955199 0.834395
vt 0.461201 0.834395
vt 0.491409 0.781857
vt 0.491292 0.788807
vt 0.456550 0.788558
vt 0.456580 0.781604
vt 0.551363 0.610178
vt 0.544951 0.012710
vt 0.194997 0.611935
vt 0.105691 0.651418
vt 0.070584 0.634541
vt 0.530705 0.879852
vt 0.499482 0.892027
vt 0.470502 0.854548
vt 0.501157 0.861578
vt 0.291307 0.933031
vt 0.294123 0.970227
vt 0.237607 0.970853
vt 0.239923 0.934368
vt 0.578237 0.782217
vt 0.578242 0.789171
vt 0.532565 0.789008
vt 0.532897 0.782057
vt 0.351928 0.647687
vt 0.317507 0.635435
vt 0.609600 0.939501
vt 0.612879 0.907582
vt 0.659395 0.911741
vt 0.658659 0.944601
vt 0.708238 0.938811
vt 0.705917 0.906995
vt 0.750335 0.894432
vt 0.760272 0.920206
vt 0.140823 0.696815
vt 0.088745 0.677807
vt 0.672025 0.782358
vt 0.671706 0.789308
vt 0.624943 0.789256
vt 0.625099 0.782320
vt 0.036194 0.649988
vt 0.191973 0.932381
vt 0.188132 0.970954
vt 0.128890 0.968240
vt 0.127155 0.929393
vt 0.273147 0.001853
vt 0.274349 0.587362
vt 0.195339 0.554218
vt 0.193907 0.001744
vt 0.788455 0.877419
vt 0.815528 0.891918
vt 0.189569 0.897291
vt 0.190903 0.904235
vt 0.126030 0.901719
vt 0.124413 0.894249
vt 0.287899 0.897111
vt 0.286399 0.905838
vt 0.239724 0.905039
vt 0.238498 0.897626
vt 0.068578 0.900258
vt 0.069206 0.892775
vt 0.067267 0.925140
vt 0.064882 0.963287
vt 0.403390 0.893312
vt 0.404178 0.899728
vt 0.343229 0.901161
vt 0.342489 0.894267
vt 0.410336 0.925824
vt 0.410729 0.961994
vt 0.350782 0.968249
vt 0.346166 0.930151
vt 0.547746 0.918128
vt 0.568705 0.895962
vt 0.455083 0.920028
vt 0.456550 0.958958
vt 0.451455 0.886559
vt 0.452745 0.893781
vt 0.017423 0.919824
vt 0.015630 0.957448
vt 0.020313 0.894256
vt 0.021464 0.886559
vt 0.817384 0.858857
vt 0.846301 0.854548
vt 0.793997 0.781604
vt 0.793980 0.788558
vt 0.195462 0.703469
vt 0.623834 0.012352
vt 0.623834 0.611997
vn 0.0112 -0.9986 0.0510
vn 0.0000 0.0000 1.0000
vn 0.0000 -1.0000 0.0000
vn -0.0157 -0.9999 0.0021
vn 0.0109 -0.9999 -0.0106
vn -0.0153 -0.9984 0.0537
vn 0.0000 -0.9999 -0.0117
vn 0.0009 -0.9999 -0.0122
vn -0.0006 -0.9999 -0.0128
vn 0.0157 -0.9999 0.0009
vn -0.0128 -0.9999 -0.0090
vn 0.0004 -0.9999 -0.0126
vn 0.0016 -0.7036 -0.7105
vn 0.0024 0.0034 -1.0000
vn 0.0667 0.0661 -0.9956
vn 0.0294 -0.7025 -0.7110
vn -0.3353 -0.6362 0.6948
vn -0.2771 -0.5564 0.7833
vn -0.2048 -0.6027 0.7712
vn -0.2376 -0.6767 0.6968
vn -0.7106 -0.7035 -0.0091
vn -0.9495 0.3132 -0.0156
vn -0.7382 0.2558 -0.6242
vn -0.6099 -0.5475 -0.5729
vn -0.0849 0.0540 -0.9949
vn -0.0407 -0.7042 -0.7089
vn -0.9416 0.3064 0.1393
vn -0.7174 -0.6925 0.0758
vn -0.5687 -0.5368 0.6232
vn -0.6782 0.2217 0.7006
vn 0.7140 -0.6999 -0.0213
vn 0.9434 0.3310 -0.0219
vn 0.9315 0.3203 0.1722
vn 0.7161 -0.6933 0.0808
vn 0.7143 0.2652 -0.6476
vn 0.5920 -0.5508 -0.5883
vn 0.5189 -0.5941 0.6146
vn 0.4047 -0.1865 0.8952
vn 0.2841 -0.8942 0.3458
vn 0.6761 -0.3716 0.6362
vn -0.1611 0.6784 -0.7168
vn 0.0021 0.0726 -0.9973
vn -0.0269 0.0680 -0.9973
vn -0.2924 0.6505 -0.7009
vn -0.4183 -0.1980 0.8864
vn -0.5545 -0.5709 0.6055
vn 0.5615 -0.5402 0.6268
vn 0.6582 0.2262 0.7180
vn -0.6903 -0.3769 0.6176
vn -0.2784 -0.9053 0.3208
vn 0.3373 -0.6350 0.6949
vn 0.2718 -0.5529 0.7877
vn -0.0001 0.0070 -1.0000
vn 0.0260 0.0666 -0.9974
vn 0.0462 0.0683 -0.9966
vn -0.4497 0.4921 0.7454
vn 0.2333 0.9709 -0.0538
vn 0.1631 0.6880 -0.7071
vn -0.0001 0.7092 -0.7049
vn 0.0018 0.9984 -0.0564
vn 0.1314 -0.7105 0.6913
vn 0.1114 -0.6286 0.7696
vn 0.2043 -0.5996 0.7737
vn 0.2384 -0.6786 0.6947
vn -0.4966 0.5589 -0.6641
vn -0.0495 0.0699 -0.9963
vn -0.1209 0.4702 0.8742
vn 0.0005 -0.6372 0.7707
vn -0.0052 0.4608 0.8875
vn 0.1067 0.4650 0.8788
vn -0.1129 -0.6273 0.7705
vn 0.1980 0.4485 0.8715
vn 0.2924 0.6409 -0.7097
vn -0.1316 -0.7064 0.6954
vn -0.0001 -0.7228 0.6910
vn 0.4788 0.5834 -0.6560
vn -0.2264 0.9730 -0.0457
vn -0.4204 0.9063 -0.0428
vn -0.0020 -0.7020 -0.7121
vn -0.0032 0.0037 -1.0000
vn 0.0004 -0.0001 -1.0000
vn 0.0003 -0.7039 -0.7103
vn 0.3918 0.4574 0.7983
vn -0.2113 0.8957 0.3913
vn -0.4028 0.8545 0.3277
vn -0.2515 0.4950 0.8317
vn 0.1973 0.9048 0.3772
vn 0.0066 0.9148 0.4038
vn -0.6614 0.7143 0.2287
vn -0.6682 0.7432 -0.0326
vn 0.6210 0.7270 0.2930
vn 0.3793 0.8465 0.3734
vn 0.6602 0.7504 -0.0303
vn 0.4112 0.9105 -0.0432
usemtl None
s off
f 5/1/1 15/2/1 24/3/1 22/4/1
f 53/5/2 48/6/2 2/7/2 1/8/2
f 94/9/3 82/10/3 5/1/3 57/11/3
f 81/12/4 1/13/4 10/14/4 83/15/4
f 82/10/5 7/16/5 14/17/5 85/18/5
f 80/19/2 63/20/2 6/21/2 71/22/2
f 10/14/6 1/13/6 17/23/6 19/24/6
f 79/25/2 68/26/2 33/27/2 54/28/2
f 91/29/3 89/30/3 36/31/3 53/32/3
f 57/33/2 63/20/2 37/34/2 36/35/2
f 81/12/3 91/29/3 53/32/3 1/13/3
f 72/36/2 79/25/2 54/28/2 39/37/2
f 36/35/2 37/34/2 48/6/2 53/5/2
f 5/38/2 6/21/2 63/20/2 57/33/2
f 68/26/2 37/34/2 63/20/2 80/19/2
f 89/30/3 94/9/3 57/11/3 36/31/3
f 33/27/2 68/26/2 80/19/2 64/39/2
f 2/7/2 48/6/2 79/25/2 72/36/2
f 48/6/2 37/34/2 68/26/2 79/25/2
f 64/39/2 80/19/2 71/22/2 38/40/2
f 34/41/7 62/42/7 94/9/7 89/30/7
f 3/43/8 47/44/8 91/29/8 81/12/8
f 47/44/9 34/41/9 89/30/9 91/29/9
f 5/1/10 82/10/10 85/18/10 15/2/10
f 3/43/11 81/12/11 83/15/11 9/45/11
f 62/42/12 7/16/12 82/10/12 94/9/12
s 1
f 62/46/13 56/47/14 8/48/15 7/49/16
f 71/50/17 78/51/18 28/52/19 38/53/20
f 83/54/21 84/55/22 12/56/23 9/57/24
f 4/58/25 3/59/26 9/60/24 12/61/23
f 11/62/27 10/63/28 19/64/29 20/65/30
f 85/66/31 86/67/32 16/68/33 15/69/34
f 7/49/16 8/48/15 13/70/35 14/71/36
f 17/72/37 18/73/38 20/74/30 19/75/29
f 1/76/39 2/77/40 18/78/38 17/79/37
f 55/80/41 41/81/42 42/82/43 44/83/44
f 21/84/45 22/85/46 24/86/47 23/87/48
f 6/88/49 5/89/50 22/90/46 21/91/45
f 72/92/51 77/93/52 18/94/38 2/95/40
f 15/69/34 16/68/33 23/96/48 24/97/47
f 74/98/53 41/81/42 43/99/54 76/100/55
f 77/101/52 70/102/56 20/103/30 18/104/38
f 93/105/57 61/106/58 31/107/59 90/108/60
f 54/109/61 49/110/62 25/111/63 39/112/64
f 75/113/65 44/83/44 42/82/43 67/114/66
f 51/115/67 49/116/62 30/117/68 32/118/69
f 58/119/70 60/120/71 28/121/19 27/122/72
f 61/123/58 40/124/73 43/99/54 41/81/42
f 64/125/74 60/126/71 30/127/68 33/128/75
f 76/100/55 43/99/54 40/124/73 69/129/76
f 92/130/77 55/131/41 44/132/44 88/133/78
f 47/134/79 52/135/80 35/136/81 34/137/82
f 78/138/18 66/139/83 27/122/72 28/121/19
f 51/140/67 50/141/84 29/142/85 26/143/86
f 58/144/70 59/145/87 45/146/88 32/147/69
f 65/148/89 70/149/56 26/143/86 29/142/85
f 96/150/90 88/133/78 44/132/44 75/151/65
f 66/152/83 73/153/91 46/154/92 27/155/72
f 95/156/93 69/157/76 40/158/73 87/159/94
f 32/147/69 45/146/88 50/141/84 51/140/67
f 67/114/66 74/98/53 52/135/80 4/58/25
f 3/59/26 4/58/25 52/135/80 47/134/79
f 90/108/60 31/107/59 55/131/41 92/130/77
f 26/160/86 25/161/63 49/116/62 51/115/67
f 33/128/75 30/127/68 49/110/62 54/109/61
f 74/98/53 56/47/14 35/136/81 52/135/80
f 27/155/72 46/154/92 59/145/87 58/144/70
f 38/53/20 28/52/19 60/126/71 64/125/74
f 32/118/69 30/117/68 60/120/71 58/119/70
f 87/159/94 40/158/73 61/106/58 93/105/57
f 34/137/82 35/136/81 56/47/14 62/46/13
f 42/82/43 41/81/42 74/98/53 67/114/66
f 86/162/32 13/163/35 69/157/76 95/156/93
f 23/164/48 16/165/33 73/153/91 66/152/83
f 84/166/22 96/150/90 75/151/65 12/167/23
f 11/168/27 20/169/30 70/149/56 65/148/89
f 21/170/45 23/171/48 66/139/83 78/138/18
f 8/48/15 76/100/55 69/129/76 13/70/35
f 12/61/23 75/113/65 67/114/66 4/58/25
f 25/161/63 26/160/86 70/102/56 77/101/52
f 56/47/14 74/98/53 76/100/55 8/48/15
f 39/112/64 25/111/63 77/93/52 72/92/51
f 6/172/49 21/173/45 78/51/18 71/50/17
f 31/174/59 61/123/58 41/81/42 55/80/41
f 11/168/27 65/148/89 96/150/90 84/166/22
f 16/165/33 86/162/32 95/156/93 73/153/91
f 46/154/92 87/159/94 93/105/57 59/145/87
f 45/146/88 90/108/60 92/130/77 50/141/84
f 73/153/91 95/156/93 87/159/94 46/154/92
f 65/148/89 29/142/85 88/133/78 96/150/90
f 50/141/84 92/130/77 88/133/78 29/142/85
f 59/145/87 93/105/57 90/108/60 45/146/88
f 14/175/36 13/176/35 86/67/32 85/66/31
f 10/63/28 11/62/27 84/55/22 83/54/21
