# Blender v2.93.9 OBJ File: 'СтеныСКлетками.blend'
# www.blender.org
mtllib Wall_path_Raw.mtl
o Wall_path_Куб.002
v 26.213943 7.500000 -21.270029
v 26.213943 7.500000 -21.565069
v 30.835953 7.500000 -21.270029
v 30.835953 7.500000 -21.565069
v 30.561977 8.461124 -21.565069
v 30.561977 8.461124 -21.270029
v 26.534697 8.461124 -21.270029
v 26.534697 8.461124 -21.565069
v 26.534697 15.465294 -21.270029
v 26.213943 15.465294 -21.565069
v 30.561977 15.465294 -21.565069
v 30.561977 15.465294 -21.270029
v 26.534697 15.465294 -21.565069
v 30.835953 15.465294 -21.565069
v 24.213943 7.500000 -20.070028
v 23.613943 15.465294 -22.365068
v 24.213943 0.000000 -20.070028
v 32.835953 7.500000 -20.070028
v 32.835953 0.000000 -20.070028
v 33.435955 0.000000 -20.070028
v 26.213943 7.500000 -20.470030
v 26.534697 15.465294 -20.470030
v 24.213943 15.465294 -20.470030
v 24.213943 7.500000 -20.470030
v 26.213943 7.500000 -22.365068
v 26.213943 15.465294 -22.365068
v 23.613943 7.500000 -22.365068
v 30.835953 7.500000 -20.470030
v 30.561977 15.465294 -20.470030
v 32.835953 7.500000 -20.470030
v 32.835953 15.465294 -20.470030
v 30.835953 7.500000 -22.365068
v 33.435955 7.500000 -22.365068
v 30.835953 15.465294 -22.365068
v 33.435955 15.465294 -22.365068
v 26.213943 17.465294 -22.365068
v 23.613943 17.465294 -22.365068
v 30.835953 17.465294 -22.365068
v 24.813942 17.465294 -19.870029
v 33.435955 17.465294 -22.365068
v 26.213943 17.465294 -19.870029
v 30.835953 17.465294 -19.870029
v 33.435955 0.000000 -22.365068
v 23.613943 0.000000 -22.365068
v 24.213943 0.000000 -20.470030
v 26.534697 0.000000 -20.470030
v 26.534697 0.000000 -22.365068
v 30.561977 0.000000 -20.470030
v 32.835953 0.000000 -20.470030
v 30.561977 0.000000 -22.365068
v 23.613943 15.465294 -18.870029
v 23.613943 0.000000 -20.070028
v 23.613943 7.500000 -18.870029
v 33.435955 7.500000 -18.870029
v 33.435955 15.465294 -18.870029
v 33.435955 17.465294 -18.270029
v 26.534697 15.465294 -20.196030
v 32.235954 17.465294 -18.270029
v 24.213943 7.500000 -18.870029
v 23.613943 0.000000 -18.870029
v 24.813942 17.465294 -18.270029
v 24.213943 15.465294 -18.870029
v 32.435955 0.000000 -18.470030
v 32.835953 7.500000 -18.870029
v 33.435955 0.000000 -18.870029
v 32.835953 15.465294 -18.870029
v 24.213943 0.700000 -20.070028
v 32.835953 0.700000 -20.070028
v 24.213943 0.700000 -18.870029
v 23.613943 0.700000 -18.870029
v 32.835953 0.700000 -18.870029
v 33.435955 0.700000 -18.870029
v 32.435955 0.000000 -20.070028
v 32.476414 0.643660 -20.070028
v 32.476414 0.643660 -18.510490
v 33.435955 0.000000 -18.470030
v 33.435955 0.643660 -18.510490
v 24.613943 0.000000 -18.470030
v 24.613943 0.000000 -20.070028
v 24.573330 0.643660 -20.070028
v 24.573330 0.643660 -18.510641
v 24.213943 16.659838 -20.470030
v 23.613943 0.000000 -18.470030
v 23.613943 0.643660 -18.510641
v 26.213943 16.659838 -20.470030
v 24.213943 0.500000 -20.070028
v 32.835953 0.500000 -20.070028
v 23.613943 0.500000 -18.870029
v 33.435955 0.500000 -18.870029
v 32.435955 0.500000 -20.070028
v 32.435955 0.500000 -18.470030
v 30.835953 16.659838 -20.470030
v 33.435955 0.500000 -18.470030
v 24.613943 0.500000 -20.070028
v 24.613943 0.500000 -18.470030
v 32.835953 16.659838 -20.470030
v 23.613943 0.500000 -18.470030
v 33.435955 16.659838 -18.870029
v 23.613943 16.659838 -18.870029
v 24.213943 16.659838 -18.870029
v 32.835953 16.659838 -18.870029
v 23.613943 16.659838 -18.470030
v 23.613943 17.465294 -18.270029
v 24.613943 16.659838 -18.470030
v 32.435955 16.659838 -20.070028
v 24.613943 16.659838 -20.070028
v 33.435955 16.659838 -18.470030
v 32.435955 16.659838 -18.470030
v 32.235954 17.465294 -19.870029
v 32.835953 6.799930 -20.470030
v 26.213943 16.659838 -20.070028
v 30.835953 16.659838 -20.070028
v 33.435955 17.194494 -18.470030
v 23.613943 17.194494 -18.470030
v 24.613943 17.194494 -18.470030
v 32.435955 17.194494 -20.070028
v 24.613943 17.194494 -20.070028
v 32.435955 17.194494 -18.470030
v 26.213943 17.194494 -20.070028
v 30.835953 17.194494 -20.070028
v 24.213943 6.999930 -20.070028
v 32.835953 6.999930 -20.070028
v 24.213943 6.799930 -20.470030
v 26.534697 6.799930 -20.470030
v 30.561977 6.799930 -20.470030
v 30.835953 7.500000 -20.070028
v 26.213943 7.500000 -20.070028
v 30.835953 6.999930 -20.070028
v 26.213943 6.999930 -20.070028
v 26.213943 15.064956 -21.270029
v 26.213943 15.064956 -20.470030
v 24.213943 15.064956 -20.470030
v 23.613943 15.064956 -18.870029
v 24.213943 15.064956 -18.870029
v 24.487942 15.465294 -20.196030
v 23.613943 15.465294 -18.596029
v 24.487942 15.465294 -18.596029
v 32.561954 15.465294 -18.596029
v 33.435955 15.465294 -18.596029
v 32.561954 15.465294 -20.196030
v 30.835953 15.064955 -21.270029
v 30.835953 15.064955 -20.470030
v 32.835953 15.064955 -20.470030
v 33.435955 15.064955 -18.870029
v 32.835953 15.064955 -18.870029
v 30.561977 15.465294 -20.196030
v 33.435955 6.799930 -18.870029
v 33.435955 6.799930 -22.365068
v 23.613943 6.799930 -18.870029
v 23.613943 6.799930 -22.365068
v 26.534697 6.799930 -22.365068
v 30.561977 6.799930 -22.365068
v 24.213943 6.799930 -18.870029
v 32.835953 6.799930 -18.870029
v 32.835953 6.799930 -20.070028
v 24.213943 6.799930 -20.070028
vt 0.174801 0.830019
vt 0.368764 0.834733
vt 0.368581 0.842257
vt 0.174618 0.837544
vt 0.931477 0.248064
vt 0.952641 0.248064
vt 0.952641 0.375066
vt 0.931477 0.375066
vt 0.957713 0.248064
vt 0.957713 0.375066
vt 0.979406 0.375066
vt 0.979406 0.248064
vt 0.383534 0.863036
vt 0.337458 0.518385
vt 0.337458 0.266288
vt 0.419747 0.266288
vt 0.419747 0.518385
vt 0.931477 0.028701
vt 0.917723 0.248064
vt 0.917723 0.028701
vt 0.690675 0.052238
vt 0.696922 0.302307
vt 0.634363 0.304614
vt 0.625638 0.067986
vt 0.704584 0.055384
vt 0.709137 0.302035
vt 0.550554 0.380072
vt 0.560990 0.379838
vt 0.561486 0.401943
vt 0.333347 0.604300
vt 0.414601 0.604300
vt 0.377099 0.645590
vt 0.333347 0.645590
vt 0.108582 0.708143
vt 0.103506 0.721141
vt 0.069847 0.701562
vt 0.076226 0.685898
vt 0.442413 0.709654
vt 0.477647 0.685898
vt 0.484278 0.702972
vt 0.447902 0.723321
vt 0.175296 0.809616
vt 0.369260 0.814330
vt 0.160927 0.857626
vt 0.161423 0.837223
vt 0.384030 0.842633
vt 0.917723 0.375066
vt 0.188903 0.645590
vt 0.188903 0.604300
vt 0.630260 0.342566
vt 0.656448 0.342566
vt 0.656448 0.417568
vt 0.630260 0.401910
vt 0.550430 0.374545
vt 0.534189 0.348714
vt 0.610393 0.347007
vt 0.610980 0.373188
vt 0.870321 0.361066
vt 0.892421 0.361009
vt 0.892941 0.584003
vt 0.871007 0.584054
vt 0.840104 0.609707
vt 0.847801 0.591414
vt 0.847846 0.609688
vt 0.803534 0.043583
vt 0.788617 0.341890
vt 0.765455 0.341515
vt 0.769801 0.036523
vt 0.093568 0.516222
vt 0.034993 0.516222
vt 0.034993 0.503551
vt 0.028289 0.570950
vt 0.093568 0.579521
vt 0.024937 0.579521
vt 0.534900 0.380422
vt 0.080098 0.852196
vt 0.080098 0.839148
vt 0.090537 0.839148
vt 0.090537 0.852196
vt 0.796976 0.342074
vt 0.795808 0.621789
vt 0.787897 0.621769
vt 0.787943 0.603094
vt 0.435192 0.517059
vt 0.493767 0.504388
vt 0.493767 0.517059
vt 0.034993 0.554029
vt 0.499404 0.742535
vt 0.528361 0.748532
vt 0.528523 0.804112
vt 0.493962 0.815489
vt 0.865555 0.037032
vt 0.889343 0.041258
vt 0.892441 0.335099
vt 0.869817 0.335452
vt 0.055327 0.737665
vt 0.058133 0.806101
vt 0.026307 0.794258
vt 0.028364 0.742614
vt 0.742333 0.341157
vt 0.745488 0.040843
vt 0.051712 0.890660
vt 0.051712 0.916495
vt 0.043849 0.916495
vt 0.043849 0.890660
vt 0.832549 0.043940
vt 0.847154 0.335818
vt 0.535271 0.397001
vt 0.088973 0.755907
vt 0.087322 0.784777
vt 0.051250 0.830689
vt 0.051250 0.853552
vt 0.043389 0.853552
vt 0.043389 0.830689
vt 0.462776 0.761441
vt 0.463633 0.791634
vt 0.624732 0.401910
vt 0.624732 0.417568
vt 0.602621 0.391471
vt 0.847205 0.353886
vt 0.847222 0.361162
vt 0.473656 0.027591
vt 0.493767 0.043416
vt 0.493767 0.049746
vt 0.764943 0.367689
vt 0.742359 0.367639
vt 0.796441 0.367812
vt 0.788546 0.367792
vt 0.788564 0.360356
vt 0.093568 0.241968
vt 0.034993 0.241968
vt 0.055104 0.026754
vt 0.093568 0.026754
vt 0.034993 0.048909
vt 0.034993 0.042579
vt 0.839496 0.361181
vt 0.108885 0.244131
vt 0.108885 0.028917
vt 0.199845 0.028917
vt 0.199845 0.244131
vt 0.650577 0.915880
vt 0.650577 0.689858
vt 0.727716 0.689858
vt 0.727716 0.915880
vt 0.786145 0.925282
vt 0.786145 0.699260
vt 0.819500 0.699260
vt 0.819500 0.925282
vt 0.895084 0.925282
vt 0.895084 0.699260
vt 0.419747 0.244131
vt 0.327306 0.244131
vt 0.327306 0.028917
vt 0.419747 0.028917
vt 0.145151 0.645590
vt 0.107649 0.604300
vt 0.039614 0.938118
vt 0.027087 0.938118
vt 0.027087 0.916495
vt 0.039614 0.916495
vt 0.051712 0.938118
vt 0.043849 0.938118
vt 0.624732 0.391471
vt 0.027087 0.890660
vt 0.039614 0.890660
vt 0.493767 0.554866
vt 0.500470 0.554866
vt 0.500470 0.571787
vt 0.608149 0.417568
vt 0.602621 0.417568
vt 0.028967 0.047125
vt 0.028289 0.042579
vt 0.039152 0.830689
vt 0.039152 0.853552
vt 0.026625 0.853552
vt 0.026625 0.830689
vt 0.080098 0.862635
vt 0.080098 0.857415
vt 0.089477 0.858886
vt 0.090537 0.862635
vt 0.535395 0.402528
vt 0.039152 0.880870
vt 0.026625 0.880870
vt 0.168578 0.702358
vt 0.169062 0.715112
vt 0.051250 0.880870
vt 0.043389 0.880870
vt 0.493767 0.027591
vt 0.500471 0.027591
vt 0.500471 0.043416
vt 0.499790 0.047963
vt 0.080098 0.875683
vt 0.090537 0.875683
vt 0.034993 0.026754
vt 0.028289 0.026754
vt 0.787962 0.595623
vt 0.080098 0.857415
vt 0.089481 0.855945
vt 0.847783 0.584104
vt 0.169731 0.748056
vt 0.377613 0.749830
vt 0.337458 0.581684
vt 0.191174 0.581684
vt 0.191174 0.518385
vt 0.419747 0.581684
vt 0.108885 0.518385
vt 0.108885 0.581684
vt 0.536811 0.710295
vt 0.530555 0.740639
vt 0.489079 0.726956
vt 0.435192 0.580358
vt 0.378755 0.718543
vt 0.379301 0.705418
vt 0.453375 0.749739
vt 0.021388 0.707281
vt 0.019657 0.695028
vt 0.377099 0.672068
vt 0.414601 0.672068
vt 0.065134 0.723452
vt 0.026520 0.735301
vt 0.098248 0.745118
vt 0.169530 0.739627
vt 0.028289 0.554029
vt 0.773147 0.016219
vt 0.741811 0.026385
vt 0.378062 0.741079
vt 0.503822 0.580358
vt 0.538959 0.696993
vt 0.107649 0.672068
vt 0.145151 0.672068
vt 0.173928 0.927248
vt 0.387158 0.927248
vt 0.372360 0.940688
vt 0.186567 0.940688
vt 0.493767 0.242805
vt 0.435192 0.242805
vt 0.493767 0.264962
vt 0.435192 0.264962
vt 0.479425 0.927249
vt 0.479425 0.940688
vt 0.479425 0.904179
vt 0.387158 0.904178
vt 0.081661 0.894407
vt 0.173928 0.894407
vt 0.173928 0.904179
vt 0.081661 0.904179
vt 0.081661 0.940688
vt 0.081661 0.927248
vt 0.387158 0.894407
vt 0.479425 0.894407
vt 0.838977 0.335998
vt 0.590564 0.029890
vt 0.585766 0.282718
vt 0.518786 0.264955
vt 0.533903 0.027494
vt 0.604551 0.030151
vt 0.599896 0.279922
vt 0.957713 0.028701
vt 0.979406 0.028701
vt 0.952641 0.028701
vt 0.484462 0.829000
vt 0.457680 0.799550
vt 0.530737 0.810286
vt 0.498359 0.517059
vt 0.370745 0.820493
vt 0.066526 0.819075
vt 0.024020 0.799933
vt 0.892941 0.027112
vt 0.862280 0.017165
vt 0.092693 0.792548
vt 0.030401 0.516222
vt 0.093568 0.264125
vt 0.034993 0.264125
vt 0.173632 0.815488
vt 0.191174 0.266288
vt 0.108885 0.266288
vt 0.709137 0.041283
vt 0.696822 0.037307
vt 0.589842 0.300176
vt 0.523320 0.279367
vt 0.931477 0.594430
vt 0.917723 0.594430
vt 0.952641 0.594430
vt 0.957713 0.594430
vt 0.979406 0.594430
vt 0.833270 0.026831
vt 0.802796 0.026097
vt 0.630256 0.054188
vt 0.693094 0.035671
vt 0.593499 0.298208
vt 0.604551 0.293859
vt 0.173928 0.874863
vt 0.387158 0.874863
vt 0.435192 0.027591
vt 0.764227 0.595568
vt 0.741811 0.595517
vt 0.761071 0.689858
vt 0.761071 0.915880
vt 0.186567 0.986982
vt 0.372360 0.986982
vn 0.0000 -1.0000 0.0000
vn 0.0000 0.0000 -1.0000
vn 0.0000 1.0000 0.0000
vn 0.0000 0.0000 1.0000
vn 1.0000 0.0000 0.0000
vn -1.0000 0.0000 0.0000
vn -0.8044 -0.5941 0.0000
vn 0.8044 -0.5941 0.0000
vn 0.0000 0.9879 0.1548
vn 0.1549 0.9879 0.0000
vn -0.1548 0.9879 0.0000
vn 0.0000 -0.5941 0.8044
vn 0.0000 0.9879 0.1549
vn 0.0000 0.2720 0.9623
vn 0.9623 0.2720 0.0000
vn 0.0000 0.2711 0.9626
vn -0.9626 0.2711 0.0000
vn 0.0000 -0.5648 0.8252
vn 0.0000 -0.8944 0.4472
vn -0.8252 -0.5648 0.0000
vn 0.8252 -0.5648 0.0000
vn 0.7804 -0.6253 0.0000
usemtl None
s off
f 12/1/1 9/2/1 13/3/1 11/4/1
f 2/5/2 8/6/2 5/7/2 4/8/2
f 5/7/3 8/6/3 7/9/3 6/10/3
f 3/11/4 6/10/4 7/9/4 1/12/4
f 26/13/1 11/4/1 13/3/1
f 26/14/2 25/15/2 27/16/2 16/17/2
f 10/18/5 2/5/5 25/19/5 26/20/5
f 142/21/4 28/22/4 30/23/4 143/24/4
f 141/25/6 3/26/6 28/22/6 142/21/6
f 17/27/1 79/28/1 78/29/1
f 36/30/3 37/31/3 39/32/3 41/33/3
f 109/34/7 116/35/7 118/36/7 58/37/7
f 39/38/8 61/39/8 115/40/8 117/41/8
f 29/42/1 9/2/1 12/1/1
f 29/42/1 22/43/1 9/2/1
f 11/4/1 34/44/1 14/45/1
f 26/13/1 13/3/1 10/46/1
f 32/47/3 25/19/3 2/5/3 4/8/3
f 42/48/3 38/49/3 36/30/3 41/33/3
f 48/50/1 50/51/1 43/52/1 49/53/1
f 45/54/1 44/55/1 47/56/1 46/57/1
f 153/58/4 149/59/4 70/60/4 69/61/4
f 45/62/5 86/63/5 17/64/5
f 11/4/1 26/13/1 34/44/1
f 143/65/6 18/66/6 64/67/6 145/68/6
f 35/69/5 55/70/5 144/71/5
f 113/72/5 40/73/5 56/74/5
f 17/27/1 52/75/1 44/55/1 45/54/1
f 87/76/2 19/77/2 73/78/2 90/79/2
f 143/65/6 30/80/6 18/66/6
f 49/81/6 19/82/6 87/83/6
f 16/84/6 133/85/6 51/86/6
f 55/70/5 35/69/5 40/73/5 98/87/5
f 100/88/4 99/89/4 51/90/4 62/91/4
f 134/92/4 133/93/4 53/94/4 59/95/4
f 101/96/4 66/97/4 55/98/4 98/99/4
f 145/68/4 64/67/4 54/100/4 144/101/4
f 72/102/9 71/103/9 75/104/9 77/105/9
f 132/106/5 134/92/5 59/95/5 15/107/5
f 78/29/1 60/108/1 52/75/1
f 96/109/6 31/110/6 66/97/6 101/96/6
f 67/111/10 69/112/10 81/113/10 80/114/10
f 82/115/5 100/88/5 62/91/5 23/116/5
f 19/117/1 20/118/1 63/119/1
f 121/120/5 59/95/5 153/58/5 156/121/5
f 52/122/6 88/123/6 70/124/6
f 64/67/4 154/125/4 147/126/4 54/100/4
f 59/95/4 53/94/4 149/59/4 153/58/4
f 110/127/6 155/128/6 122/129/6
f 122/129/6 155/128/6 154/125/6 64/67/6
f 148/130/5 147/131/5 20/132/5 43/133/5
f 20/132/5 72/134/5 89/135/5
f 123/136/5 121/120/5 156/121/5
f 148/137/2 43/138/2 50/139/2 152/140/2
f 123/141/4 45/142/4 46/143/4 124/144/4
f 152/145/6 50/146/6 48/147/6 125/148/6
f 110/149/4 125/148/4 48/147/4 49/150/4
f 150/151/2 151/152/2 47/153/2 44/154/2
f 42/48/3 109/155/3 40/156/3 38/49/3
f 90/157/6 73/158/6 63/159/6 91/160/6
f 71/103/11 68/161/11 74/162/11 75/104/11
f 19/117/1 63/119/1 73/163/1
f 91/160/4 63/159/4 76/164/4 93/165/4
f 99/166/6 102/167/6 114/168/6
f 63/119/1 65/169/1 76/170/1
f 89/135/5 72/134/5 77/171/5 93/172/5
f 94/173/5 95/174/5 78/175/5 79/176/5
f 86/177/2 67/178/2 80/179/2 94/180/2
f 78/29/1 83/181/1 60/108/1
f 95/174/4 97/182/4 83/183/4 78/175/4
f 42/184/12 120/185/12 116/35/12 109/34/12
f 69/112/13 70/186/13 84/187/13 81/113/13
f 88/123/6 60/188/6 83/189/6 97/190/6
f 17/27/1 78/29/1 52/75/1
f 70/124/6 88/123/6 97/190/6 84/191/6
f 81/113/14 84/187/14 97/182/14 95/174/14
f 17/192/2 86/177/2 94/180/2 79/193/2
f 80/114/15 81/113/15 95/174/15 94/173/15
f 65/194/5 89/135/5 93/172/5 76/195/5
f 75/104/16 91/160/16 93/165/16 77/105/16
f 74/162/17 90/157/17 91/160/17 75/104/17
f 20/132/5 89/135/5 65/194/5
f 52/122/6 60/188/6 88/123/6
f 49/81/6 87/83/6 68/196/6
f 68/197/2 87/76/2 90/79/2 74/198/2
f 45/62/5 67/199/5 86/63/5
f 22/43/4 29/42/4 92/200/4 85/201/4
f 26/14/2 36/202/2 38/203/2 34/204/2
f 26/14/2 16/17/2 37/205/2 36/202/2
f 23/116/4 22/43/4 85/201/4 82/115/4
f 29/42/4 31/110/4 96/109/4 92/200/4
f 35/206/2 34/204/2 38/203/2 40/207/2
f 115/40/4 114/208/4 102/209/4 104/210/4
f 99/166/6 114/168/6 37/211/6
f 99/89/1 100/88/1 104/210/1 102/209/1
f 39/38/12 117/41/12 119/212/12 41/213/12
f 117/41/5 115/40/5 104/210/5 106/214/5
f 58/37/12 118/36/12 113/215/12 56/216/12
f 100/88/1 82/115/1 106/214/1 104/210/1
f 61/217/3 39/32/3 37/31/3 103/218/3
f 118/36/4 108/219/4 107/220/4 113/215/4
f 101/96/1 98/99/1 107/220/1 108/219/1
f 116/35/6 105/221/6 108/219/6 118/36/6
f 112/222/1 92/200/1 96/109/1 105/221/1
f 96/109/1 101/96/1 108/219/1 105/221/1
f 98/87/5 113/72/5 107/223/5
f 138/224/18 145/68/18 144/101/18 139/225/18
f 41/213/12 119/212/12 120/185/12 42/184/12
f 120/185/4 112/222/4 105/221/4 116/35/4
f 117/41/4 106/214/4 111/226/4 119/212/4
f 106/214/1 82/115/1 85/201/1 111/226/1
f 119/212/4 111/226/4 112/222/4 120/185/4
f 111/226/1 85/201/1 92/200/1 112/222/1
f 37/211/6 114/168/6 103/227/6
f 61/39/12 103/228/12 114/208/12 115/40/12
f 16/84/6 51/86/6 99/166/6 37/211/6
f 98/87/5 40/73/5 113/72/5
f 56/229/3 40/156/3 109/155/3 58/230/3
f 128/231/19 129/232/19 124/233/19 125/234/19
f 52/122/6 70/124/6 149/235/6
f 150/236/6 149/235/6 53/237/6 27/238/6
f 20/132/5 147/131/5 72/134/5
f 124/233/19 129/232/19 121/239/19 123/240/19
f 15/241/4 121/239/4 129/232/4 127/242/4
f 18/66/6 122/129/6 64/67/6
f 30/243/3 28/244/3 126/245/3 18/246/3
f 128/231/19 125/234/19 110/247/19 122/248/19
f 28/244/3 21/249/3 127/242/3 126/245/3
f 21/249/3 24/250/3 15/241/3 127/242/3
f 15/107/5 59/95/5 121/120/5
f 127/242/4 129/232/4 128/231/4 126/245/4
f 18/246/4 126/245/4 128/231/4 122/248/4
f 27/238/6 53/237/6 133/85/6 16/84/6
f 24/251/5 132/106/5 15/107/5
f 21/252/4 131/253/4 132/254/4 24/255/4
f 1/256/5 130/257/5 131/253/5 21/252/5
f 1/12/4 7/9/4 9/258/4 130/259/4
f 8/6/2 2/5/2 10/18/2 13/260/2
f 7/9/5 8/6/5 13/260/5 9/258/5
f 23/116/3 62/91/3 137/261/3 135/262/3
f 51/90/3 136/263/3 137/261/3 62/91/3
f 51/86/6 133/85/6 136/264/6
f 22/43/3 23/116/3 135/262/3 57/265/3
f 66/97/3 138/266/3 139/267/3 55/98/3
f 136/268/18 133/93/18 134/92/18 137/269/18
f 66/97/3 31/110/3 140/270/3 138/266/3
f 55/70/5 139/271/5 144/71/5
f 33/272/5 35/69/5 144/71/5 54/273/5
f 140/270/3 31/110/3 29/42/3 146/274/3
f 32/275/2 34/204/2 35/206/2 33/276/2
f 12/277/20 141/25/20 142/21/20 29/278/20
f 131/253/18 57/279/18 135/280/18 132/254/18
f 4/8/6 14/281/6 34/282/6 32/47/6
f 4/8/2 5/7/2 11/283/2 14/281/2
f 5/7/6 6/10/6 12/284/6 11/283/6
f 6/10/4 3/11/4 141/285/4 12/284/4
f 137/269/21 134/92/21 132/106/21 135/286/21
f 143/65/20 145/68/20 138/224/20 140/287/20
f 140/288/18 146/289/18 142/21/18 143/24/18
f 142/21/20 146/289/20 29/278/20
f 22/290/22 131/253/22 130/257/22 9/291/22
f 57/279/22 131/253/22 22/290/22
f 63/119/1 20/118/1 65/169/1
f 20/118/1 19/117/1 49/53/1 43/52/1
f 21/249/3 28/244/3 3/292/3 1/293/3
f 44/294/6 52/122/6 149/235/6 150/236/6
f 27/16/2 25/15/2 151/152/2 150/151/2
f 32/275/2 152/140/2 151/152/2 25/15/2
f 33/276/2 148/137/2 152/140/2 32/275/2
f 33/272/5 54/273/5 147/131/5 148/130/5
f 147/126/4 154/125/4 71/295/4 72/296/4
f 154/125/6 155/128/6 68/196/6 71/295/6
f 155/128/6 110/127/6 49/81/6 68/196/6
f 47/297/5 151/298/5 124/144/5 46/143/5
f 156/121/5 153/58/5 69/61/5 67/199/5
f 156/121/5 67/199/5 45/62/5 123/136/5
f 152/299/1 125/234/1 124/233/1 151/300/1
