<?xml version="1.0" standalone="no"?>
<!DOCTYPE svg PUBLIC "-//W3C//DTD SVG 20010904//EN"
 "http://www.w3.org/TR/2001/REC-SVG-20010904/DTD/svg10.dtd">
<svg version="1.0" xmlns="http://www.w3.org/2000/svg"
 width="260.000000pt" height="260.000000pt" viewBox="0 0 260.000000 260.000000"
 preserveAspectRatio="xMidYMid meet">
<metadata>
Created by potrace 1.14, written by Peter Selinger 2001-2017
</metadata>
<g transform="translate(0.000000,260.000000) scale(0.100000,-0.100000)"
fill="#000000" stroke="none">
<path d="M355 2481 c-91 -31 -168 -97 -216 -186 -39 -72 -40 -110 -37 -1030
l3 -890 27 -55 c29 -61 102 -150 123 -150 7 0 15 -4 17 -8 2 -4 26 -19 53 -32
l50 -25 915 0 c503 0 926 3 939 7 134 40 235 151 261 284 8 42 10 314 8 944
l-3 885 -23 49 c-31 66 -75 120 -131 159 -25 17 -48 32 -51 33 -3 0 -30 8 -60
17 -49 16 -134 17 -940 16 -805 -1 -890 -2 -935 -18z"/>
</g>
</svg>
