<svg width="40" height="40" viewBox="0 0 40 40" fill="none" xmlns="http://www.w3.org/2000/svg">
<circle cx="20" cy="20" r="19.5" fill="#13121A" stroke="#323350"/>
<path d="M14.2333 12.9431C13.1539 10.9284 10.3267 12.8752 11.2262 14.5542C13.1231 18.0949 15.5182 21.7627 16.0836 23.6207C14.1606 23.4236 13.6165 21.7444 11.7658 21.18C11.2517 21.0232 8.55311 21.6047 9.81243 23.9552C15.0041 27.2243 17.1372 30.4033 22.0719 30.7848C24.4107 29.5317 26.4155 28.4577 28.7543 27.2046C31.1446 22.0344 25.9788 13.9975 24.3597 10.9753C23.4602 9.29636 21.1213 10.5494 22.0208 12.2284M14.2333 12.9431C15.7087 15.697 18.0113 19.9949 18.0113 19.9949M14.2333 12.9431C14.0225 12.5497 13.9043 12.3292 13.6936 11.9357C12.794 10.2568 16.1353 8.46667 17.0348 10.1457C17.2456 10.5391 17.2147 10.4815 17.5745 11.1531M21.3525 18.2048C21.3525 18.2048 19.0499 13.9069 17.5745 11.1531M17.5745 11.1531C16.675 9.4741 19.5809 7.67415 20.5816 9.54201C20.9414 10.2136 20.8967 10.1302 22.0208 12.2284M24.8993 17.6011C24.8993 17.6011 23.1449 14.3266 22.0208 12.2284" stroke="#D4DDE1" stroke-width="1.5"/>
</svg>
