<svg width="147" height="46" viewBox="0 0 147 46" fill="none" xmlns="http://www.w3.org/2000/svg">
<g filter="url(#filter0_d_245_412)">
<path d="M143.841 18C143.841 18 124.341 18 111.341 18C111.341 18 113.341 7 102.841 1" stroke="black"/>
<path d="M141.841 18C141.841 9.5 117.841 16 115.841 9.5C113.841 3 121.841 5.49997 123.341 9.50002C129.841 26.8336 110.841 30 122.341 39.5" stroke="black"/>
<path d="M143.841 24C124.341 21.9999 120.341 34.5 126.341 37C132.341 39.5 136.352 35.0701 135.341 32C134.331 28.9298 129.841 29 129.841 32" stroke="black"/>
<path d="M143.841 21L5.84107 21" stroke="black"/>
<rect x="-0.25" y="0.25" width="89.5" height="41.5" rx="15.75" transform="matrix(-1 0 0 1 109.341 0)" fill="#13121A" stroke="#323350" stroke-width="0.5"/>
<path d="M27.3411 0.999939C25.3411 0.999939 18.1592 4.99994 17.8411 15.5C17.6661 21.2732 16.8411 23.9999 12.8411 23.9999C8.84106 23.9999 8.34106 17.4999 3.84106 17.4999C1.34106 17.4999 0.841064 20.9999 5.84106 20.9999" stroke="black"/>
<circle r="2" transform="matrix(-1 0 0 1 12.3411 15.4999)" stroke="black"/>
</g>
<path d="M79.1549 22.4524C79.1549 22.4524 70.5 17.3749 66.5774 9.87494C62 17.3749 54 22.4524 54 22.4524" stroke="#D4DDE1" stroke-width="1.5"/>
<path d="M75.845 24.1073V33.3749H69.5563C69.5563 33.3749 71.5001 31.3749 71.0001 29.8749" stroke="#D4DDE1" stroke-width="1.5"/>
<path d="M69.8873 26.7552H63.5985C63.5985 26.7552 63.5985 30.8749 63.5985 33.3749C55.4999 33.3749 57.3098 34.8749 57.3098 19.8749" stroke="#D4DDE1" stroke-width="1.5"/>
<path d="M83 34.875C83 34.875 83 16.8749 83 11.375C83 6.87503 77 6.875 77 11.375M54.5 12.375L50 8.875V34.875" stroke="#D4DDE1" stroke-width="1.5"/>
<defs>
<filter id="filter0_d_245_412" x="0.497925" y="0" width="146.394" height="46" filterUnits="userSpaceOnUse" color-interpolation-filters="sRGB">
<feFlood flood-opacity="0" result="BackgroundImageFix"/>
<feColorMatrix in="SourceAlpha" type="matrix" values="0 0 0 0 0 0 0 0 0 0 0 0 0 0 0 0 0 0 127 0" result="hardAlpha"/>
<feOffset dx="1" dy="2"/>
<feGaussianBlur stdDeviation="1"/>
<feComposite in2="hardAlpha" operator="out"/>
<feColorMatrix type="matrix" values="0 0 0 0 0 0 0 0 0 0 0 0 0 0 0 0 0 0 0.6 0"/>
<feBlend mode="normal" in2="BackgroundImageFix" result="effect1_dropShadow_245_412"/>
<feBlend mode="normal" in="SourceGraphic" in2="effect1_dropShadow_245_412" result="shape"/>
</filter>
</defs>
</svg>
