<svg width="148" height="46" viewBox="0 0 148 46" fill="none" xmlns="http://www.w3.org/2000/svg">
<g filter="url(#filter0_d_105_17)">
<path d="M2 18C2 18 21.5 18 34.5 18C34.5 18 32.5 7 43 1" stroke="black"/>
<path d="M4 18C4 9.5 28 16 30 9.5C32 3 24 5.49997 22.5 9.50002C16 26.8336 35 30 23.5 39.5" stroke="black"/>
<path d="M2 24C21.5 22 25.5 34.5 19.5 37C13.5 39.5001 9.48946 35.0701 10.5 32C11.5105 28.9299 16 29 16 32" stroke="black"/>
<path d="M2 21L140 21" stroke="black"/>
<rect x="36.25" y="0.25" width="89.5" height="41.5" rx="15.75" fill="#13121A" stroke="#323350" stroke-width="0.5"/>
<path d="M118.5 0.999939C120.5 0.999939 127.682 4.99994 128 15.5C128.175 21.2732 129 23.9999 133 23.9999C137 23.9999 137.5 17.4999 142 17.4999C144.5 17.4999 145 20.9999 140 20.9999" stroke="black"/>
<circle cx="133.5" cy="15.4999" r="2" stroke="black"/>
</g>
<defs>
<filter id="filter0_d_105_17" x="0.948975" y="0" width="146.394" height="46" filterUnits="userSpaceOnUse" color-interpolation-filters="sRGB">
<feFlood flood-opacity="0" result="BackgroundImageFix"/>
<feColorMatrix in="SourceAlpha" type="matrix" values="0 0 0 0 0 0 0 0 0 0 0 0 0 0 0 0 0 0 127 0" result="hardAlpha"/>
<feOffset dx="1" dy="2"/>
<feGaussianBlur stdDeviation="1"/>
<feComposite in2="hardAlpha" operator="out"/>
<feColorMatrix type="matrix" values="0 0 0 0 0 0 0 0 0 0 0 0 0 0 0 0 0 0 0.6 0"/>
<feBlend mode="normal" in2="BackgroundImageFix" result="effect1_dropShadow_105_17"/>
<feBlend mode="normal" in="SourceGraphic" in2="effect1_dropShadow_105_17" result="shape"/>
</filter>
</defs>
</svg>
