<svg width="40" height="40" viewBox="0 0 40 40" fill="none" xmlns="http://www.w3.org/2000/svg">
<circle cx="20" cy="20" r="19.5" fill="#13121A" stroke="#323350"/>
<path d="M26.4994 12.1745C22.3754 12.1745 15.5612 12.1747 14.53 12.1747C6.23846 12.1746 6.23847 26.1013 14.1043 26.1015L14.1046 26.1015C16.6819 26.1016 17.4994 26.1016 15.4995 29.5C15.4995 29.5 19.9995 28.5 20.8721 26.1015L26.4995 26.1014C34.87 26.1012 34.8697 12.1747 26.4994 12.1745Z" stroke="#D4DDE1" stroke-width="1.5"/>
<path d="M16.4993 19.0629C16.4993 20.1675 15.6038 21.0629 14.4993 21.0629C13.3947 21.0629 12.4993 20.1675 12.4993 19.0629C12.4993 17.9583 13.3947 17.0629 14.4993 17.0629C15.6038 17.0629 16.4993 17.9583 16.4993 19.0629Z" fill="#D4DDE1"/>
<path d="M22.4995 19.0629C22.4995 20.1675 21.6041 21.0629 20.4995 21.0629C19.3949 21.0629 18.4995 20.1675 18.4995 19.0629C18.4995 17.9583 19.3949 17.0629 20.4995 17.0629C21.6041 17.0629 22.4995 17.9583 22.4995 19.0629Z" fill="#D4DDE1"/>
<path d="M28.4996 19.0631C28.4996 20.1676 27.6042 21.0631 26.4996 21.0631C25.3951 21.0631 24.4996 20.1676 24.4996 19.0631C24.4996 17.9585 25.3951 17.0631 26.4996 17.0631C27.6042 17.0631 28.4996 17.9585 28.4996 19.0631Z" fill="#D4DDE1"/>
</svg>
