<svg width="275" height="58" viewBox="0 0 275 58" fill="none" xmlns="http://www.w3.org/2000/svg">
<g filter="url(#filter0_d_105_3)">
<path d="M225 49.5C234.5 49.5 241 41.5 241 32C241 22.5 241.5 21 245.5 19C249.5 17 254.5 18.5 256.5 21.5C258.5 24.5 256.173 28.091 257 30C258.132 32.6123 262.868 29.1163 264 26.504C265.132 23.8917 267 22.5 268.5 22.5C270.454 22.5 271.414 24.1517 270 25.5C269.011 26.4433 268 26.5 266.5 26.504" stroke="black"/>
<line x1="235" y1="26.5" x2="267" y2="26.5" stroke="black"/>
<path d="M253.5 26C253.5 28.4853 251.485 30.5 249 30.5C246.515 30.5 244.5 28.4853 244.5 26C244.5 23.5147 246.515 21.5 249 21.5C251.485 21.5 253.5 23.5147 253.5 26Z" stroke="black"/>
<path d="M253.5 26C253.5 28.4853 251.485 30.5 249 30.5C246.515 30.5 244.5 28.4853 244.5 26C244.5 23.5147 246.515 21.5 249 21.5C251.485 21.5 253.5 23.5147 253.5 26Z" stroke="black" stroke-opacity="0.2"/>
<path d="M224 4.50002C238 4 241 19 241 19C241 19 244 15 249.5 15.5L245.5 7.00002" stroke="black"/>
<path d="M47 49.5C37.6371 49.5 31.2453 41.8244 31.2453 32.116C31.2453 22.4075 30.7525 20.8746 26.8103 18.8307C22.868 16.7868 17.9402 18.3197 15.969 21.3855C13.9979 24.4514 16.2914 28.1212 15.4763 30.0721C14.3608 32.7417 9.69275 29.169 8.57729 26.4993C7.46182 23.8297 5.62059 22.4075 4.14223 22.4075C2.21687 22.4075 1.2706 24.0954 2.66389 25.4733C3.63872 26.4374 4.63502 26.4953 6.11337 26.4993" stroke="black"/>
<line y1="-0.5" x2="31.5381" y2="-0.5" transform="matrix(-1 0 0 1 37.1588 27.0062)" stroke="black"/>
<path d="M18.933 25.9843C18.933 28.5474 20.9324 30.594 23.3609 30.594C25.7894 30.594 27.7887 28.5474 27.7887 25.9843C27.7887 23.4212 25.7894 21.3746 23.3609 21.3746C20.9324 21.3746 18.933 23.4212 18.933 25.9843Z" stroke="black"/>
<path d="M18.933 25.9843C18.933 28.5474 20.9324 30.594 23.3609 30.594C25.7894 30.594 27.7887 28.5474 27.7887 25.9843C27.7887 23.4212 25.7894 21.3746 23.3609 21.3746C20.9324 21.3746 18.933 23.4212 18.933 25.9843Z" stroke="black" stroke-opacity="0.2"/>
<path d="M47.5 4.5C34 4.98751 31.2454 18.8307 31.2454 18.8307C31.2454 18.8307 28.2887 14.7429 22.868 15.2539L26.8103 6.56735" stroke="black"/>
<rect x="33.25" y="6.25" width="205.5" height="41.5" rx="15.75" fill="#13121A" stroke="#323350" stroke-width="0.5"/>
<rect x="45.25" y="0.25" width="181.5" height="53.5" rx="15.75" fill="#13121A" stroke="#323350" stroke-width="0.5"/>
</g>
<defs>
<filter id="filter0_d_105_3" x="0.499146" y="0" width="273.675" height="58" filterUnits="userSpaceOnUse" color-interpolation-filters="sRGB">
<feFlood flood-opacity="0" result="BackgroundImageFix"/>
<feColorMatrix in="SourceAlpha" type="matrix" values="0 0 0 0 0 0 0 0 0 0 0 0 0 0 0 0 0 0 127 0" result="hardAlpha"/>
<feOffset dx="1" dy="2"/>
<feGaussianBlur stdDeviation="1"/>
<feComposite in2="hardAlpha" operator="out"/>
<feColorMatrix type="matrix" values="0 0 0 0 0 0 0 0 0 0 0 0 0 0 0 0 0 0 0.6 0"/>
<feBlend mode="normal" in2="BackgroundImageFix" result="effect1_dropShadow_105_3"/>
<feBlend mode="normal" in="SourceGraphic" in2="effect1_dropShadow_105_3" result="shape"/>
</filter>
</defs>
</svg>
