<svg width="147" height="46" viewBox="0 0 147 46" fill="none" xmlns="http://www.w3.org/2000/svg">
<g filter="url(#filter0_d_235_119)">
<path d="M143.841 18C143.841 18 124.341 18 111.341 18C111.341 18 113.341 7 102.841 1" stroke="black"/>
<path d="M141.841 18C141.841 9.5 117.841 16 115.841 9.5C113.841 3 121.841 5.49997 123.341 9.50002C129.841 26.8336 110.841 30 122.341 39.5" stroke="black"/>
<path d="M143.841 24C124.341 21.9999 120.341 34.5 126.341 37C132.341 39.5 136.352 35.0701 135.341 32C134.331 28.9298 129.841 29 129.841 32" stroke="black"/>
<path d="M143.841 21L5.84107 21" stroke="black"/>
<rect x="-0.25" y="0.25" width="89.5" height="41.5" rx="15.75" transform="matrix(-1 0 0 1 109.341 0)" fill="#13121A" stroke="#323350" stroke-width="0.5"/>
<path d="M27.3411 0.999939C25.3411 0.999939 18.1592 4.99994 17.8411 15.5C17.6661 21.2732 16.8411 23.9999 12.8411 23.9999C8.84106 23.9999 8.34106 17.4999 3.84106 17.4999C1.34106 17.4999 0.841064 20.9999 5.84106 20.9999" stroke="black"/>
<circle r="2" transform="matrix(-1 0 0 1 12.3411 15.4999)" stroke="black"/>
</g>
<path d="M76.5 28.7309C68.3983 28.7309 55.7542 28.7309 55.7542 28.7309M76.5 28.7309C76.5 21.0388 76.5 9.03394 76.5 9.03394C76.5 9.03394 63.856 9.03394 55.7542 9.03394M76.5 28.7309C75.6864 29.5188 73.2458 31.8824 76.5 35.0339C72.839 35.0339 55.7542 35.0339 55.7542 35.0339C55.7542 35.0339 52.5 35.0339 52.5 32.2763M55.7542 28.7309C55.7542 28.7309 55.7542 16.7261 55.7542 9.03394M55.7542 28.7309C55.7542 28.7309 52.5 28.7309 52.5 32.2763M55.7542 9.03394C54.9407 9.03394 52.9068 9.03394 52.5 11.7915C52.5 16.5188 52.5 25.0849 52.5 32.2763" stroke="#D4DDE1" stroke-width="2"/>
<path d="M72.9999 31.0339C72.9999 31.0339 60.9999 31.0347 55.9999 31.034C55 31.0338 55 32.034 55 32.034" stroke="#D4DDE1"/>
<path d="M66.5427 23.9146C66.9384 23.3541 67.5989 22.9121 67.5989 22.9121L68.1368 21.3451C68.1368 21.3451 68.3766 21.408 68.5712 21.2234C69.1044 19.7928 70.0498 18.1031 70.0498 18.1031C70.0498 18.1031 70.2943 18.0295 70.4602 17.8985C71.6736 15.4526 73.497 10.1298 74.7857 7.05769C74.822 6.78556 73.9315 6.09878 73.2277 6.23857C72.1504 8.63454 69.3881 13.8976 68.2058 17.0007C68.209 17.1505 68.3038 17.2775 68.3038 17.2775C68.3038 17.2775 67.9817 18.8247 67.0852 20.6528C67.1314 20.8731 67.2619 20.9869 67.2619 20.9869L66.4927 22.2453C66.4927 22.2453 66.5785 22.877 66.5427 23.9146Z" fill="#D4DDE1"/>
<path d="M80 11C80 11 80 13.633 80 15.3201M80 15.3201C80 21.9151 80.0002 27.8875 80 31.4221C79.9999 34.7604 84.6154 34.9567 84.6154 31.4221C84.6154 26.7093 83.4615 25.5311 85 19.2474C83.0769 18.8546 81.9231 18.4619 80 15.3201Z" stroke="#D4DDE1" stroke-width="2"/>
<path d="M49 34C49 34 49 31.367 49 29.6799M49 29.6799C49 23.0849 48.9998 17.1125 49 13.5779C49.0001 10.2396 44.3846 10.0433 44.3846 13.5779C44.3846 18.2907 45.5385 19.4689 44 25.7526C45.9231 26.1454 47.0769 26.5381 49 29.6799Z" stroke="#D4DDE1" stroke-width="2"/>
<defs>
<filter id="filter0_d_235_119" x="0.497925" y="0" width="146.394" height="46" filterUnits="userSpaceOnUse" color-interpolation-filters="sRGB">
<feFlood flood-opacity="0" result="BackgroundImageFix"/>
<feColorMatrix in="SourceAlpha" type="matrix" values="0 0 0 0 0 0 0 0 0 0 0 0 0 0 0 0 0 0 127 0" result="hardAlpha"/>
<feOffset dx="1" dy="2"/>
<feGaussianBlur stdDeviation="1"/>
<feComposite in2="hardAlpha" operator="out"/>
<feColorMatrix type="matrix" values="0 0 0 0 0 0 0 0 0 0 0 0 0 0 0 0 0 0 0.6 0"/>
<feBlend mode="normal" in2="BackgroundImageFix" result="effect1_dropShadow_235_119"/>
<feBlend mode="normal" in="SourceGraphic" in2="effect1_dropShadow_235_119" result="shape"/>
</filter>
</defs>
</svg>
