<svg width="24" height="24" viewBox="0 0 24 24" fill="none" xmlns="http://www.w3.org/2000/svg">
<line y1="6" x2="24" y2="6" stroke="#37334D"/>
<line y1="-0.5" x2="16.7705" y2="-0.5" transform="matrix(0.178885 0.98387 -0.993759 0.111544 2 6.5)" stroke="#37334D"/>
<line x1="19" y1="22.7144" x2="5" y2="22.7144" stroke="#37334D"/>
<line y1="-0.5" x2="16.7705" y2="-0.5" transform="matrix(-0.178885 0.98387 -0.993759 -0.111544 21 5.71436)" stroke="#37334D"/>
<line y1="-0.5" x2="16.5303" y2="-0.5" transform="matrix(0.0604951 0.998169 -0.999301 0.0373888 8 6.5)" stroke="#37334D"/>
<line y1="-0.5" x2="16.5303" y2="-0.5" transform="matrix(0.0604951 -0.998169 0.999301 0.0373888 15 23)" stroke="#37334D"/>
<line x1="2" y1="2.85718" x2="22" y2="2.85718" stroke="#37334D"/>
<line x1="9" y1="1.28564" x2="15" y2="1.28564" stroke="#37334D"/>
<line x1="9.5" y1="1.78564" x2="9.5" y2="2.57136" stroke="#37334D"/>
<line x1="14.5" y1="1" x2="14.5" y2="2.57143" stroke="#37334D"/>
</svg>
