<svg width="9" height="18" viewBox="0 0 9 18" fill="none" xmlns="http://www.w3.org/2000/svg">
<path d="M0.107431 17.9147C0.503136 17.3542 1.16362 16.9122 1.16362 16.9122L1.70153 15.3451C1.70153 15.3451 1.94133 15.4081 2.1359 15.2234C2.66911 13.7929 3.61454 12.1031 3.61454 12.1031C3.61454 12.1031 3.85904 12.0296 4.02487 11.8986C5.23831 9.45263 7.06166 4.12987 8.35044 1.05775C8.3867 0.785618 7.49623 0.0988446 6.79238 0.238633C5.71508 2.6346 2.95278 7.89768 1.77048 11.0008C1.77368 11.1505 1.86849 11.2776 1.86849 11.2776C1.86849 11.2776 1.54635 12.8247 0.64993 14.6528C0.696116 14.8731 0.826625 14.987 0.826625 14.987L0.0573744 16.2453C0.0573744 16.2453 0.143158 16.8771 0.107431 17.9147Z" fill="#37334C"/>
</svg>
