<svg width="147" height="46" viewBox="0 0 147 46" fill="none" xmlns="http://www.w3.org/2000/svg">
<g filter="url(#filter0_d_216_920)">
<path d="M143.841 18C143.841 18 124.341 18 111.341 18C111.341 18 113.341 7 102.841 1" stroke="black"/>
<path d="M141.841 18C141.841 9.5 117.841 16 115.841 9.5C113.841 3 121.841 5.49997 123.341 9.50002C129.841 26.8336 110.841 30 122.341 39.5" stroke="black"/>
<path d="M143.841 24C124.341 22 120.341 34.5 126.341 37C132.341 39.5001 136.352 35.0701 135.341 32C134.331 28.9299 129.841 29 129.841 32" stroke="black"/>
<path d="M143.841 21L5.84107 21" stroke="black"/>
<rect x="-0.25" y="0.25" width="89.5" height="41.5" rx="15.75" transform="matrix(-1 0 0 1 109.341 0)" fill="#13121A" stroke="#323350" stroke-width="0.5"/>
<path d="M27.3411 0.999939C25.3411 0.999939 18.1592 4.99994 17.8411 15.5C17.6661 21.2732 16.8411 23.9999 12.8411 23.9999C8.84106 23.9999 8.34106 17.4999 3.84106 17.4999C1.34106 17.4999 0.841064 20.9999 5.84106 20.9999" stroke="black"/>
<circle r="2" transform="matrix(-1 0 0 1 12.3411 15.4999)" stroke="black"/>
</g>
<path fill-rule="evenodd" clip-rule="evenodd" d="M82.968 25.6144L84.0004 25.3762L83.921 24.8997C83.5768 24.8732 82.8091 24.8202 82.8091 24.8202L82.7297 24.3438L83.6827 23.9467L83.5239 23.4702L82.5709 23.5496L82.4915 22.9937L83.2856 22.5966L83.0474 22.0407L82.1738 22.279L81.9356 21.8025L82.7297 21.2466L82.4121 20.7701L81.4591 21.0878C81.4062 21.0083 81.2209 20.6907 81.2209 20.6907L81.8562 19.9759L81.5385 19.5789L80.6649 20.0554L80.3473 19.7377C80.3473 19.7377 80.6914 19.1818 80.9032 18.9436L80.5061 18.5465L79.712 19.1818L79.3943 18.8641L79.7914 18.07C79.659 17.9641 79.3149 17.7523 79.3149 17.7523L78.759 18.4671L78.2825 18.2288L78.6002 17.3553L78.0443 17.117L77.4884 17.9112L77.0119 17.7523L77.1707 16.7994L76.6148 16.72C76.5354 16.9317 76.2971 17.5141 76.2971 17.5141L75.7412 17.4347V16.5611H75.1853L75.0265 17.3553H74.4706L74.3118 16.4817C74.3118 16.4817 73.9676 16.5082 73.8353 16.5611L73.7559 17.3553L73.2 17.4347L72.8823 16.72L72.4852 16.7994V17.5935L71.9293 17.8318L71.5323 17.117L71.1352 17.2759L71.294 18.07L70.7381 18.3083L70.2616 17.5935C70.1557 17.6729 69.8645 17.9112 69.8645 17.9112C69.801 17.9747 70.1822 18.6259 70.1822 18.6259L69.6263 19.023C69.4939 18.8906 69.0704 18.3877 69.0704 18.3877L68.6733 18.7847L69.0704 19.4995L68.6733 19.8171L68.1174 19.4201L67.7203 19.8171L68.1968 20.4525L67.7998 20.8495L67.1644 20.5319L66.9262 21.0084C67.0586 21.0878 67.5615 21.5643 67.5615 21.5643L67.2439 21.8819L66.5291 21.7231L66.3703 22.279C66.5556 22.3849 67.0056 22.6761 67.0056 22.6761L66.7674 23.1526L66.0526 23.0731L65.8938 23.629L66.6085 23.9467L66.5291 24.3438L65.8144 24.4232L65.735 25.0585L66.5291 25.2173V25.6938L65.735 25.7732V26.488H66.5291V26.885L65.8144 27.2027C65.8673 27.3615 65.9732 27.6951 65.9732 27.7586C65.9732 27.8221 66.5027 27.7851 66.7674 27.7586L66.8468 28.1557L66.2115 28.4733L66.4497 29.1087L67.1644 28.9498C67.2174 29.0557 67.3233 29.3469 67.3233 29.3469C67.3233 29.3469 66.8997 29.691 66.688 29.8234L67.085 30.3793L67.7203 30.0616C67.7998 30.141 67.9586 30.3793 67.9586 30.3793L67.4027 31.0146L67.8792 31.5705L68.5145 31.094L68.8322 31.4117C68.6733 31.6235 68.2763 32.1264 68.2763 32.1264C68.2763 32.1264 68.5674 32.4705 68.7527 32.6029L69.4675 31.9676L69.7851 32.2852L69.3086 33.0794L69.8645 33.4765L70.4999 32.7617L70.8969 33L70.5793 33.8735L71.1352 34.1118L71.6117 33.3176L72.0882 33.5559L71.9293 34.4294L72.4852 34.5883L72.8823 33.7147L73.2794 33.7941V34.7471H73.9147L74.1529 33.953H74.6294L74.7883 34.9059L75.3442 34.8265V33.953L75.9001 33.8735L76.2177 34.7471L76.7736 34.6677L76.6942 33.7147L77.1707 33.6353C77.3295 33.8735 77.6472 34.4294 77.6472 34.4294L78.1237 34.1912L77.8854 33.3176L78.4413 33.0794L78.9972 33.8735L79.4737 33.5559L79.0767 32.7617L79.5531 32.4441L80.2679 33.0794L80.6649 32.6823L80.109 31.9676L80.5855 31.5705C80.7973 31.7293 81.3797 32.047 81.3797 32.047L81.6973 31.7293L81.062 30.9352L81.3797 30.5381L82.3327 30.9352L82.5709 30.5381L81.8562 29.9028L82.0944 29.4263L83.1268 29.6646L83.2856 29.1881L82.4121 28.6322L82.5709 28.2351L83.6033 28.3145L83.7621 27.7586L82.8091 27.4409L82.968 26.885H83.921L84.0004 26.3291L82.968 26.0909V25.6144ZM81.2209 22.9937L77.1707 24.3438L76.853 23.8673L79.712 20.7701L81.2209 22.9937ZM77.4089 25.7732L81.5385 26.488L81.3797 23.9467C80.1355 24.3438 77.4089 25.2968 77.4089 25.2968V25.7732ZM80.109 29.4263L77.0119 27.0439L77.2501 26.5674L81.2209 27.4409L80.109 29.4263ZM76.0589 28.0763C76.0589 28.0763 77.5042 31.7452 77.5678 31.8088L79.5531 30.3793C78.5737 29.5851 76.456 27.838 76.456 27.838L76.0589 28.0763ZM74.0735 32.3647L74.7883 28.2351H75.1853L76.6942 32.2058L74.0735 32.3647ZM73.4382 27.838L70.8175 31.1734L73.0411 32.2058L73.9147 28.0763L73.4382 27.838ZM68.6733 28.4733L72.4852 27.0439L72.7235 27.4409L70.0234 30.4587L68.6733 28.4733ZM72.1676 25.6144L68.038 24.9791L68.2763 27.441L72.1676 26.0115V25.6144ZM69.3086 21.7231L72.4852 24.3438L72.3264 24.6614L68.1968 23.9467L69.3086 21.7231ZM73.4382 23.1526L72.0882 19.4995L69.944 21.0084L73.0411 23.4702L73.4382 23.1526ZM75.503 18.9436L74.8677 22.9937H74.3118L72.8823 19.1818L75.503 18.9436ZM76.1383 23.3114L78.759 20.0554L76.5354 19.1024L75.7412 23.1526L76.1383 23.3114Z" fill="#D4DDE1"/>
<path fill-rule="evenodd" clip-rule="evenodd" d="M51.2311 15.5007L51.5991 15.4165L51.5708 15.2481C51.4481 15.2387 51.1744 15.22 51.1744 15.22L51.1461 15.0516L51.4859 14.9112L51.4292 14.7428L51.0895 14.7709L51.0612 14.5744L51.3443 14.4341L51.2594 14.2376L50.9479 14.3218L50.863 14.1534L51.1461 13.9569L51.0329 13.7885L50.6931 13.9008C50.6742 13.8727 50.6082 13.7604 50.6082 13.7604L50.8347 13.5078L50.7214 13.3675L50.41 13.5359L50.2967 13.4236C50.2967 13.4236 50.4194 13.2271 50.4949 13.1429L50.3533 13.0026L50.0702 13.2271L49.957 13.1148L50.0985 12.8341C50.0513 12.7967 49.9286 12.7219 49.9286 12.7219L49.7305 12.9745L49.5606 12.8903L49.6738 12.5815L49.4756 12.4973L49.2774 12.778L49.1076 12.7219L49.1642 12.385L48.966 12.357C48.9377 12.4318 48.8528 12.6377 48.8528 12.6377L48.6546 12.6096V12.3008H48.4564L48.3997 12.5815H48.2016L48.1449 12.2728C48.1449 12.2728 48.0222 12.2821 47.975 12.3008L47.9467 12.5815L47.7485 12.6096L47.6353 12.357L47.4937 12.385V12.6657L47.2955 12.7499L47.154 12.4973L47.0124 12.5535L47.069 12.8341L46.8708 12.9184L46.701 12.6657C46.6632 12.6938 46.5594 12.778 46.5594 12.778C46.5367 12.8005 46.6726 13.0306 46.6726 13.0306L46.4745 13.171C46.4273 13.1242 46.2763 12.9464 46.2763 12.9464L46.1347 13.0868L46.2763 13.3394L46.1347 13.4517L45.9365 13.3113L45.7949 13.4517L45.9648 13.6762L45.8233 13.8166L45.5967 13.7043L45.5118 13.8727C45.559 13.9008 45.7383 14.0692 45.7383 14.0692L45.6251 14.1815L45.3702 14.1253L45.3136 14.3218C45.3797 14.3592 45.5401 14.4621 45.5401 14.4621L45.4552 14.6306L45.2004 14.6025L45.1437 14.799L45.3986 14.9113L45.3702 15.0516L45.1154 15.0797L45.0871 15.3042L45.3702 15.3604V15.5288L45.0871 15.5568V15.8095H45.3702V15.9498L45.1154 16.0621C45.1343 16.1182 45.1721 16.2361 45.1721 16.2586C45.1721 16.281 45.3608 16.2679 45.4552 16.2586L45.4835 16.3989L45.257 16.5112L45.3419 16.7357L45.5967 16.6796C45.6156 16.717 45.6534 16.8199 45.6534 16.8199C45.6534 16.8199 45.5024 16.9416 45.4269 16.9884L45.5684 17.1848L45.7949 17.0726C45.8233 17.1006 45.8799 17.1848 45.8799 17.1848L45.6817 17.4094L45.8516 17.6059L46.0781 17.4375L46.1913 17.5497C46.1347 17.6246 45.9931 17.8024 45.9931 17.8024C45.9931 17.8024 46.0969 17.924 46.163 17.9708L46.4178 17.7462L46.5311 17.8585L46.3612 18.1392L46.5594 18.2795L46.7859 18.0269L46.9275 18.1111L46.8142 18.4199L47.0124 18.5041L47.1823 18.2234L47.3522 18.3076L47.2955 18.6164L47.4937 18.6725L47.6353 18.3637L47.7769 18.3918V18.7286H48.0034L48.0883 18.4479H48.2582L48.3148 18.7848L48.513 18.7567V18.4479L48.7112 18.4199L48.8244 18.7286L49.0226 18.7006L48.9943 18.3637L49.1642 18.3357C49.2208 18.4199 49.3341 18.6164 49.3341 18.6164L49.504 18.5322L49.419 18.2234L49.6172 18.1392L49.8154 18.4199L49.9853 18.3076L49.8437 18.0269L50.0136 17.9146L50.2684 18.1392L50.41 17.9988L50.2118 17.7462L50.3817 17.6059C50.4572 17.662 50.6648 17.7743 50.6648 17.7743L50.778 17.662L50.5515 17.3813L50.6648 17.241L51.0045 17.3813L51.0895 17.241L50.8347 17.0164L50.9196 16.848L51.2877 16.9322L51.3443 16.7638L51.0329 16.5673L51.0895 16.427L51.4576 16.455L51.5142 16.2586L51.1744 16.1463L51.2311 15.9498H51.5708L51.5991 15.7533L51.2311 15.6691V15.5007ZM50.6082 14.5744L49.1642 15.0516L49.0509 14.8832L50.0702 13.7885L50.6082 14.5744ZM49.2491 15.5568L50.7214 15.8095L50.6648 14.9112C50.2212 15.0516 49.2491 15.3884 49.2491 15.3884V15.5568ZM50.2118 16.848L49.1076 16.0059L49.1925 15.8375L50.6082 16.1463L50.2118 16.848ZM48.7678 16.3708C48.7678 16.3708 49.2831 17.6676 49.3058 17.6901L50.0136 17.1848C49.6644 16.9042 48.9094 16.2866 48.9094 16.2866L48.7678 16.3708ZM48.06 17.8866L48.3148 16.427H48.4564L48.9943 17.8304L48.06 17.8866ZM47.8335 16.2866L46.8992 17.4655L47.6919 17.8304L48.0034 16.3708L47.8335 16.2866ZM46.1347 16.5112L47.4937 16.0059L47.5787 16.1463L46.616 17.2129L46.1347 16.5112ZM47.3805 15.5007L45.9082 15.2761L45.9931 16.1463L47.3805 15.641V15.5007ZM46.3612 14.1253L47.4937 15.0516L47.4371 15.1639L45.9648 14.9113L46.3612 14.1253ZM47.8335 14.6306L47.3522 13.3394L46.5877 13.8727L47.6919 14.7428L47.8335 14.6306ZM48.5696 13.1429L48.3431 14.5744H48.1449L47.6353 13.2271L48.5696 13.1429ZM48.7961 14.6867L49.7305 13.5359L48.9377 13.199L48.6546 14.6306L48.7961 14.6867Z" fill="#D4DDE1"/>
<path fill-rule="evenodd" clip-rule="evenodd" d="M75.3431 13.1677L76.3038 12.3635L75.965 11.9044C75.5881 12.061 74.7505 12.4168 74.7505 12.4168L74.4117 11.9578L75.2037 11.0289L74.7812 10.6124L73.8191 11.2069L73.4378 10.6642L74.0624 9.82052L73.5137 9.36301L72.7203 10.0821L72.2141 9.7082L72.7537 8.69727L72.1637 8.36594L71.3292 9.2112C71.2309 9.15598 70.8655 8.9209 70.8655 8.9209L71.1526 7.82791L70.6051 7.58018L69.9394 8.55007L69.4345 8.38595C69.4345 8.38595 69.4996 7.61625 69.5953 7.25192L68.9642 7.04677L68.4672 8.1413L67.9622 7.97717L67.9557 6.92829C67.7595 6.88777 67.2833 6.8493 67.2833 6.8493L67.08 7.89972L66.4501 7.90434L66.3173 6.81443L65.6038 6.86164L65.4429 7.99564L64.8556 8.08386L64.5129 6.99551L63.8844 7.2099C63.914 7.47541 63.9747 8.21619 63.9747 8.21619L63.3461 8.4306L62.8785 7.51097L62.2925 7.80897L62.5502 8.73012L61.9642 9.02811L61.3291 8.19365C61.3291 8.19365 60.9805 8.40599 60.8694 8.53268L61.2108 9.41127L60.6673 9.79287L59.9498 9.21073L59.5738 9.50719L59.9989 10.3432L59.5404 10.892L58.7393 10.3524L58.4057 10.7325L58.9983 11.4834L58.5398 12.0322L57.6549 11.5352C57.5858 11.6756 57.4064 12.0825 57.4064 12.0825C57.3734 12.1834 58.1239 12.6646 58.1239 12.6646L57.7505 13.3806C57.5401 13.3122 56.8243 13.0098 56.8243 13.0098L56.6183 13.6406L57.4195 14.1802L57.171 14.7275L56.3725 14.6075L56.1665 15.2383L57.0089 15.6517L56.8029 16.2826L55.9631 16.2888L55.967 16.9181C56.1491 16.9307 56.9343 17.1627 56.9343 17.1627L56.7695 17.6674L55.9311 17.8834L56.0613 18.5537C56.3133 18.5659 56.9435 18.6312 56.9435 18.6312L56.9475 19.2605L56.1515 19.56L56.2817 20.2304L57.2052 20.1817L57.3341 20.6422L56.6231 21.109L56.8795 21.8204L57.8017 21.5619L58.0568 22.0635L57.2622 22.5728L57.6448 23.3252L58.4819 22.8995L58.6945 23.3175L58.1111 24.0351C58.252 24.1739 58.5422 24.4683 58.5762 24.5352C58.6102 24.602 59.1484 24.2792 59.4133 24.1094L59.7096 24.4849L59.2099 25.1599L59.8012 25.701L60.4696 25.1506C60.5821 25.2337 60.8496 25.4835 60.8496 25.4835C60.8496 25.4835 60.5873 26.0728 60.435 26.3257L61.1511 26.698L61.6508 26.0231C61.777 26.0641 62.072 26.2298 62.072 26.2298L61.8261 27.1966L62.626 27.5264L63.0406 26.6842L63.5455 26.8483C63.4915 27.1564 63.3422 27.8987 63.3422 27.8987C63.3422 27.8987 63.8333 28.1049 64.0995 28.1449L64.5128 27.093L65.0178 27.2571L64.9406 28.3486L65.7392 28.4686L66.0263 27.3756L66.5724 27.4135L66.7052 28.5034L67.4187 28.4563L67.4959 27.3648L68.1257 27.3602L68.4259 28.365L69.0969 28.2342L69.0479 27.1017L69.5089 26.9724L70.0191 27.9757L70.6888 27.6351L70.5148 26.6714L71.0171 26.4159L71.6947 27.334L72.2382 26.9524L71.7705 26.0328L72.314 25.6512L73.1165 26.4005L73.66 26.0189L73.0661 25.0583L73.5259 24.7193C73.8209 24.8849 74.4533 25.2999 74.4533 25.2999L74.8281 24.7936L74.1093 24.0017L74.5677 23.4529L75.5789 23.9909L75.9111 23.4011L75.0674 22.7779L75.3996 22.1881L76.4931 22.4738L76.6991 21.8429L75.7305 21.3885L76.0202 20.715C76.3285 20.7687 77.1125 20.7909 77.1125 20.7909L77.2773 20.2863L76.1824 19.7908L76.3047 19.2025L77.5218 19.1097L77.5604 18.5639L76.4669 18.2782L76.4629 17.6489L77.6787 17.3463L77.5911 16.7595L76.3726 16.6426L76.3275 16.1395L77.4583 15.6696L77.3281 14.9993L76.1535 15.1757L76.0233 14.5054L77.0279 13.9945L76.814 13.3667L75.5982 13.6693L75.3431 13.1677ZM72.0984 11.3454L68.5517 14.9377L67.9618 14.6064L69.3174 9.81335L72.0984 11.3454ZM69.5681 16.3149L74.3039 14.8536L72.776 12.2635C71.6771 13.3484 69.3131 15.8133 69.3131 15.8133L69.5681 16.3149ZM74.3701 18.7132L69.8298 17.8654L69.8259 17.2361L74.4792 16.0271L74.3701 18.7132ZM69.3779 19.4631C69.3779 19.4631 72.8657 22.5507 72.9666 22.5835L74.2942 20.0144C72.8366 19.7034 69.6689 18.9994 69.6689 18.9994L69.3779 19.4631ZM69.5808 25.0419L68.1235 20.3114L68.5421 20.0985L72.2584 23.4698L69.5808 25.0419ZM66.4878 20.6171L65.5108 25.5332L68.4075 25.4281L67.1176 20.6125L66.4878 20.6171ZM61.8051 23.8402L65.0581 20.2919L65.5218 20.5822L64.2911 25.2065L61.8051 23.8402ZM63.958 18.9574L59.2647 20.5022L60.8338 22.9662L64.1706 19.3754L63.958 18.9574ZM58.8611 16.3934L63.6126 17.4494L63.6152 17.869L58.8795 19.3302L58.8611 16.3934ZM63.9795 15.6845L60.6007 12.5625L59.1482 15.3004L63.731 16.2318L63.9795 15.6845ZM63.9028 10.1467L65.4013 14.7511L64.8153 15.0491L61.2677 11.8024L63.9028 10.1467ZM66.9108 14.4043L67.9302 9.57177L65.0761 9.76055L66.4072 14.45L66.9108 14.4043Z" fill="#D4DDE1"/>
<path fill-rule="evenodd" clip-rule="evenodd" d="M62.073 28.4151L63.0491 28.5537L63.1397 28.1132C62.8498 27.975 62.2011 27.6721 62.2011 27.6721L62.2917 27.2316L63.252 27.2055L63.2737 26.7385L62.4198 26.4885L62.537 25.979L63.3594 25.8998L63.3388 25.3372L62.5006 25.2518L62.4533 24.7581L63.3289 24.541L63.2127 24.0207L62.279 23.9778C62.2596 23.8911 62.2051 23.5531 62.2051 23.5531L62.996 23.1448L62.8532 22.6935L61.9353 22.8151L61.7659 22.4329C61.7659 22.4329 62.2508 22.0651 62.5144 21.929L62.3027 21.4512L61.4005 21.7373L61.2311 21.355L61.8417 20.798C61.7623 20.6618 61.5345 20.3626 61.5345 20.3626L60.8125 20.7975L60.4786 20.431L61.0469 19.7785L60.6441 19.3855L59.8955 19.8893L59.5351 19.5919L59.9921 18.8172L59.536 18.5621C59.3962 18.7195 58.9943 19.1457 58.9943 19.1457L58.5383 18.8907L58.8308 18.1318L58.3482 17.9458L57.9444 18.5825L57.4618 18.3964L57.6164 17.5844C57.6164 17.5844 57.3088 17.4922 57.1762 17.4939L56.8413 18.1573L56.3321 18.0402L56.2956 17.313L55.9243 17.2491L55.6584 17.939L55.096 17.9599L54.9906 17.2061L54.5927 17.2112L54.4646 17.9543L53.9022 17.9752L53.7279 17.1948C53.6094 17.2284 53.2768 17.3379 53.2768 17.3379C53.2004 17.3718 53.3132 18.0651 53.3132 18.0651L52.6977 18.224C52.6271 18.0647 52.4278 17.486 52.4278 17.486L51.9501 17.6981L52.0555 18.4519L51.6044 18.595L51.2547 18.064L50.777 18.276L50.9779 18.9874L50.5002 19.1995L50.0551 18.7109L49.6887 19.0451C49.777 19.1584 50.0541 19.7406 50.0541 19.7406L49.6719 19.9103L49.1046 19.5331L48.7805 19.9629C48.9059 20.1169 49.1991 20.5204 49.1991 20.5204L48.8327 20.8547L48.2388 20.5465L47.9148 20.9762L48.4289 21.4914L48.227 21.8098L47.5799 21.6396L47.2982 22.1649L47.9344 22.5686L47.7749 22.9826L47.0588 22.7858L46.8195 23.4067L47.5089 23.6725L47.3759 24.0174L46.649 24.0542C46.6418 24.2099 46.6221 24.5351 46.6008 24.5903C46.5795 24.6454 47.0515 24.7904 47.2902 24.856L47.2262 25.2276L46.5683 25.2909L46.5623 25.9225L47.236 26.0238C47.2465 26.1335 47.2409 26.4219 47.2409 26.4219C47.2409 26.4219 46.758 26.5791 46.5298 26.6232L46.6884 27.239L47.3463 27.1757C47.3887 27.2712 47.4468 27.5313 47.4468 27.5313L46.7514 27.8972L46.9789 28.5396L47.69 28.3383L47.8594 28.7206C47.6506 28.8514 47.1375 29.1554 47.1375 29.1554C47.1375 29.1554 47.275 29.5518 47.3916 29.7288L48.2248 29.4161L48.3942 29.7984L47.7146 30.3288L48.0643 30.8598L48.8552 30.4515L49.1201 30.7914L48.5518 31.4439L48.9546 31.8369L49.6342 31.3065L49.9681 31.673L49.5377 32.3787L49.9671 32.7027L50.6044 32.0767L50.9225 32.2786L50.6034 33.1065L51.1549 33.3191L51.6277 32.7089L52.0414 32.8684L51.8601 33.7494L52.3693 33.8665L52.6619 33.1076L53.1711 33.2246L53.1543 34.0898L53.6635 34.2069L53.9137 33.3524L54.354 33.4429C54.4121 33.703 54.5017 34.2923 54.5017 34.2923L54.9952 34.2448L55.0809 33.4061L55.6433 33.3852L55.86 34.2612L56.38 34.1447L56.3012 33.3219L56.8213 33.2054L57.229 33.9965L57.7067 33.7844L57.4635 32.9775L58.0101 32.792C58.1408 33.0009 58.54 33.4717 58.54 33.4717L58.9221 33.3021L58.6365 32.3996L59.0453 32.1609L59.7396 32.8248L60.0794 32.5596L59.6717 31.7685L60.0381 31.4343L60.8546 31.9867L61.1521 31.626L60.5798 30.8507L60.8507 30.5589L61.7204 30.9734L62.0444 30.5436L61.3235 29.9487L61.6475 29.519L62.4749 29.8379L62.73 29.3815L61.9135 28.8291L62.073 28.4151ZM61.4339 25.5538L57.4656 25.3711L57.3494 24.8509L60.8686 23.1171L61.4339 25.5538ZM57.1937 26.6927L60.5395 28.6956L61.2526 26.4348C60.0395 26.3634 57.3533 26.2788 57.3533 26.2788L57.1937 26.6927ZM58.3145 30.7698L56.4235 27.6636L56.7899 27.3294L59.9446 29.4172L58.3145 30.7698ZM55.2504 28.2416C55.2504 28.2416 55.2765 31.9126 55.3104 31.989L57.5127 31.4117C56.9284 30.394 55.6749 28.1675 55.6749 28.1675L55.2504 28.2416ZM52.0907 31.3026L54.0941 27.9543L54.4388 28.0872L54.419 32.0416L52.0907 31.3026ZM53.055 27.1575L49.6628 29.178L51.2476 30.8191L53.3889 27.524L53.055 27.1575ZM48.7055 26.1148L52.4936 26.1487L52.5675 26.5734L49.2127 28.2914L48.7055 26.1148ZM52.6965 24.8006L49.3242 22.8667L48.7066 25.0851L52.5636 25.1455L52.6965 24.8006ZM51.5177 20.4633L53.3978 23.8031L53.1536 24.0259L49.8078 22.0229L51.5177 20.4633ZM54.6241 23.0872L54.6754 19.4618L52.3086 20.055L54.173 23.2302L54.6241 23.0872ZM57.8262 20.1217L55.9183 23.4276L55.4357 23.2415L55.4712 19.4516L57.8262 20.1217ZM56.915 24.1288L60.2806 22.1773L58.6693 20.6052L56.6235 23.8579L56.915 24.1288Z" fill="#D4DDE1"/>
<defs>
<filter id="filter0_d_216_920" x="0.497925" y="0" width="146.394" height="46" filterUnits="userSpaceOnUse" color-interpolation-filters="sRGB">
<feFlood flood-opacity="0" result="BackgroundImageFix"/>
<feColorMatrix in="SourceAlpha" type="matrix" values="0 0 0 0 0 0 0 0 0 0 0 0 0 0 0 0 0 0 127 0" result="hardAlpha"/>
<feOffset dx="1" dy="2"/>
<feGaussianBlur stdDeviation="1"/>
<feComposite in2="hardAlpha" operator="out"/>
<feColorMatrix type="matrix" values="0 0 0 0 0 0 0 0 0 0 0 0 0 0 0 0 0 0 0.6 0"/>
<feBlend mode="normal" in2="BackgroundImageFix" result="effect1_dropShadow_216_920"/>
<feBlend mode="normal" in="SourceGraphic" in2="effect1_dropShadow_216_920" result="shape"/>
</filter>
</defs>
</svg>
