<svg width="99" height="46" viewBox="0 0 99 46" fill="none" xmlns="http://www.w3.org/2000/svg">
<g filter="url(#filter0_d_235_72)">
<path d="M95.8411 18C95.8411 18 76.3411 18 63.3411 18C63.3411 18 65.3411 7 54.8411 1" stroke="black"/>
<path d="M93.8411 18C93.8411 9.5 69.8411 16 67.8411 9.5C65.8411 3 73.8411 5.49997 75.3411 9.50002C81.8411 26.8336 62.8411 30 74.3411 39.5" stroke="black"/>
<path d="M95.8411 24C76.3411 22 72.3411 34.5 78.3411 37C84.3411 39.5001 88.3516 35.0701 87.3411 32C86.3305 28.9299 81.8411 29 81.8411 32" stroke="black"/>
<path d="M95.8411 21H5.84106" stroke="black"/>
<rect x="-0.25" y="0.25" width="41.5" height="41.5" rx="15.75" transform="matrix(-1 0 0 1 61.3411 0)" fill="#13121A" stroke="#323350" stroke-width="0.5"/>
<path d="M27.3411 1C25.8411 1 18.6592 4.99997 18.3411 15.5C18.1661 21.2733 16.8411 24 12.8411 24C8.84106 24 8.34106 17.5 3.84106 17.5C1.34106 17.5 0.841064 21 5.84106 21" stroke="black"/>
<circle r="2" transform="matrix(-1 0 0 1 12.3411 15.5)" stroke="black"/>
</g>
<path d="M40.6392 25.9457C38.5 19.5 50.6392 21.4456 47.1392 12.9457C45.2062 8.25124 35.0001 9.67317 35 13.6733C34.9999 17.6733 41.5 15.6732 39.5 10.1647" stroke="#D4DDE1" stroke-width="2"/>
<circle cx="42" cy="30" r="2" stroke="#D4DDE1" stroke-width="2"/>
<defs>
<filter id="filter0_d_235_72" x="0.497925" y="0" width="98.3942" height="46" filterUnits="userSpaceOnUse" color-interpolation-filters="sRGB">
<feFlood flood-opacity="0" result="BackgroundImageFix"/>
<feColorMatrix in="SourceAlpha" type="matrix" values="0 0 0 0 0 0 0 0 0 0 0 0 0 0 0 0 0 0 127 0" result="hardAlpha"/>
<feOffset dx="1" dy="2"/>
<feGaussianBlur stdDeviation="1"/>
<feComposite in2="hardAlpha" operator="out"/>
<feColorMatrix type="matrix" values="0 0 0 0 0 0 0 0 0 0 0 0 0 0 0 0 0 0 0.6 0"/>
<feBlend mode="normal" in2="BackgroundImageFix" result="effect1_dropShadow_235_72"/>
<feBlend mode="normal" in="SourceGraphic" in2="effect1_dropShadow_235_72" result="shape"/>
</filter>
</defs>
</svg>
