<svg width="148" height="46" viewBox="0 0 148 46" fill="none" xmlns="http://www.w3.org/2000/svg">
<g filter="url(#filter0_d_331_69)">
<path d="M2 18C2 18 21.5 18 34.5 18C34.5 18 32.5 7 43 1" stroke="black"/>
<path d="M4 18C4 9.5 28 16 30 9.5C32 3 24 5.49997 22.5 9.50002C16 26.8336 35 30 23.5 39.5" stroke="black"/>
<path d="M2 24C21.5 22 25.5 34.5 19.5 37C13.5 39.5001 9.48946 35.0701 10.5 32C11.5105 28.9299 16 29 16 32" stroke="black"/>
<path d="M2 21L140 21" stroke="black"/>
<rect x="36.25" y="0.25" width="89.5" height="41.5" rx="15.75" fill="#13121A" stroke="#323350" stroke-width="0.5"/>
<path d="M118.5 0.999939C120.5 0.999939 127.682 4.99994 128 15.5C128.175 21.2732 129 23.9999 133 23.9999C137 23.9999 137.5 17.4999 142 17.4999C144.5 17.4999 145 20.9999 140 20.9999" stroke="black"/>
<circle cx="133.5" cy="15.4999" r="2" stroke="black"/>
<path fill-rule="evenodd" clip-rule="evenodd" d="M89.7202 9.55305L89.3623 8L88.6464 8.11947C88.6067 8.63715 88.5271 9.79198 88.5271 9.79198L87.8113 9.91144L87.2148 8.47786L86.4989 8.71679L86.6182 10.1504L85.7831 10.2698L85.1866 9.07519L84.3514 9.43358L84.7093 10.7477L83.9935 11.1061L83.1583 9.91144L82.4425 10.3893L82.9197 11.8229C82.8004 11.9025 82.3232 12.1813 82.3232 12.1813L81.2494 11.2256L80.6529 11.7034L81.3688 13.0175L80.8915 13.4954C80.8915 13.4954 80.0564 12.9777 79.6985 12.6591L79.1019 13.2565L80.0564 14.4511L79.5792 14.929L78.3861 14.3317C78.227 14.5308 77.9089 15.0484 77.9089 15.0484L78.9826 15.8847L78.6247 16.6015L77.3123 16.1236L76.9545 16.9599L78.1475 17.7961L77.9089 18.5129L76.4772 18.274L76.3579 19.1103C76.6761 19.2297 77.551 19.5881 77.551 19.5881L77.4317 20.4244H76.1193V21.2606L77.3123 21.4996V22.3358L76 22.5748C76 22.5748 76.0398 23.0924 76.1193 23.2916L77.3124 23.411L77.4317 24.2473L76.3579 24.7251L76.4772 25.3225H77.6703L78.0282 26.1587L76.9545 26.756L77.1931 27.3534L78.3861 27.1144L78.744 27.9507L77.6703 28.6675C77.7896 28.8268 78.1475 29.2648 78.1475 29.2648C78.243 29.3604 79.2213 28.787 79.2213 28.787L79.8178 29.6232C79.619 29.8223 78.8633 30.4595 78.8633 30.4595L79.4599 31.0568L80.5336 30.4595L81.0109 31.0568L80.4143 31.893L81.0109 32.4904L81.9653 31.7736L82.5618 32.3709L82.0846 33.3266L82.8004 33.685C82.9198 33.4859 83.6356 32.7293 83.6356 32.7293L84.1128 33.2072L83.8742 34.2824L84.7093 34.5213C84.8684 34.2425 85.3059 33.5656 85.3059 33.5656L86.0217 33.924L85.9024 34.9991L86.7376 35.2381L87.2148 34.1629L87.8113 34.2824L87.9306 35.3575L88.8851 35.477L89.1237 34.2824H89.8395L89.9588 35.477H91.0326V34.2824H91.6291L92.1063 35.3575C92.3449 35.2779 92.846 35.1186 92.9415 35.1186C93.0369 35.1186 92.9812 34.3222 92.9415 33.924L93.538 33.8045L94.0152 34.7602L94.9697 34.4018L94.7311 33.3266C94.8901 33.247 95.3276 33.0877 95.3276 33.0877C95.3276 33.0877 95.8446 33.7248 96.0434 34.0434L96.8786 33.4461L96.4014 32.4904C96.5207 32.3709 96.8786 32.132 96.8786 32.132L97.833 32.9682L98.6682 32.2514L97.9523 31.2957L98.4296 30.8179C98.7477 31.0568 99.5033 31.6541 99.5033 31.6541C99.5033 31.6541 100.02 31.2161 100.219 30.9373L99.2647 29.8621L99.7419 29.3843L100.935 30.1011L101.532 29.2648L100.458 28.3091L100.816 27.7118L102.128 28.1896L102.486 27.3534L101.293 26.6366L101.651 25.9198L102.963 26.1587L103.202 25.3225L101.889 24.7251L102.009 24.1278H103.44V23.1721L102.247 22.8137V22.0969L103.679 21.858L103.56 21.0217H102.247L102.128 20.1855L103.44 19.7076L103.321 18.8713L101.889 18.9908L101.77 18.274C102.128 18.0351 102.963 17.5572 102.963 17.5572L102.605 16.8404L101.293 17.1988L100.935 16.3626L102.128 15.5263L101.651 14.8095L100.458 15.4068L99.9805 14.6901L100.935 13.6149L100.338 13.0175L99.2647 13.8538L98.6682 13.137C98.9068 12.8184 99.384 11.9424 99.384 11.9424L98.9068 11.4645L97.7137 12.4202L97.1172 11.9424L97.7137 10.5088L97.1172 10.1504L96.1627 11.2256L95.4469 10.8672L95.8048 9.31412L95.089 9.07519L94.2538 10.3893L93.6573 10.1504L93.7766 8.59733L92.9415 8.3584L92.4643 9.79198L91.6291 9.55305V8.11947L90.794 8L90.436 9.55305H89.7202ZM85.7831 12.1813L87.8113 18.274L87.0955 18.7519L82.4425 14.4511L85.7831 12.1813ZM89.9588 17.9156L91.0326 11.7034L87.2148 11.9424C87.8113 13.814 89.243 17.9156 89.243 17.9156H89.9588ZM95.4469 13.8538L91.8677 18.5129L91.1519 18.1545L92.4643 12.1813L95.4469 13.8538ZM93.4187 19.9465C93.4187 19.9465 98.9307 17.7723 99.0261 17.6767L96.8786 14.6901C95.6855 16.1635 93.0608 19.3492 93.0608 19.3492L93.4187 19.9465ZM99.8613 22.9332L93.6573 21.858V21.2606L99.6226 18.9908L99.8613 22.9332ZM93.0608 23.8889L98.0717 27.8312L99.6226 24.4862L93.4187 23.1721L93.0608 23.8889ZM94.0152 31.0568L91.8677 25.3225L92.4643 24.9641L96.9979 29.0259L94.0152 31.0568ZM89.7202 25.8003L88.7658 32.0125L92.4643 31.6541L90.3168 25.8003H89.7202ZM83.8742 30.1011L87.8113 25.3225L88.2885 25.5614L87.2148 31.7736L83.8742 30.1011ZM86.0217 23.8889L80.5336 25.9198L82.8005 29.1453L86.499 24.4862L86.0217 23.8889ZM79.6985 20.7828L85.7831 21.7385V22.5748L80.0564 24.7251L79.6985 20.7828ZM86.2603 19.8271L81.3688 15.8847L79.9371 19.2297L86.0217 20.4244L86.2603 19.8271Z" fill="#B3BDC1"/>
<path d="M62.0275 28.8318C64.8754 24.1818 67.2653 20.8836 69.6398 16.5579C70.7121 14.6044 69.6223 12.4406 69.453 11.5647C68.9689 9.05904 70.8806 7.88777 70.8806 7.88777L71.3624 11.2947L73.6868 12.1244L75.5628 10.7008L75.0811 7.29381C75.0811 7.29381 77.6779 8.21366 77.6886 11.0437C77.694 12.4795 77.3024 13.5873 76.0803 14.3601C74.7693 15.189 73.6882 15.5378 72.8017 16.883C69.8087 21.4249 67.5615 25.7326 64.6779 30.1302C63.7477 31.5488 61.1138 30.6342 62.0275 28.8318Z" fill="#B3BDC1"/>
</g>
<defs>
<filter id="filter0_d_331_69" x="0.948975" y="0" width="146.394" height="46" filterUnits="userSpaceOnUse" color-interpolation-filters="sRGB">
<feFlood flood-opacity="0" result="BackgroundImageFix"/>
<feColorMatrix in="SourceAlpha" type="matrix" values="0 0 0 0 0 0 0 0 0 0 0 0 0 0 0 0 0 0 127 0" result="hardAlpha"/>
<feOffset dx="1" dy="2"/>
<feGaussianBlur stdDeviation="1"/>
<feComposite in2="hardAlpha" operator="out"/>
<feColorMatrix type="matrix" values="0 0 0 0 0 0 0 0 0 0 0 0 0 0 0 0 0 0 0.6 0"/>
<feBlend mode="normal" in2="BackgroundImageFix" result="effect1_dropShadow_331_69"/>
<feBlend mode="normal" in="SourceGraphic" in2="effect1_dropShadow_331_69" result="shape"/>
</filter>
</defs>
</svg>
