<?xml version="1.0" encoding="utf-8"?>
<!-- Generator: Adobe Illustrator 25.3.1, SVG Export Plug-In . SVG Version: 6.00 Build 0)  -->
<svg version="1.1" id="Слой_1" xmlns="http://www.w3.org/2000/svg" xmlns:xlink="http://www.w3.org/1999/xlink" x="0px" y="0px"
	 viewBox="0 0 50 50" style="enable-background:new 0 0 50 50;" xml:space="preserve">
<g>
	<path d="M48.2,50l-23.9,0l-12,0l-6,0l-3,0l-1.5,0c-0.4,0-1-0.2-1.3-0.5C0.2,49.1,0,48.6,0,48.2l0-23.9l0-12l0-6l0-3l0-1.5
		c0-0.4,0.2-1,0.5-1.3C0.9,0.2,1.4,0,1.9,0l23.9,0l12,0l6,0l3,0l1.5,0c0.4,0,0.9,0.2,1.3,0.5C49.8,0.8,50,1.3,50,1.8l0,23.9l0,12
		l0,6l0,3l0,1.5c0,0.4-0.2,0.9-0.5,1.3C49.2,49.8,48.7,50,48.2,50z M48.2,48.2C48.2,48.2,48.3,48.3,48.2,48.2l0.1-1.6l0-3l0-6l0-12
		l0-23.9c0,0,0-0.1-0.1-0.1l-1.5,0l-3,0l-6,0l-12,0l-23.9,0c-0.1,0-0.1,0.1-0.1,0.1l0,1.5l0,3l0,6l0,12l0,23.9c0,0,0,0,0.1,0l1.5,0
		l3,0l6,0l12,0L48.2,48.2z"/>
</g>
</svg>
