<?xml version="1.0" encoding="UTF-8"?>
<!DOCTYPE svg PUBLIC "-//W3C//DTD SVG 1.1//EN" "http://www.w3.org/Graphics/SVG/1.1/DTD/svg11.dtd">
<!-- Creator: CorelDRAW 2018 -->
<svg xmlns="http://www.w3.org/2000/svg" xml:space="preserve" width="160mm" height="100mm" version="1.1" style="shape-rendering:geometricPrecision; text-rendering:geometricPrecision; image-rendering:optimizeQuality; fill-rule:evenodd; clip-rule:evenodd"
viewBox="0 0 16000 10000"
 xmlns:xlink="http://www.w3.org/1999/xlink">
 <defs>
  <style type="text/css">
   <![CDATA[
    .str0 {stroke:#2B2A29;stroke-width:7.62;stroke-miterlimit:22.9256}
    .fil1 {fill:none}
    .fil0 {fill:#1C1B17}
    .fil2 {fill:#1C1B17;fill-rule:nonzero}
   ]]>
  </style>
 </defs>
 <g id="Обрисовка">
  <metadata id="CorelCorpID_0Corel-Layer"/>
  <g id="_787068480">
   <g>
    <path class="fil0" d="M7020.65 8882.33l1129.72 -3150.06 478.97 -1360.86 195.6 -555.73 -4879.95 0 284.32 602.11 2950.38 0c634.14,0 635.51,473.45 294.53,1224.21 -315.83,553.32 -791.27,1003.83 -1363.56,1288.78 -186.73,92.97 -383.77,168.31 -588.95,223.86l240.8 509.92c202.1,-60.48 524.47,-201.92 710.75,-293.83 108.31,-53.43 86.3,-47.47 188.43,-110.67 102.12,-63.19 201.03,-131.17 296.38,-203.56 -302.75,849.52 -413.53,1384.1 -740.54,1380.15 -314.07,-3.79 -822.36,-1322.32 -972.01,-1643.25l-1114.64 -2375.61 -1391.93 -2989.04 -201.26 -427.72 -416.42 -893.03 -735.79 0 623.57 1320.48 170.81 361.71 2749.91 5823.3 1078.92 2284.75 649.6 -0.96 67.52 -192.8 294.84 -822.15zm-294.84 822.15l294.84 -822.15 -294.84 822.15zm-5897.13 -5286.69l0 -602.11 -733.32 0 0 602.11 733.32 0zm2494.96 0l-280.75 -602.11 -1496.41 0 0 602.11 1777.16 0zm-1841.27 -24.42c-21.95,-193.02 -27.61,-398.66 -13.58,-592.82 29.82,-412.61 151.37,-808.9 322.34,-1163.77 112.95,-234.48 243.63,-432.79 407.6,-631.47l-256.17 -549.38c-169.33,178.55 -318.75,372.67 -450.83,581.64 -1434.12,2269 -37.89,5410.63 2714.72,5755.36 155.03,19.42 312.98,29.42 473.26,29.42 76.65,0 152.76,-2.29 228.28,-6.8l-256.28 -549.61c-1587,-13.61 -2987.93,-1277.33 -3169.34,-2872.57zm1675.64 -3794.79c-203.71,89.96 -397.98,197.42 -580.88,320.47l240.77 509.88c179.04,-127.4 391.63,-256.86 595.27,-345.88 393.96,-172.24 580.11,-247.85 1266.54,-247.85 686.43,0 1741.69,382.78 2327.35,996.99l715.13 -10.88c-686.48,-935.2 -1793.7,-1542.4 -3042.48,-1542.4 -541.42,0 -1056.24,114.15 -1521.7,319.67z"/>
    <path id="1" class="fil1 str0" d="M7020.65 8882.33l1129.72 -3150.06 478.97 -1360.86 195.6 -555.73 -4879.95 0 284.32 602.11 2950.38 0c634.14,0 635.51,473.45 294.53,1224.21 -315.83,553.32 -791.27,1003.83 -1363.56,1288.78 -186.73,92.97 -383.77,168.31 -588.95,223.86l240.8 509.92c202.1,-60.48 524.47,-201.92 710.75,-293.83 108.31,-53.43 86.3,-47.47 188.43,-110.67 102.12,-63.19 201.03,-131.17 296.38,-203.56 -302.75,849.52 -413.53,1384.1 -740.54,1380.15 -314.07,-3.79 -822.36,-1322.32 -972.01,-1643.25l-1114.64 -2375.61 -1391.93 -2989.04 -201.26 -427.72 -416.42 -893.03 -735.79 0 623.57 1320.48 170.81 361.71 2749.91 5823.3 1078.92 2284.75 649.6 -0.96 67.52 -192.8m0 0l294.84 -822.15 -294.84 822.15zm-5897.13 -5286.69l0 -602.11 -733.32 0 0 602.11 733.32 0zm2494.96 0l-280.75 -602.11 -1496.41 0 0 602.11 1777.16 0zm-1841.27 -24.42c-21.95,-193.02 -27.61,-398.66 -13.58,-592.82 29.82,-412.61 151.37,-808.9 322.34,-1163.77 112.95,-234.48 243.63,-432.79 407.6,-631.47l-256.17 -549.38c-169.33,178.55 -318.75,372.67 -450.83,581.64 -1434.12,2269 -37.89,5410.63 2714.72,5755.36 155.03,19.42 312.98,29.42 473.26,29.42 76.65,0 152.76,-2.29 228.28,-6.8l-256.28 -549.61c-1587,-13.61 -2987.93,-1277.33 -3169.34,-2872.57zm1675.64 -3794.79c-203.71,89.96 -397.98,197.42 -580.88,320.47l240.77 509.88c179.04,-127.4 391.63,-256.86 595.27,-345.88 393.96,-172.24 580.11,-247.85 1266.54,-247.85 686.43,0 1741.69,382.78 2327.35,996.99l715.13 -10.88c-686.48,-935.2 -1793.7,-1542.4 -3042.48,-1542.4 -541.42,0 -1056.24,114.15 -1521.7,319.67z"/>
   </g>
   <path class="fil2" d="M6900.81 1916l374.9 0c249.93,0 416.01,8.3 498.14,25.28 82.12,16.98 138.05,60.38 167.95,129.8 29.76,69.8 16.25,180.73 -40.83,333.54 -52,139.22 -106.72,232.8 -164.12,280.71 -56.97,47.92 -145.42,76.59 -264.89,86.03 96.2,23.01 155.63,53.57 177.33,92.06 21.4,38.12 31.06,73.2 27.68,105.27 -2.97,32.07 -31.64,120.36 -85.62,264.87l-176.3 472.01 -491.71 0 222.1 -594.63c35.8,-95.84 48.9,-155.07 40.33,-178.09 -8.72,-22.64 -49.45,-34.33 -122.02,-34.33l-301.44 807.05 -529.92 0 668.42 -1789.57zm415.63 305.99l-148.68 398.07c59.25,0 103.59,-7.16 132.99,-21.51 29.41,-14.33 58.91,-61.12 88.36,-139.97l36.64 -98.11c21.28,-56.98 23.49,-93.94 6.93,-111.68 -16.57,-17.73 -55.27,-26.8 -116.24,-26.8zm1886.56 -305.99l-365.24 1789.57 -542.38 0 94.03 -321.85 -190.25 0 -151.56 321.85 -548.39 0 937.69 -1789.57 766.1 0zm-710.25 1150.79c48.62,-202.61 115.57,-453.14 199.71,-750.84 -181.5,342.21 -308.43,592.38 -380.93,750.84l181.22 0z"/>
   <path class="fil2" d="M8924.27 3828.49l925.19 0 -126.99 356.63 -370.17 0 -120.3 337.84 346.33 0 -120.83 339.34 -346.33 0 -139.57 391.96 407.05 0 -126.99 356.63 -962.07 0 634.68 -1782.4zm1121.3 0l392.65 0c261.77,0 436.03,8.27 522.66,25.18 86.64,16.91 146.81,60.13 180.66,129.28 33.71,69.52 23.62,180 -30.58,332.2 -49.37,138.67 -103.26,231.86 -161.63,279.58 -57.92,47.73 -149.51,76.29 -274.3,85.69 101.6,22.92 164.97,53.36 189.1,91.69 23.81,37.97 35.21,72.91 32.84,104.85 -1.94,31.94 -28.74,119.88 -79.99,263.81l-167.41 470.12 -515 0 210.89 -592.25c33.99,-95.46 45.55,-154.45 35.73,-177.38 -9.96,-22.54 -53.05,-34.19 -129.05,-34.19l-286.23 803.82 -555.02 0 634.68 -1782.4zm446.5 304.76l-141.18 396.48c62.06,0 108.24,-7.14 138.5,-21.43 30.28,-14.27 59.47,-60.88 87.43,-139.41l34.8 -97.71c20.2,-56.75 21.17,-93.57 3.17,-111.24 -18,-17.66 -58.86,-26.69 -122.72,-26.69z"/>
   <g id="_787069080">
    <path class="fil0" d="M10125 3705.57l695 0 467.24 -1408.22c873.78,14.06 1397.67,35.25 1691.64,672.2 293.96,636.95 120.1,1428.14 41.71,1628.28 -56.28,143.71 -115.18,322.53 -236.22,547.09l155.88 872.09 9.47 -10.05c386,-412.15 566.07,-786.47 711.8,-1171.48 145.75,-385.01 332.02,-1497.08 -74.29,-2193.55 -508.54,-887.58 -998.81,-904.91 -2794.53,-910.2l-667.7 1973.84z"/>
    <path class="fil0" d="M11442.93 6103.55c-467.55,75.61 -867.88,75.26 -1437.77,57.85l142.39 -429.13 -708.13 0 -341.56 1009.71c938.92,-8.06 1661.93,49.27 2319.18,-10.85 282.53,-25.84 534.04,-87.11 759.65,-181.32l-113.36 -649.68c-190.85,99.82 -403.71,168.38 -620.4,203.42z"/>
    <polygon class="fil0" points="12282.53,6518.58 12412.84,7196.19 13168.97,7196.19 15926.66,2192.33 15226.12,2192.33 12902.1,6473.41 12840.72,6116.42 12479.55,4015.96 11801.25,4015.96 "/>
   </g>
  </g>
 </g>
</svg>
