<svg width="145" height="97" viewBox="0 0 145 97" fill="none" xmlns="http://www.w3.org/2000/svg">
<path d="M29.6719 37V36.208C30.3199 36.208 30.8119 36.016 31.1479 35.632C31.3399 35.392 31.4719 35.068 31.5439 34.66C31.5679 34.516 31.6399 33.772 31.7599 32.428C31.8559 31.3 31.9039 29.188 31.9039 26.092C31.9279 23.14 31.9039 21.256 31.8319 20.44C31.8079 19.888 31.7599 19.336 31.6879 18.784C31.6399 18.208 31.4959 17.752 31.2559 17.416C30.8959 16.96 30.3199 16.732 29.5279 16.732V15.976H40.9759V21.988H40.2199C40.1719 18.484 39.0439 16.732 36.8359 16.732C35.5159 16.732 34.8079 17.884 34.7119 20.188L34.5679 23.572C35.8159 23.572 36.6439 23.332 37.0519 22.852C37.4119 22.444 37.6519 21.544 37.7719 20.152H38.5639V33.076H37.6999C37.5559 30.076 37.4239 28.276 37.3039 27.676C37.0399 26.404 36.6919 25.54 36.2599 25.084C35.8279 24.628 35.2639 24.4 34.5679 24.4C34.4719 27.544 34.4239 29.548 34.4239 30.412C34.3279 33.556 34.5319 35.368 35.0359 35.848C35.3959 36.112 35.9359 36.244 36.6559 36.244C36.8479 36.244 37.0639 36.232 37.3039 36.208C38.3839 36.208 39.1759 35.812 39.6799 35.02C40.1839 34.228 40.4599 32.872 40.5079 30.952H41.2639V37H29.6719Z" fill="#D4DDE1"/>
<path d="M51.9275 26.524C51.3035 26.764 50.5715 26.884 49.7315 26.884C49.4195 26.884 49.0715 26.932 48.6875 27.028C48.3275 27.1 47.9435 27.088 47.5355 26.992C47.5115 27.256 47.4995 27.604 47.4995 28.036C47.4995 28.468 47.4875 29.116 47.4635 29.98C47.3435 33.628 47.5235 35.608 48.0035 35.92C48.4835 36.256 49.0115 36.364 49.5875 36.244V37.036H42.6395V36.244C43.3835 36.244 43.8995 36.076 44.1875 35.74C44.4035 35.524 44.6075 34.432 44.7995 32.464C44.8475 31.936 44.8835 31.144 44.9075 30.088C44.9315 29.032 44.9555 27.7 44.9795 26.092C45.0035 24.676 45.0035 23.512 44.9795 22.6C44.9795 21.664 44.9675 20.956 44.9435 20.476C44.8715 18.82 44.6915 17.788 44.4035 17.38C44.1155 16.972 43.5275 16.768 42.6395 16.768V16.012C45.2315 15.988 47.6435 15.988 49.8755 16.012C51.3395 16.012 52.5635 16.552 53.5475 17.632C54.4595 18.64 54.9275 19.84 54.9515 21.232C54.9755 22.552 54.6995 23.68 54.1235 24.616C53.5715 25.552 52.8395 26.188 51.9275 26.524ZM52.1435 21.772C52.2155 18.988 51.5315 17.356 50.0915 16.876C49.5155 16.732 48.7475 16.708 47.7875 16.804L47.5355 25.804C48.8555 25.804 49.8635 25.6 50.5595 25.192C51.5675 24.568 52.0955 23.428 52.1435 21.772Z" fill="#D4DDE1"/>
<path d="M56.5312 37V36.208C57.1793 36.208 57.6713 36.016 58.0073 35.632C58.1993 35.392 58.3313 35.068 58.4033 34.66C58.4273 34.516 58.4993 33.772 58.6193 32.428C58.7153 31.3 58.7632 29.188 58.7632 26.092C58.7872 23.14 58.7632 21.256 58.6912 20.44C58.6672 19.888 58.6192 19.336 58.5472 18.784C58.4992 18.208 58.3552 17.752 58.1152 17.416C57.7552 16.96 57.1792 16.732 56.3872 16.732V15.976H67.8353V21.988H67.0792C67.0312 18.484 65.9033 16.732 63.6953 16.732C62.3753 16.732 61.6673 17.884 61.5713 20.188L61.4272 23.572C62.6752 23.572 63.5033 23.332 63.9113 22.852C64.2713 22.444 64.5112 21.544 64.6312 20.152H65.4232V33.076H64.5592C64.4152 30.076 64.2833 28.276 64.1633 27.676C63.8993 26.404 63.5513 25.54 63.1193 25.084C62.6873 24.628 62.1232 24.4 61.4272 24.4C61.3312 27.544 61.2832 29.548 61.2832 30.412C61.1872 33.556 61.3912 35.368 61.8952 35.848C62.2552 36.112 62.7953 36.244 63.5153 36.244C63.7073 36.244 63.9233 36.232 64.1633 36.208C65.2433 36.208 66.0353 35.812 66.5393 35.02C67.0433 34.228 67.3192 32.872 67.3672 30.952H68.1233V37H56.5312Z" fill="#D4DDE1"/>
<path d="M78.7868 26.524C78.1628 26.764 77.4308 26.884 76.5908 26.884C76.2788 26.884 75.9308 26.932 75.5468 27.028C75.1868 27.1 74.8028 27.088 74.3948 26.992C74.3708 27.256 74.3588 27.604 74.3588 28.036C74.3588 28.468 74.3468 29.116 74.3228 29.98C74.2028 33.628 74.3828 35.608 74.8628 35.92C75.3428 36.256 75.8708 36.364 76.4468 36.244V37.036H69.4988V36.244C70.2428 36.244 70.7588 36.076 71.0468 35.74C71.2628 35.524 71.4668 34.432 71.6588 32.464C71.7068 31.936 71.7428 31.144 71.7668 30.088C71.7908 29.032 71.8148 27.7 71.8388 26.092C71.8628 24.676 71.8628 23.512 71.8388 22.6C71.8388 21.664 71.8268 20.956 71.8028 20.476C71.7308 18.82 71.5508 17.788 71.2628 17.38C70.9748 16.972 70.3868 16.768 69.4988 16.768V16.012C72.0908 15.988 74.5028 15.988 76.7348 16.012C78.1988 16.012 79.4228 16.552 80.4068 17.632C81.3188 18.64 81.7868 19.84 81.8108 21.232C81.8348 22.552 81.5588 23.68 80.9828 24.616C80.4308 25.552 79.6988 26.188 78.7868 26.524ZM79.0028 21.772C79.0748 18.988 78.3908 17.356 76.9508 16.876C76.3748 16.732 75.6068 16.708 74.6468 16.804L74.3948 25.804C75.7148 25.804 76.7228 25.6 77.4188 25.192C78.4268 24.568 78.9548 23.428 79.0028 21.772Z" fill="#D4DDE1"/>
<path d="M88.3226 36.136C89.3306 36.256 90.1466 36.232 90.7706 36.064C91.4666 35.608 91.9946 34.984 92.3546 34.192C92.7146 33.376 92.8946 32.524 92.8946 31.636C92.8946 30.724 92.7146 29.824 92.3546 28.936C91.9946 28.024 91.4426 27.244 90.6986 26.596C90.6026 26.5 90.4706 26.368 90.3026 26.2C90.1586 26.032 89.9546 25.828 89.6906 25.588C88.9946 24.724 88.7306 23.8 88.8986 22.816C88.9706 22.528 89.0666 22.24 89.1866 21.952C89.3066 21.664 89.4626 21.412 89.6546 21.196C89.8466 20.956 90.0626 20.776 90.3026 20.656C90.5666 20.512 90.8546 20.452 91.1666 20.476C91.7906 20.548 92.1626 20.752 92.2826 21.088C92.4266 21.4 92.3186 21.592 91.9586 21.664C91.3346 21.784 90.8306 22.012 90.4466 22.348C90.0866 22.684 89.8586 23.056 89.7626 23.464C89.6906 23.848 89.7626 24.232 89.9786 24.616C90.1946 25 90.5906 25.3 91.1666 25.516C92.9186 26.236 94.1426 27.136 94.8386 28.216C95.5346 29.296 95.8706 30.496 95.8466 31.816C95.8226 33.208 95.3546 34.408 94.4426 35.416C93.9626 35.968 93.3746 36.376 92.6786 36.64C92.0066 36.904 91.2986 37.036 90.5546 37.036C88.2746 37.084 85.8146 37.084 83.1746 37.036V36.28C84.0626 36.28 84.6506 36.076 84.9386 35.668C85.2266 35.284 85.4066 34.252 85.4786 32.572C85.5026 32.092 85.5146 31.396 85.5146 30.484C85.5386 29.572 85.5386 28.396 85.5146 26.956C85.4906 25.348 85.4666 24.016 85.4426 22.96C85.4186 21.904 85.3826 21.112 85.3346 20.584C85.1666 18.64 84.9626 17.548 84.7226 17.308C84.4346 16.972 83.9186 16.804 83.1746 16.804V16.012H90.1226V16.804C89.5466 16.684 89.0186 16.792 88.5386 17.128C88.0586 17.464 87.8786 19.444 87.9986 23.068C87.9986 23.5 87.9986 23.944 87.9986 24.4C88.0226 24.832 88.0346 25.24 88.0346 25.624C88.0346 25.984 88.0346 26.308 88.0346 26.596C88.0586 26.884 88.0706 27.1 88.0706 27.244L88.3226 36.136ZM102.651 15.94V16.696C102.051 16.696 101.571 16.924 101.211 17.38C100.947 17.668 100.767 18.136 100.671 18.784C100.671 18.832 100.623 19.396 100.527 20.476C100.455 21.292 100.431 23.14 100.455 26.02C100.479 29.044 100.551 31.144 100.671 32.32C100.791 33.736 100.851 34.492 100.851 34.588C100.923 35.068 101.067 35.416 101.283 35.632C101.571 35.992 102.015 36.172 102.615 36.172V36.964H95.7386V36.172C96.3626 36.172 96.8306 35.992 97.1426 35.632C97.3346 35.416 97.4546 35.068 97.5026 34.588C97.5746 33.844 97.6346 33.088 97.6826 32.32C97.7786 31.144 97.8386 29.044 97.8626 26.02C97.8866 23.14 97.8626 21.292 97.7906 20.476C97.7666 19.924 97.7426 19.372 97.7186 18.82C97.6226 18.172 97.4546 17.692 97.2146 17.38C96.8546 16.924 96.3626 16.696 95.7386 16.696V15.94H102.651Z" fill="#D4DDE1"/>
<path d="M115.721 35.812C114.809 36.604 113.021 37 110.357 37H103.949V36.244C104.813 36.004 105.329 35.788 105.497 35.596C105.689 35.38 105.821 35.092 105.893 34.732C105.917 34.564 105.989 33.856 106.109 32.608C106.205 31.432 106.265 29.224 106.289 25.984C106.313 22.864 106.289 20.896 106.217 20.08C106.193 19.624 106.157 19.156 106.109 18.676C106.061 18.172 105.905 17.764 105.641 17.452C105.281 16.972 104.705 16.732 103.913 16.732V15.976H110.681C114.113 15.976 115.709 17.68 115.469 21.088C115.421 22.024 115.061 22.828 114.389 23.5C113.861 24.076 113.249 24.448 112.553 24.616C113.729 24.736 114.785 25.252 115.721 26.164C116.849 27.244 117.425 28.684 117.449 30.484C117.497 32.98 116.921 34.756 115.721 35.812ZM108.773 30.016C108.773 31.984 108.833 33.268 108.953 33.868C109.265 35.452 110.009 36.244 111.185 36.244C113.489 36.244 114.593 34.24 114.497 30.232C114.425 26.992 113.105 25.324 110.537 25.228C110.153 25.204 109.589 25.204 108.845 25.228C108.797 26.932 108.773 28.528 108.773 30.016ZM108.845 24.328C108.845 24.328 109.301 24.328 110.213 24.328C112.013 24.328 112.997 23.296 113.165 21.232C113.213 20.872 113.237 20.536 113.237 20.224C113.237 17.944 112.445 16.78 110.861 16.732C110.333 16.708 109.889 16.972 109.529 17.524C109.193 18.076 109.013 18.784 108.989 19.648C108.917 20.584 108.869 22.144 108.845 24.328Z" fill="#D4DDE1"/>
<path d="M20.232 48.036V47.28C20.232 47.28 18.2877 47.6508 17.1028 46C16.1668 44.696 17.2182 42.3846 18.1028 41.5C18.9874 40.6154 19.7525 39.646 22.4061 39.646C22.4081 39.3869 22.4101 39.1205 22.4121 38.8485C20.5821 38.7886 18.2629 38.8399 16.6028 40.5C14.6028 42.5 14.9179 45.188 15.6028 46.304C16.7454 48.1659 20.232 48.036 20.232 48.036Z" fill="#D4DDE1"/>
<path d="M25.2471 39.3653C25.2487 39.7386 25.2502 40.0968 25.2518 40.4341C25.6788 40.5966 26.6719 41.2073 27.1028 41.5C30.7827 44 32.9569 46.0694 36.3204 48.6376C38.2535 50.1136 40.3943 51.2241 42.6028 52C45.8983 53.1578 50.4434 52.4323 51.6028 50.5C51.2238 48.8839 50.9818 47.852 50.6028 46.236C50.6028 48.5 49.7436 52.2136 43.1028 50C41.6028 49.5 38.1028 47.5 34.6028 45C32.9453 43.8161 30.8019 42.0996 28.6028 41C27.3953 40.3963 26.5896 39.7827 25.2471 39.3653Z" fill="#D4DDE1"/>
<path d="M50.6028 46.236C50.9933 47.9012 51.6028 50.5 51.6028 50.5C53.1028 48 52.7613 45.7924 52.6028 45C52.4443 44.2076 51.5824 42.7951 50.1028 42C47.4829 40.5922 43.2074 41.2386 42.1028 44C41.5226 45.4504 41.6928 46.7934 42.6395 48.036C43.6153 49.3168 46.13 49.6508 47.6028 49C48.8907 48.4309 49.1028 47 49.1028 46C49.1028 45.9029 49.1028 45.5 49.1028 45.5H45.6028L45.6395 46.036C45.6395 46.036 48.027 46.3578 47.6395 47.036C46.9613 48.2227 45.106 48.5025 44.1395 47.536C43.173 46.5695 43.1028 45.804 43.6028 44.5C44.3225 42.6229 46.7491 42.222 48.6028 43C49.9726 43.5749 50.6028 44.5 50.6028 46.236Z" fill="#D4DDE1"/>
<path d="M25.128 14.968C25.152 14.104 25.188 13.812 25.236 13.5C26.1028 13.796 26.6028 14 27.9988 14.356C28.6228 14.452 29.1868 14.5 29.6908 14.5C30.1708 14.5 30.6268 14.452 31.0588 14.356C31.5148 14.236 31.9108 14.08 32.2468 13.888C32.5828 13.672 32.8468 13.432 33.0388 13.168C33.2548 12.88 33.3628 12.568 33.3628 12.232C33.3628 11.992 33.3028 11.752 33.1828 11.512C33.0628 11.272 32.9068 11.056 32.7148 10.864C32.5228 10.672 32.3188 10.528 32.1028 10.432C31.8868 10.312 31.6708 10.252 31.4548 10.252C31.5268 10.444 31.5628 10.612 31.5628 10.756C31.5628 11.308 31.3228 11.836 30.8428 12.34C30.3628 12.82 29.8507 13 29.1028 13C28.3549 13 27.4868 12.62 27.1028 12.5C26.7188 12.38 25.812 11.98 25.02 11.692C24.228 11.404 23.34 11.068 22.356 10.684C21.372 10.3 20.34 9.90397 19.26 9.49597C18.204 9.06397 17.208 8.66797 16.272 8.30797C15.36 7.92397 14.556 7.59997 13.86 7.33597C13.188 7.07197 12.756 6.90397 12.564 6.83197C11.34 6.42397 10.212 6.08797 9.18 5.82397C8.148 5.53597 7.236 5.39197 6.444 5.39197C5.58 5.39197 4.764 5.52397 3.996 5.78797C3.228 6.05197 2.544 6.42397 1.944 6.90397C1.368 7.38397 0.9 7.95997 0.54 8.63197C0.204 9.27997 0.024 9.98797 0 10.756C0 12.1 0.228 13.408 0.684 14.68C1.164 15.928 1.8 17.044 2.592 18.028C3.408 18.988 4.332 19.768 5.364 20.368C6.42 20.944 7.524 21.232 8.676 21.232C9.972 21.232 11.004 20.92 11.772 20.296C12.564 19.648 12.96 18.712 12.96 17.488C12.96 16.696 12.708 15.94 12.204 15.22C11.724 14.476 11.124 13.828 10.404 13.276C9.708 12.724 8.964 12.292 8.172 11.98C7.404 11.644 6.72 11.476 6.12 11.476C5.496 11.476 4.968 11.632 4.536 11.944C4.128 12.232 3.924 12.652 3.924 13.204C3.924 13.804 4.152 14.332 4.608 14.788C4.608 14.284 4.764 13.816 5.076 13.384C5.412 12.952 5.844 12.736 6.372 12.736C6.828 12.736 7.296 12.868 7.776 13.132C8.256 13.372 8.7 13.696 9.108 14.104C9.516 14.512 9.852 14.992 10.116 15.544C10.38 16.096 10.512 16.672 10.512 17.272C10.512 19.12 9.732 20.044 8.172 20.044C7.308 20.044 6.48 19.84 5.688 19.432C4.896 19.024 4.2 18.472 3.6 17.776C3.024 17.08 2.556 16.276 2.196 15.364C1.86 14.428 1.692 13.456 1.692 12.448C1.692 11.464 2.088 10.516 2.88 9.60397C3.528 8.83597 4.236 8.34397 5.004 8.12797C5.796 7.91197 6.732 7.80397 7.812 7.80397C8.556 7.80397 9.312 7.87597 10.08 8.01997C10.848 8.13997 11.628 8.33197 12.42 8.59597C12.54 8.66797 12.648 8.82397 12.744 9.06397C12.864 9.30397 12.972 9.61597 13.068 9.99997C13.164 10.36 13.236 10.78 13.284 11.26C13.356 11.74 13.416 12.232 13.464 12.736C13.488 13.048 13.5 13.66 13.5 14.572C13.524 15.484 13.536 16.72 13.536 18.28C13.56 22.192 13.548 25.348 13.5 27.748C13.452 30.148 13.404 31.672 13.356 32.32C13.284 33.184 13.212 33.868 13.14 34.372C13.092 34.876 12.996 35.272 12.852 35.56C12.708 35.824 12.504 36.004 12.24 36.1C12 36.172 11.664 36.22 11.232 36.244V37H18.468V36.244C18.036 36.124 17.7 36.016 17.46 35.92C17.22 35.824 17.04 35.728 16.92 35.632C16.8 35.512 16.716 35.38 16.668 35.236C16.62 35.068 16.584 34.864 16.56 34.624C16.56 34.456 16.548 34.312 16.524 34.192C16.5 34.072 16.476 33.856 16.452 33.544C16.428 33.208 16.392 32.728 16.344 32.104C16.296 31.48 16.26 30.592 16.236 29.44C16.212 28.288 16.188 26.812 16.164 25.012C16.14 23.212 16.128 20.968 16.128 18.28C16.128 15.208 16.164 13.36 16.236 12.736C16.284 12.184 16.332 11.728 16.38 11.368C16.428 11.008 16.476 10.732 16.524 10.54C17.748 10.804 18.864 11.128 19.872 11.512C20.88 11.872 21.744 12.172 22.464 12.412C22.488 12.796 22.5 13.504 22.5 14.536C22.524 15.568 22.536 16.888 22.536 18.496C22.56 22.48 22.548 25.684 22.5 28.108C22.4707 29.5879 22.4414 34.8368 22.4121 38.8485C23.3611 38.8795 24.313 39.0749 25.2471 39.3653C25.2314 35.5607 25.2157 30.1942 25.2 29.44C25.176 28.264 25.152 26.8 25.128 25.048V18.532V14.968Z" fill="#D4DDE1"/>
<path d="M22.4121 38.8485L22.4061 39.646C23.2225 39.77 24.1628 40.0196 25.2518 40.4341L25.2471 39.3653C24.313 39.0749 23.3611 38.8795 22.4121 38.8485Z" fill="#D4DDE1"/>
<path d="M25.38 44.688C25.356 44.328 25.32 43.824 25.272 43.176C25.2653 42.9871 25.2585 41.9103 25.2518 40.4341C24.1628 40.0196 23.2225 39.77 22.4061 39.646C22.3894 41.8245 22.3727 43.4904 22.356 43.716C22.284 44.388 22.224 44.952 22.176 45.408C22.128 45.84 22.044 46.2 21.924 46.488C21.804 46.752 21.612 46.944 21.348 47.064C21.084 47.184 20.712 47.256 20.232 47.28V48.036H27.468V47.244C26.988 47.124 26.628 47.016 26.388 46.92C26.148 46.8 25.968 46.692 25.848 46.596C25.728 46.476 25.656 46.356 25.632 46.236L25.56 45.804C25.536 45.684 25.5 45.552 25.452 45.408C25.428 45.264 25.404 45.024 25.38 44.688Z" fill="#D4DDE1"/>
<path d="M76.5236 41.992C76.2836 42.36 76.1156 43.04 76.0196 44.032C75.8756 45.776 75.8756 48.376 76.0196 51.832C76.0676 53.016 76.2356 53.776 76.5236 54.112C76.7476 54.368 77.0836 54.496 77.5316 54.496V55.024H72.8036V54.496C73.1716 54.496 73.4836 54.36 73.7396 54.088C74.0116 53.8 74.1636 53.08 74.1956 51.928L74.3156 47.32H70.7396C70.7236 49.304 70.7396 50.824 70.7876 51.88C70.7876 52.968 70.9556 53.704 71.2916 54.088C71.5156 54.36 71.8276 54.496 72.2276 54.496L72.2036 55.024H67.5476V54.496C67.9636 54.512 68.2996 54.376 68.5556 54.088C68.7636 53.832 68.8836 53.096 68.9156 51.88C69.0596 47.88 69.0916 45.264 69.0116 44.032C68.9316 42.896 68.7796 42.176 68.5556 41.872C68.3796 41.632 68.0196 41.512 67.4756 41.512V41.008H72.2996V41.512C71.8196 41.512 71.4596 41.672 71.2196 41.992C71.0436 42.2 70.9316 42.504 70.8836 42.904C70.8516 43.288 70.8196 43.672 70.7876 44.056C70.7556 44.44 70.7396 45.304 70.7396 46.648H74.3156C74.3156 45.288 74.2996 44.424 74.2676 44.056C74.2516 43.672 74.2276 43.288 74.1956 42.904C74.1636 42.504 74.0596 42.2 73.8836 41.992C73.6436 41.672 73.2676 41.512 72.7556 41.512L72.7796 41.008H77.5316V41.512C77.0676 41.512 76.7316 41.672 76.5236 41.992ZM87.7541 40.936V41.464C87.3381 41.464 87.0341 41.528 86.8421 41.656C86.6661 41.784 86.5381 41.952 86.4581 42.16C86.3941 42.368 86.3621 42.608 86.3621 42.88C86.3621 43.136 86.3381 43.392 86.2901 43.648C86.2261 44.16 86.1781 44.816 86.1461 45.616C86.1301 46.4 86.1221 47.344 86.1221 48.448C86.1221 49.536 86.1221 50.464 86.1221 51.232C86.1221 51.984 86.1621 52.6 86.2421 53.08C86.3221 53.56 86.4501 53.912 86.6261 54.136C86.8181 54.36 87.0981 54.472 87.4661 54.472V55H83.0741V54.472C83.8101 54.472 84.2101 54.104 84.2741 53.368C84.2901 53.272 84.3301 52.752 84.3941 51.808C84.4581 50.864 84.4901 49.408 84.4901 47.44H81.5621C81.3861 48.192 81.2101 49.008 81.0341 49.888C80.8581 50.752 80.6581 51.616 80.4341 52.48C80.1461 53.664 79.8341 54.792 79.4981 55.864C79.1781 56.936 78.8501 57.872 78.5141 58.672C78.1941 59.488 77.8821 60.128 77.5781 60.592C77.2581 61.072 76.9541 61.312 76.6661 61.312C76.3621 61.312 76.1221 61.136 75.9461 60.784C75.7701 60.432 75.6821 60.032 75.6821 59.584C75.6821 59.216 75.7141 58.872 75.7781 58.552C75.8421 58.248 75.9301 57.976 76.0421 57.736L76.4981 57.76C76.4821 57.84 76.4741 57.912 76.4741 57.976C76.4581 58.056 76.4501 58.136 76.4501 58.216C76.4501 58.648 76.6021 58.864 76.9061 58.864C77.1621 58.864 77.4181 58.68 77.6741 58.312C77.9301 57.944 78.1781 57.456 78.4181 56.848C78.6741 56.24 78.9221 55.536 79.1621 54.736C79.4021 53.936 79.6261 53.104 79.8341 52.24C80.0421 51.376 80.2341 50.504 80.4101 49.624C80.5861 48.744 80.7301 47.928 80.8421 47.176C80.9701 46.408 81.0661 45.736 81.1301 45.16C81.2101 44.584 81.2501 44.16 81.2501 43.888C81.2501 42.928 81.0901 42.28 80.7701 41.944C80.4661 41.592 79.9461 41.416 79.2101 41.416C79.1301 41.416 79.0421 41.424 78.9461 41.44C78.8501 41.44 78.7461 41.448 78.6341 41.464V40.96L87.7541 40.936ZM84.4901 46.576C84.4901 45.904 84.4901 45.36 84.4901 44.944C84.4901 44.512 84.4821 44.192 84.4661 43.984C84.4341 43.456 84.3941 43.04 84.3461 42.736C84.3141 42.416 84.2741 42.176 84.2261 42.016C84.1941 41.84 84.1541 41.728 84.1061 41.68C84.0581 41.632 84.0101 41.608 83.9621 41.608C83.5301 41.592 83.2021 41.712 82.9781 41.968C82.7701 42.208 82.6021 42.552 82.4741 43C82.3621 43.448 82.2581 43.976 82.1621 44.584C82.0661 45.192 81.9301 45.856 81.7541 46.576H84.4901Z" fill="#D4DDE1"/>
<path d="M40.8876 67.328C40.8876 66.32 40.8876 65.504 40.8876 64.88C40.8876 64.232 40.8756 63.752 40.8516 63.44C40.8036 62.648 40.7436 62.024 40.6716 61.568C40.6236 61.088 40.5636 60.728 40.4916 60.488C40.4436 60.224 40.3836 60.056 40.3116 59.984C40.2396 59.912 40.1676 59.876 40.0956 59.876C39.4476 59.852 38.9196 60.092 38.5116 60.596C38.1276 61.076 37.8156 61.712 37.5756 62.504C37.3596 63.296 37.2036 64.208 37.1076 65.24C37.0116 66.272 36.9276 67.316 36.8556 68.372C36.7116 70.484 36.5076 72.296 36.2436 73.808C36.0036 75.296 35.7036 76.52 35.3436 77.48C35.0076 78.44 34.5996 79.148 34.1196 79.604C33.6636 80.036 33.1476 80.252 32.5716 80.252C32.1156 80.252 31.7556 79.988 31.4916 79.46C31.2276 78.932 31.0956 78.332 31.0956 77.66C31.0956 77.108 31.1436 76.604 31.2396 76.148C31.3356 75.668 31.4676 75.248 31.6356 74.888L32.3196 74.924C32.2956 75.044 32.2716 75.164 32.2476 75.284C32.2476 75.38 32.2476 75.488 32.2476 75.608C32.2476 76.256 32.4756 76.58 32.9316 76.58C33.4356 76.58 33.8676 76.328 34.2276 75.824C34.5876 75.32 34.8756 74.672 35.0916 73.88C35.3316 73.064 35.5116 72.164 35.6316 71.18C35.7516 70.172 35.8356 69.176 35.8836 68.192C35.9556 67.208 35.9916 66.284 35.9916 65.42C36.0156 64.556 36.0276 63.848 36.0276 63.296C36.0276 61.856 35.7876 60.872 35.3076 60.344C34.8276 59.816 34.0356 59.552 32.9316 59.552C32.8116 59.552 32.6796 59.564 32.5356 59.588C32.3916 59.588 32.2356 59.6 32.0676 59.624V58.868H45.7836V59.66C45.1596 59.66 44.7036 59.756 44.4156 59.948C44.1516 60.14 43.9596 60.392 43.8396 60.704C43.7436 61.016 43.6956 61.376 43.6956 61.784C43.6956 62.168 43.6596 62.552 43.5876 62.936C43.4916 63.704 43.4196 64.688 43.3716 65.888C43.3476 67.064 43.3356 68.48 43.3356 70.136C43.3356 71.768 43.3356 73.16 43.3356 74.312C43.3356 75.464 43.3956 76.4 43.5156 77.12C43.6356 77.84 43.8276 78.368 44.0916 78.704C44.3796 79.04 44.7996 79.208 45.3516 79.208V80H38.7636V79.208C39.8676 79.208 40.4676 78.656 40.5636 77.552C40.5876 77.408 40.6476 76.46 40.7436 74.708C40.8396 72.932 40.8876 70.472 40.8876 67.328Z" fill="#D4DDE1"/>
<path d="M46.8574 80V79.208C47.5054 79.208 47.9974 79.016 48.3334 78.632C48.5254 78.392 48.6574 78.068 48.7294 77.66C48.7534 77.516 48.8254 76.772 48.9454 75.428C49.0414 74.3 49.0894 72.188 49.0894 69.092C49.1134 66.14 49.0894 64.256 49.0174 63.44C48.9934 62.888 48.9454 62.336 48.8734 61.784C48.8254 61.208 48.6814 60.752 48.4414 60.416C48.0814 59.96 47.5054 59.732 46.7134 59.732V58.976H58.1614V64.988H57.4054C57.3574 61.484 56.2294 59.732 54.0214 59.732C52.7014 59.732 51.9934 60.884 51.8974 63.188L51.7534 66.572C53.0014 66.572 53.8294 66.332 54.2374 65.852C54.5974 65.444 54.8374 64.544 54.9574 63.152H55.7494V76.076H54.8854C54.7414 73.076 54.6094 71.276 54.4894 70.676C54.2254 69.404 53.8774 68.54 53.4454 68.084C53.0134 67.628 52.4494 67.4 51.7534 67.4C51.6574 70.544 51.6094 72.548 51.6094 73.412C51.5134 76.556 51.7174 78.368 52.2214 78.848C52.5814 79.112 53.1214 79.244 53.8414 79.244C54.0334 79.244 54.2494 79.232 54.4894 79.208C55.5694 79.208 56.3614 78.812 56.8654 78.02C57.3694 77.228 57.6454 75.872 57.6934 73.952H58.4494V80H46.8574Z" fill="#D4DDE1"/>
<path d="M59.609 78.632C60.041 78.728 60.401 78.728 60.689 78.632C60.977 78.536 61.205 78.404 61.373 78.236C61.541 78.044 61.661 77.84 61.733 77.624C61.829 77.384 61.901 77.192 61.949 77.048C62.333 75.8 62.693 74.468 63.029 73.052C63.389 71.636 63.689 70.292 63.929 69.02C64.169 67.724 64.361 66.572 64.505 65.564C64.649 64.532 64.721 63.776 64.721 63.296C64.721 61.856 64.481 60.884 64.001 60.38C63.545 59.852 62.765 59.588 61.661 59.588C61.541 59.588 61.409 59.6 61.265 59.624C61.121 59.624 60.965 59.636 60.797 59.66V58.904L74.477 58.868V59.66C73.853 59.66 73.397 59.756 73.109 59.948C72.845 60.14 72.653 60.392 72.533 60.704C72.437 61.016 72.389 61.376 72.389 61.784C72.389 62.168 72.353 62.552 72.281 62.936C72.185 63.704 72.113 64.688 72.065 65.888C72.041 67.064 72.029 68.48 72.029 70.136C72.029 70.64 72.029 71.192 72.029 71.792C72.029 72.368 72.029 72.944 72.029 73.52C72.029 74.072 72.029 74.6 72.029 75.104C72.053 75.608 72.089 76.052 72.137 76.436C72.257 77.42 72.449 78.104 72.713 78.488C72.977 78.848 73.505 78.86 74.297 78.524L74.693 83.456H73.973C73.805 82.712 73.469 81.956 72.965 81.188C72.461 80.42 71.669 80.036 70.589 80.036L63.569 80C62.489 80 61.697 80.384 61.193 81.152C60.689 81.92 60.341 82.676 60.149 83.42H59.429L59.609 78.632ZM65.441 67.328C65.297 68.048 65.129 68.828 64.937 69.668C64.769 70.508 64.589 71.36 64.397 72.224C64.205 73.064 64.001 73.892 63.785 74.708C63.593 75.524 63.401 76.268 63.209 76.94C63.161 77.108 63.113 77.276 63.065 77.444C63.041 77.588 63.041 77.732 63.065 77.876C63.113 78.02 63.209 78.164 63.353 78.308C63.497 78.428 63.725 78.56 64.037 78.704H67.853C68.213 78.68 68.489 78.608 68.681 78.488C68.873 78.344 69.017 78.176 69.113 77.984C69.209 77.792 69.269 77.588 69.293 77.372C69.317 77.156 69.329 76.952 69.329 76.76C69.377 75.92 69.425 74.696 69.473 73.088C69.545 71.456 69.581 69.536 69.581 67.328C69.581 66.32 69.581 65.504 69.581 64.88C69.581 64.232 69.569 63.752 69.545 63.44C69.497 62.648 69.437 62.024 69.365 61.568C69.317 61.112 69.257 60.776 69.185 60.56C69.137 60.344 69.077 60.212 69.005 60.164C68.933 60.092 68.861 60.056 68.789 60.056C68.141 60.032 67.649 60.2 67.313 60.56C67.001 60.92 66.749 61.424 66.557 62.072C66.365 62.72 66.197 63.488 66.053 64.376C65.909 65.264 65.705 66.248 65.441 67.328Z" fill="#D4DDE1"/>
<path d="M84.9291 66.824H84.2091C83.9451 63.584 83.6211 61.64 83.2371 60.992C82.7091 60.128 82.1691 59.744 81.6171 59.84C80.8731 59.96 80.2011 60.584 79.6011 61.712C78.7131 63.392 78.2691 65.864 78.2691 69.128C78.2691 74.408 79.3851 77.048 81.6171 77.048C83.2251 77.048 84.0531 75.56 84.1011 72.584H84.9291C84.9291 77.768 83.5371 80.36 80.7531 80.36C79.0971 80.36 77.8011 79.148 76.8651 76.724C76.0971 74.66 75.7251 72.284 75.7491 69.596C75.7971 66.476 76.3491 63.944 77.4051 62C78.5571 59.936 80.0811 58.904 81.9771 58.904C83.2011 58.904 84.1851 58.916 84.9291 58.94V66.824Z" fill="#D4DDE1"/>
<path d="M99.6503 59.012V66.608H98.8943C98.9663 64.328 98.6663 62.564 97.9943 61.316C97.4183 60.26 96.6743 59.732 95.7623 59.732C94.8023 59.732 94.3223 60.92 94.3223 63.296C94.3223 69.968 94.3823 74.012 94.5023 75.428C94.6463 76.844 94.7183 77.612 94.7183 77.732C94.7903 78.188 94.9223 78.536 95.1143 78.776C95.4743 79.112 95.9783 79.28 96.6263 79.28L96.6623 80.036H89.4623V79.28C90.1343 79.28 90.6383 79.112 90.9743 78.776C91.1663 78.536 91.2983 78.188 91.3703 77.732C91.3943 77.612 91.4663 76.844 91.5863 75.428C91.8743 72.26 91.9343 68.216 91.7663 63.296C91.6943 60.92 91.2503 59.732 90.4343 59.732C89.2343 59.732 88.3823 60.272 87.8783 61.352C87.3743 62.432 87.1463 64.184 87.1943 66.608H86.4743V59.012H99.6503Z" fill="#D4DDE1"/>
<path d="M112.762 78.812C111.85 79.604 110.062 80 107.398 80H100.99V79.244C101.854 79.004 102.37 78.788 102.538 78.596C102.73 78.38 102.862 78.092 102.934 77.732C102.958 77.564 103.03 76.856 103.15 75.608C103.246 74.432 103.306 72.224 103.33 68.984C103.354 65.864 103.33 63.896 103.258 63.08C103.234 62.624 103.198 62.156 103.15 61.676C103.102 61.172 102.946 60.764 102.682 60.452C102.322 59.972 101.746 59.732 100.954 59.732V58.976H107.722C111.154 58.976 112.75 60.68 112.51 64.088C112.462 65.024 112.102 65.828 111.43 66.5C110.902 67.076 110.29 67.448 109.594 67.616C110.77 67.736 111.826 68.252 112.762 69.164C113.89 70.244 114.466 71.684 114.49 73.484C114.538 75.98 113.962 77.756 112.762 78.812ZM105.814 73.016C105.814 74.984 105.874 76.268 105.994 76.868C106.306 78.452 107.05 79.244 108.226 79.244C110.53 79.244 111.634 77.24 111.538 73.232C111.466 69.992 110.146 68.324 107.578 68.228C107.194 68.204 106.63 68.204 105.886 68.228C105.838 69.932 105.814 71.528 105.814 73.016ZM105.886 67.328C105.886 67.328 106.342 67.328 107.254 67.328C109.054 67.328 110.038 66.296 110.206 64.232C110.254 63.872 110.278 63.536 110.278 63.224C110.278 60.944 109.486 59.78 107.902 59.732C107.374 59.708 106.93 59.972 106.57 60.524C106.234 61.076 106.054 61.784 106.03 62.648C105.958 63.584 105.91 65.144 105.886 67.328Z" fill="#D4DDE1"/>
<path d="M129.331 60.488C128.971 61.016 128.719 62.036 128.575 63.548C128.359 66.164 128.359 70.064 128.575 75.248C128.647 77.024 128.899 78.164 129.331 78.668C129.643 79.052 130.147 79.244 130.843 79.244V80.036H123.751V79.244C124.279 79.244 124.747 79.04 125.155 78.632C125.587 78.176 125.815 77.096 125.839 75.392L125.947 65.204L120.727 75.5C120.727 76.316 120.787 76.976 120.907 77.48C121.027 77.96 121.219 78.344 121.483 78.632C121.819 79.04 122.287 79.244 122.887 79.244L122.851 80.036H115.867V79.244C116.467 79.268 116.971 79.064 117.379 78.632C117.715 78.224 117.895 77.12 117.919 75.32C118.039 72.296 118.099 69.812 118.099 67.868C118.123 65.9 118.111 64.46 118.063 63.548C117.967 61.892 117.739 60.812 117.379 60.308C117.115 59.948 116.575 59.768 115.759 59.768V59.012H122.995V59.768C122.275 59.768 121.735 60.008 121.375 60.488C121.111 60.8 120.943 61.256 120.871 61.856C120.823 62.432 120.775 63.008 120.727 63.584C120.727 63.728 120.715 64.22 120.691 65.06C120.691 65.876 120.679 66.8 120.655 67.832C120.655 68.864 120.655 69.884 120.655 70.892C120.655 71.9 120.655 72.656 120.655 73.16L125.947 62.864C125.875 62.048 125.791 61.496 125.695 61.208C125.599 60.896 125.491 60.656 125.371 60.488C125.011 60.008 124.447 59.768 123.679 59.768L123.715 59.012H130.843V59.768C130.171 59.768 129.667 60.008 129.331 60.488Z" fill="#D4DDE1"/>
<path d="M132.568 80V79.208C133.216 79.208 133.708 79.016 134.044 78.632C134.236 78.392 134.368 78.068 134.44 77.66C134.464 77.516 134.536 76.772 134.656 75.428C134.752 74.3 134.8 72.188 134.8 69.092C134.824 66.14 134.8 64.256 134.728 63.44C134.704 62.888 134.656 62.336 134.584 61.784C134.536 61.208 134.392 60.752 134.152 60.416C133.792 59.96 133.216 59.732 132.424 59.732V58.976H143.872V64.988H143.116C143.068 61.484 141.94 59.732 139.732 59.732C138.412 59.732 137.704 60.884 137.608 63.188L137.464 66.572C138.712 66.572 139.54 66.332 139.948 65.852C140.308 65.444 140.548 64.544 140.668 63.152H141.46V76.076H140.596C140.452 73.076 140.32 71.276 140.2 70.676C139.936 69.404 139.588 68.54 139.156 68.084C138.724 67.628 138.16 67.4 137.464 67.4C137.368 70.544 137.32 72.548 137.32 73.412C137.224 76.556 137.428 78.368 137.932 78.848C138.292 79.112 138.832 79.244 139.552 79.244C139.744 79.244 139.96 79.232 140.2 79.208C141.28 79.208 142.072 78.812 142.576 78.02C143.08 77.228 143.356 75.872 143.404 73.952H144.16V80H132.568Z" fill="#D4DDE1"/>
<path d="M21.3016 53.036C21.8296 52.388 22.4296 52.064 23.1016 52.064C23.3656 52.064 23.6656 52.076 24.0016 52.1C24.3376 52.1 24.6376 52.148 24.9016 52.244C25.1896 52.34 25.4176 52.484 25.5856 52.676C25.7536 52.844 25.7896 53.108 25.6936 53.468C25.5016 54.068 25.2256 54.848 24.8656 55.808C24.5296 56.744 24.2776 57.692 24.1096 58.652C23.9416 59.612 23.9536 60.488 24.1456 61.28C24.3616 62.072 24.9376 62.612 25.8736 62.9C26.0656 62.996 26.3056 63.044 26.5936 63.044C27.4576 63.092 28.2256 62.708 28.8976 61.892C29.6176 61.052 29.9656 60.26 29.9416 59.516C29.9416 58.988 29.7736 58.532 29.4376 58.148C29.1016 57.74 28.7296 57.536 28.3216 57.536C27.8416 57.488 27.4576 57.74 27.1696 58.292C27.7216 58.412 28.1056 58.52 28.3216 58.616C28.7536 58.88 28.9216 59.276 28.8256 59.804C28.6816 60.572 28.1776 60.944 27.3136 60.92C27.0736 60.92 26.8336 60.884 26.5936 60.812C26.1376 60.692 25.8256 60.38 25.6576 59.876C25.5136 59.372 25.4776 58.784 25.5496 58.112C25.6216 57.416 25.7896 56.696 26.0536 55.952C26.3416 55.184 26.6896 54.488 27.0976 53.864C27.5296 53.24 28.0096 52.736 28.5376 52.352C29.0896 51.944 29.6536 51.764 30.2296 51.812V51.2H17.5216V51.956C18.4816 51.884 19.1656 51.956 19.5736 52.172C19.8376 52.316 19.9696 52.52 19.9696 52.784C19.9696 53.024 19.9696 53.3115 19.6456 53.7238C19.5736 53.8155 18.6812 54.876 18.6028 55C18.5243 55.124 16.1028 58 15.1028 60.92C14.1028 63.84 13.0843 67.852 13.6028 72C14.1213 76.148 18.1028 78 20.1028 79C19.9439 77.5691 20.0126 77.9955 20.1028 77C19.1268 75.7985 18.1039 72.8992 17.9353 72C17.3358 68.8026 17.5216 65.6743 17.5216 64C17.5216 62.0739 18.4456 58.748 19.6456 56.06C20.2456 54.692 20.7976 53.684 21.3016 53.036Z" fill="#D4DDE1"/>
<path d="M26.1028 75.5C28.4738 75.824 29.6028 78 28.1028 79C26.6028 80 22.6982 79.0848 21.1028 78C21.1077 78.9516 20.8381 78.2006 21.1028 79.5C22.1028 80 26.1028 80.9427 28.4738 80.0875C30.1028 79.5 30.2962 77.3415 29.1028 76.148C27.9093 74.9546 27.1028 74.5 24.6028 74.5C22.1028 74.5 20.4623 75.284 20.1028 77C20.1028 77 20.7081 77.3577 21.1028 78C21.3752 76.3554 23.7317 75.176 26.1028 75.5Z" fill="#D4DDE1"/>
<path d="M20.1028 77C20.0126 77.9955 19.9439 77.5691 20.1028 79L21.1028 79.5C20.8381 78.2006 21.1077 78.9516 21.1028 78C20.7081 77.3577 20.1028 77 20.1028 77Z" fill="#D4DDE1"/>
<path d="M63.209 91.632C46.1423 91.996 36.296 90.9311 30.6712 89.132C25.0464 87.3329 21.8554 83.1953 21.1028 79.5L20.1028 79C20.6423 83.8602 23.2336 88.39 30.3832 90.632C37.5328 92.874 54.0581 95.132 72.0443 93.632C94.5024 91.7591 110.269 85.1107 120.103 86.5C123.751 87.0154 132.544 86.632 132.044 92.132C131.544 97.632 124.294 95.132 126.044 91.632C126.544 90.632 128.544 90.632 128.544 90.632V90.132H122.544C122.544 90.132 122.525 90.3957 122.544 90.632C123.044 96.632 135.096 99.279 134.044 90.632C133.603 87 130.843 85.639 127.603 85C106.403 80.819 86.6543 91.132 63.209 91.632Z" fill="#D4DDE1"/>
<path d="M32.1028 57L144.103 57" stroke="#D4DDE1"/>
<path d="M29.6028 39H117.603" stroke="#D4DDE1"/>
<path d="M29.6028 14.5L105.103 14.5C108.874 14.5 113.122 14.721 115.603 11C116.603 9.50003 117.603 5.50007 114.103 2.50003C110.46 -0.622213 106.103 1.99998 105.103 4.49998C102.806 10.2423 109.603 11 113.103 7V6.5H109.603C109.603 6.5 109.965 6.86193 110.103 7C110.603 7.5 109.603 9.11634 107.603 8.00003C106.103 7.1628 106.603 5.00002 107.603 4C109.128 2.47494 111.379 3.20407 113.103 4.49998C114.848 5.81173 114.734 7.91022 114.103 10C113.012 13.61 108.874 13.5 105.103 13.5H29.6028V14.5Z" fill="#D4DDE1"/>
<path d="M21.1028 82L144.603 82" stroke="#D4DDE1"/>
<path d="M70.3527 7.54321L71.141 8.51335C72.6984 10.4302 75.0368 11.5432 77.5066 11.5432L93.9781 11.5432C95.3753 11.5432 96.7533 11.2179 98.003 10.5931L98.1027 10.5432M70.3527 7.54321L68.3248 5.04728C67.6066 4.16333 67.5821 2.90401 68.2655 1.99286C69.212 0.730834 71.0803 0.660433 72.1191 1.84764L72.1817 1.91915C73.0026 2.85734 73.028 4.25054 72.2419 5.21807L70.3527 7.54321ZM70.3527 7.54321L69.4479 8.65688C67.9642 10.483 65.7366 11.5432 63.3838 11.5432L45.7273 11.5432C44.3301 11.5432 42.9521 11.2179 41.7024 10.5931L41.6027 10.5432M86.6027 9.54321L94.3449 9.54321C94.8368 9.54321 95.3154 9.38368 95.7089 9.08855L95.959 8.90099C96.6338 8.3949 96.885 7.49899 96.5718 6.71584C96.2885 6.00761 95.6025 5.54321 94.8398 5.54321H94.7065C94.0169 5.54321 93.373 5.88783 92.9905 6.46157L92.6027 7.04321M53.1027 9.54321L45.3605 9.54321C44.8686 9.54321 44.39 9.38368 43.9965 9.08855L43.7464 8.90099C43.0716 8.3949 42.8204 7.49899 43.1337 6.71584C43.417 6.00761 44.1029 5.54321 44.8657 5.54321H44.999C45.6885 5.54321 46.3325 5.88783 46.715 6.46157L47.1027 7.04321" stroke="#D4DDE1"/>
<path d="M124.103 56.5C124.103 55.6839 124.327 54.8987 124.653 54.1881C125.687 51.937 128.565 51.7406 130.715 52.9725V52.9725L133.299 54.4541C133.954 54.8293 134.693 55.032 135.447 55.0432V55.0432C137.25 55.0701 138.891 54.0074 139.604 52.3515L139.929 51.5961C140.342 50.6351 140.447 49.5693 140.228 48.5462L140.162 48.2339C139.815 46.6137 138.609 45.3138 137.019 44.8481L136.825 44.7914C136.284 44.6329 135.713 44.6019 135.157 44.7009L134.331 44.8483C133.752 44.9516 133.252 45.3144 132.975 45.833V45.833C132.387 46.9305 132.983 48.2882 134.188 48.5992L134.315 48.6319C134.701 48.7314 135.107 48.7149 135.483 48.5846L135.647 48.528C136.479 48.2395 137.109 47.5486 137.318 46.6928L137.896 44.3377C138.016 43.8456 137.981 43.3281 137.795 42.8569V42.8569C137.379 41.8065 137.736 40.5696 138.811 40.2234C139.217 40.0927 139.661 40 140.103 40" stroke="#D4DDE1"/>
<path d="M110.603 55C114.898 55 121.603 55 121.603 55C121.603 55 122.603 51 125.603 50" stroke="#D4DDE1"/>
<path fill-rule="evenodd" clip-rule="evenodd" d="M141.103 40.5L141.103 34.5V23V17C141.103 17 141.38 11.6581 139.603 9.5C138.808 8.53487 138.35 8.08647 137.103 8.00002C135.45 7.88547 134.103 9.5 134.103 11C134.103 14 136.103 15 136.103 15C136.103 15 135.877 19.9689 135.603 22.5C135.305 25.2453 134.603 28.5 134.603 28.5L134.103 32C134.103 32 138.103 32.5 139.603 35.5C140.476 37.2465 139.603 40.5 139.603 40.5H141.103ZM140.103 24.5V33.5C140.103 33.5 138.691 32.1157 137.603 31.5C136.688 30.9823 135.103 30.5 135.103 30.5C135.103 30.5 135.103 29 136.103 23C136.39 21.2762 136.603 15 136.603 15C136.603 15 134.689 13.0188 135.103 11.5C135.393 10.4344 135.998 9.50002 137.103 9.50002C138.207 9.50002 139.109 11.012 139.603 12C140.103 13 140.103 17 140.103 17V24.5Z" fill="#D4DDE1"/>
<path d="M135.528 10.9156L139.101 11.5803L139.378 12.0936L135.305 11.4058L135.528 10.9156Z" fill="#D4DDE1"/>
<path d="M135.403 12.5L139.703 13.4029L139.768 13.8905L135.603 13L135.403 12.5Z" fill="#D4DDE1"/>
<path d="M136.785 14.5615L139.8 15.5699L139.785 16.0615L136.902 15.0873L136.785 14.5615Z" fill="#D4DDE1"/>
<path d="M136.703 16.2001L139.909 17.3988L139.895 17.8905L136.703 16.7L136.703 16.2001Z" fill="#D4DDE1"/>
<path d="M136.713 17.7926C136.713 17.7926 137.697 18.14 138.316 18.392C138.95 18.65 139.92 19.1 139.92 19.1L139.905 19.7C139.905 19.7 138.95 19.1681 138.309 18.8878C137.7 18.6211 136.713 18.2925 136.713 18.2925L136.713 17.7926Z" fill="#D4DDE1"/>
<path d="M136.603 19.5001C136.603 19.5001 137.623 19.8962 138.276 20.1501C138.929 20.4039 139.949 20.8 139.949 20.8L139.938 21.3C139.938 21.3 138.923 20.9041 138.273 20.6505C137.622 20.3968 136.607 20.0009 136.607 20.0009L136.603 19.5001Z" fill="#D4DDE1"/>
<path d="M136.439 21.2084C136.439 21.2084 137.299 21.4862 138.201 21.8415C138.899 22.1161 139.964 22.6 139.964 22.6L139.958 23.1C139.958 23.1 138.898 22.6135 138.203 22.3391C137.526 22.0717 136.448 21.7104 136.448 21.7104L136.439 21.2084Z" fill="#D4DDE1"/>
<path d="M136.311 23.0834C136.311 23.0834 137.103 23.2846 138.103 23.7C139.103 24.1154 139.936 24.5 139.936 24.5L139.909 25.0639C139.909 25.0639 138.807 24.4921 138.103 24.2C137.398 23.9079 136.301 23.5678 136.301 23.5678L136.311 23.0834Z" fill="#D4DDE1"/>
<path d="M136.18 24.7209C136.18 24.7209 137.348 25.2047 138.082 25.5472C138.835 25.8987 139.984 26.5 139.984 26.5L139.939 27.1C139.939 27.1 138.798 26.4726 138.045 26.1147C137.318 25.7686 136.152 25.2938 136.152 25.2938L136.18 24.7209Z" fill="#D4DDE1"/>
<path d="M135.728 26.54C135.728 26.54 137.026 27.03 137.84 27.3874C138.678 27.7552 139.952 28.4 139.952 28.4L139.935 29C139.935 29 138.676 28.2809 137.833 27.8927C137.03 27.5228 135.731 27.0507 135.731 27.0507L135.728 26.54Z" fill="#D4DDE1"/>
<path d="M135.444 28.1686C135.444 28.1686 136.83 28.6493 137.678 29.0494C138.582 29.4759 139.911 30.4 139.911 30.4L139.901 31.1C139.901 31.1 138.6 30.0256 137.677 29.5566C136.845 29.1338 135.454 28.6814 135.454 28.6814L135.444 28.1686Z" fill="#D4DDE1"/>
<path d="M107.103 41.5C107.103 41.5 111.103 41.5 116.103 41.5C118.026 41.5 120.103 41.5 120.103 44C120.103 46 117.103 47 116.103 44.5" stroke="#D4DDE1"/>
<path d="M31.6028 84.5C31.6028 84.5 19.1131 84.5 14.3851 84.5C12.5667 84.5 10.6028 84.5 10.6028 82.2694C10.6028 80.4849 13.4396 79.5926 14.3851 81.8232" stroke="#D4DDE1"/>
</svg>
