<svg width="145" height="97" viewBox="0 0 145 97" fill="none" xmlns="http://www.w3.org/2000/svg">
<path d="M30.0691 37V36.208C30.7171 36.208 31.2091 36.016 31.5451 35.632C31.7371 35.392 31.8691 35.068 31.9411 34.66C31.9651 34.516 32.0371 33.772 32.1571 32.428C32.2531 31.3 32.3011 29.188 32.3011 26.092C32.3251 23.14 32.3011 21.256 32.2291 20.44C32.2051 19.888 32.1571 19.336 32.0851 18.784C32.0371 18.208 31.8931 17.752 31.6531 17.416C31.2931 16.96 30.7171 16.732 29.9251 16.732V15.976H41.3731V21.988H40.6171C40.5691 18.484 39.4411 16.732 37.2331 16.732C35.9131 16.732 35.2051 17.884 35.1091 20.188L34.9651 23.572C36.2131 23.572 37.0411 23.332 37.4491 22.852C37.8091 22.444 38.0491 21.544 38.1691 20.152H38.9611V33.076H38.0971C37.9531 30.076 37.8211 28.276 37.7011 27.676C37.4371 26.404 37.0891 25.54 36.6571 25.084C36.2251 24.628 35.6611 24.4 34.9651 24.4C34.8691 27.544 34.8211 29.548 34.8211 30.412C34.7251 33.556 34.9291 35.368 35.4331 35.848C35.7931 36.112 36.3331 36.244 37.0531 36.244C37.2451 36.244 37.4611 36.232 37.7011 36.208C38.7811 36.208 39.5731 35.812 40.0771 35.02C40.5811 34.228 40.8571 32.872 40.9051 30.952H41.6611V37H30.0691Z" fill="black"/>
<path d="M52.3247 26.524C51.7007 26.764 50.9687 26.884 50.1287 26.884C49.8167 26.884 49.4687 26.932 49.0847 27.028C48.7247 27.1 48.3407 27.088 47.9327 26.992C47.9087 27.256 47.8967 27.604 47.8967 28.036C47.8967 28.468 47.8847 29.116 47.8607 29.98C47.7407 33.628 47.9207 35.608 48.4007 35.92C48.8807 36.256 49.4087 36.364 49.9847 36.244V37.036H43.0367V36.244C43.7807 36.244 44.2967 36.076 44.5847 35.74C44.8007 35.524 45.0047 34.432 45.1967 32.464C45.2447 31.936 45.2807 31.144 45.3047 30.088C45.3287 29.032 45.3527 27.7 45.3767 26.092C45.4007 24.676 45.4007 23.512 45.3767 22.6C45.3767 21.664 45.3647 20.956 45.3407 20.476C45.2687 18.82 45.0887 17.788 44.8007 17.38C44.5127 16.972 43.9247 16.768 43.0367 16.768V16.012C45.6287 15.988 48.0407 15.988 50.2727 16.012C51.7367 16.012 52.9607 16.552 53.9447 17.632C54.8567 18.64 55.3247 19.84 55.3487 21.232C55.3727 22.552 55.0967 23.68 54.5207 24.616C53.9687 25.552 53.2367 26.188 52.3247 26.524ZM52.5407 21.772C52.6127 18.988 51.9287 17.356 50.4887 16.876C49.9127 16.732 49.1447 16.708 48.1847 16.804L47.9327 25.804C49.2527 25.804 50.2607 25.6 50.9567 25.192C51.9647 24.568 52.4927 23.428 52.5407 21.772Z" fill="black"/>
<path d="M56.9285 37V36.208C57.5765 36.208 58.0685 36.016 58.4045 35.632C58.5965 35.392 58.7285 35.068 58.8005 34.66C58.8245 34.516 58.8965 33.772 59.0165 32.428C59.1125 31.3 59.1605 29.188 59.1605 26.092C59.1845 23.14 59.1605 21.256 59.0885 20.44C59.0645 19.888 59.0165 19.336 58.9445 18.784C58.8965 18.208 58.7525 17.752 58.5125 17.416C58.1525 16.96 57.5765 16.732 56.7845 16.732V15.976H68.2325V21.988H67.4765C67.4285 18.484 66.3005 16.732 64.0925 16.732C62.7725 16.732 62.0645 17.884 61.9685 20.188L61.8245 23.572C63.0725 23.572 63.9005 23.332 64.3085 22.852C64.6685 22.444 64.9085 21.544 65.0285 20.152H65.8205V33.076H64.9565C64.8125 30.076 64.6805 28.276 64.5605 27.676C64.2965 26.404 63.9485 25.54 63.5165 25.084C63.0845 24.628 62.5205 24.4 61.8245 24.4C61.7285 27.544 61.6805 29.548 61.6805 30.412C61.5845 33.556 61.7885 35.368 62.2925 35.848C62.6525 36.112 63.1925 36.244 63.9125 36.244C64.1045 36.244 64.3205 36.232 64.5605 36.208C65.6405 36.208 66.4325 35.812 66.9365 35.02C67.4405 34.228 67.7165 32.872 67.7645 30.952H68.5205V37H56.9285Z" fill="black"/>
<path d="M79.1841 26.524C78.5601 26.764 77.8281 26.884 76.9881 26.884C76.6761 26.884 76.3281 26.932 75.9441 27.028C75.5841 27.1 75.2001 27.088 74.7921 26.992C74.7681 27.256 74.7561 27.604 74.7561 28.036C74.7561 28.468 74.7441 29.116 74.7201 29.98C74.6001 33.628 74.7801 35.608 75.2601 35.92C75.7401 36.256 76.2681 36.364 76.8441 36.244V37.036H69.8961V36.244C70.6401 36.244 71.1561 36.076 71.4441 35.74C71.6601 35.524 71.8641 34.432 72.0561 32.464C72.1041 31.936 72.1401 31.144 72.1641 30.088C72.1881 29.032 72.2121 27.7 72.2361 26.092C72.2601 24.676 72.2601 23.512 72.2361 22.6C72.2361 21.664 72.2241 20.956 72.2001 20.476C72.1281 18.82 71.9481 17.788 71.6601 17.38C71.3721 16.972 70.7841 16.768 69.8961 16.768V16.012C72.4881 15.988 74.9001 15.988 77.1321 16.012C78.5961 16.012 79.8201 16.552 80.8041 17.632C81.7161 18.64 82.1841 19.84 82.2081 21.232C82.2321 22.552 81.9561 23.68 81.3801 24.616C80.8281 25.552 80.0961 26.188 79.1841 26.524ZM79.4001 21.772C79.4721 18.988 78.7881 17.356 77.3481 16.876C76.7721 16.732 76.0041 16.708 75.0441 16.804L74.7921 25.804C76.1121 25.804 77.1201 25.6 77.8161 25.192C78.8241 24.568 79.3521 23.428 79.4001 21.772Z" fill="black"/>
<path d="M88.7198 36.136C89.7278 36.256 90.5438 36.232 91.1678 36.064C91.8638 35.608 92.3918 34.984 92.7518 34.192C93.1118 33.376 93.2918 32.524 93.2918 31.636C93.2918 30.724 93.1118 29.824 92.7518 28.936C92.3918 28.024 91.8398 27.244 91.0958 26.596C90.9998 26.5 90.8678 26.368 90.6998 26.2C90.5558 26.032 90.3518 25.828 90.0878 25.588C89.3918 24.724 89.1278 23.8 89.2958 22.816C89.3678 22.528 89.4638 22.24 89.5838 21.952C89.7038 21.664 89.8598 21.412 90.0518 21.196C90.2438 20.956 90.4598 20.776 90.6998 20.656C90.9638 20.512 91.2518 20.452 91.5638 20.476C92.1878 20.548 92.5598 20.752 92.6798 21.088C92.8238 21.4 92.7158 21.592 92.3558 21.664C91.7318 21.784 91.2278 22.012 90.8438 22.348C90.4838 22.684 90.2558 23.056 90.1598 23.464C90.0878 23.848 90.1598 24.232 90.3758 24.616C90.5918 25 90.9878 25.3 91.5638 25.516C93.3158 26.236 94.5398 27.136 95.2358 28.216C95.9318 29.296 96.2678 30.496 96.2438 31.816C96.2198 33.208 95.7518 34.408 94.8398 35.416C94.3598 35.968 93.7718 36.376 93.0758 36.64C92.4038 36.904 91.6958 37.036 90.9518 37.036C88.6718 37.084 86.2118 37.084 83.5718 37.036V36.28C84.4598 36.28 85.0478 36.076 85.3358 35.668C85.6238 35.284 85.8038 34.252 85.8758 32.572C85.8998 32.092 85.9118 31.396 85.9118 30.484C85.9358 29.572 85.9358 28.396 85.9118 26.956C85.8878 25.348 85.8638 24.016 85.8398 22.96C85.8158 21.904 85.7798 21.112 85.7318 20.584C85.5638 18.64 85.3598 17.548 85.1198 17.308C84.8318 16.972 84.3158 16.804 83.5718 16.804V16.012H90.5198V16.804C89.9438 16.684 89.4158 16.792 88.9358 17.128C88.4558 17.464 88.2758 19.444 88.3958 23.068C88.3958 23.5 88.3958 23.944 88.3958 24.4C88.4198 24.832 88.4318 25.24 88.4318 25.624C88.4318 25.984 88.4318 26.308 88.4318 26.596C88.4558 26.884 88.4678 27.1 88.4678 27.244L88.7198 36.136ZM103.048 15.94V16.696C102.448 16.696 101.968 16.924 101.608 17.38C101.344 17.668 101.164 18.136 101.068 18.784C101.068 18.832 101.02 19.396 100.924 20.476C100.852 21.292 100.828 23.14 100.852 26.02C100.876 29.044 100.948 31.144 101.068 32.32C101.188 33.736 101.248 34.492 101.248 34.588C101.32 35.068 101.464 35.416 101.68 35.632C101.968 35.992 102.412 36.172 103.012 36.172V36.964H96.1358V36.172C96.7598 36.172 97.2278 35.992 97.5398 35.632C97.7318 35.416 97.8518 35.068 97.8998 34.588C97.9718 33.844 98.0318 33.088 98.0798 32.32C98.1758 31.144 98.2358 29.044 98.2598 26.02C98.2838 23.14 98.2598 21.292 98.1878 20.476C98.1638 19.924 98.1398 19.372 98.1158 18.82C98.0198 18.172 97.8518 17.692 97.6118 17.38C97.2518 16.924 96.7598 16.696 96.1358 16.696V15.94H103.048Z" fill="black"/>
<path d="M116.119 35.812C115.207 36.604 113.419 37 110.755 37H104.347V36.244C105.211 36.004 105.727 35.788 105.895 35.596C106.087 35.38 106.219 35.092 106.291 34.732C106.315 34.564 106.387 33.856 106.507 32.608C106.603 31.432 106.663 29.224 106.687 25.984C106.711 22.864 106.687 20.896 106.615 20.08C106.591 19.624 106.555 19.156 106.507 18.676C106.459 18.172 106.303 17.764 106.039 17.452C105.679 16.972 105.103 16.732 104.311 16.732V15.976H111.079C114.511 15.976 116.107 17.68 115.867 21.088C115.819 22.024 115.459 22.828 114.787 23.5C114.259 24.076 113.647 24.448 112.951 24.616C114.127 24.736 115.183 25.252 116.119 26.164C117.247 27.244 117.823 28.684 117.847 30.484C117.895 32.98 117.319 34.756 116.119 35.812ZM109.171 30.016C109.171 31.984 109.231 33.268 109.351 33.868C109.663 35.452 110.407 36.244 111.583 36.244C113.887 36.244 114.991 34.24 114.895 30.232C114.823 26.992 113.503 25.324 110.935 25.228C110.551 25.204 109.987 25.204 109.243 25.228C109.195 26.932 109.171 28.528 109.171 30.016ZM109.243 24.328C109.243 24.328 109.699 24.328 110.611 24.328C112.411 24.328 113.395 23.296 113.563 21.232C113.611 20.872 113.635 20.536 113.635 20.224C113.635 17.944 112.843 16.78 111.259 16.732C110.731 16.708 110.287 16.972 109.927 17.524C109.591 18.076 109.411 18.784 109.387 19.648C109.315 20.584 109.267 22.144 109.243 24.328Z" fill="black"/>
<path d="M20.6292 48.036V47.28C20.6292 47.28 18.685 47.6508 17.5 46C16.564 44.696 17.6154 42.3846 18.5 41.5C19.3846 40.6154 20.1498 39.646 22.8033 39.646C22.8053 39.3869 22.8073 39.1205 22.8093 38.8485C20.9793 38.7886 18.6601 38.8399 17 40.5C15 42.5 15.3152 45.188 16 46.304C17.1426 48.1659 20.6292 48.036 20.6292 48.036Z" fill="black"/>
<path d="M25.6444 39.3653C25.6459 39.7386 25.6474 40.0968 25.649 40.4341C26.076 40.5966 27.0692 41.2073 27.5 41.5C31.1799 44 33.3541 46.0694 36.7177 48.6376C38.6507 50.1136 40.7916 51.2241 43 52C46.2955 53.1578 50.8406 52.4323 52 50.5C51.621 48.8839 51.379 47.852 51 46.236C51 48.5 50.1408 52.2136 43.5 50C42 49.5 38.5 47.5 35 45C33.3425 43.8161 31.1992 42.0996 29 41C27.7925 40.3963 26.9868 39.7827 25.6444 39.3653Z" fill="black"/>
<path d="M51 46.236C51.3905 47.9012 52 50.5 52 50.5C53.5 48 53.1585 45.7924 53 45C52.8415 44.2076 51.9796 42.7951 50.5 42C47.8801 40.5922 43.6046 41.2386 42.5 44C41.9199 45.4504 42.09 46.7934 43.0367 48.036C44.0125 49.3167 46.5272 49.6508 48 49C49.2879 48.4309 49.5 47 49.5 46C49.5 45.903 49.5 45.5 49.5 45.5H46L46.0367 46.036C46.0367 46.036 48.4242 46.3578 48.0367 47.036C47.3585 48.2227 45.5032 48.5025 44.5367 47.536C43.5702 46.5695 43.5 45.804 44 44.5C44.7198 42.6229 47.1463 42.222 49 43C50.3699 43.5749 51 44.5 51 46.236Z" fill="black"/>
<path d="M25.5252 14.968C25.5492 14.104 25.5852 13.812 25.6332 13.5C26.5 13.796 27 14 28.396 14.356C29.02 14.452 29.584 14.5 30.088 14.5C30.568 14.5 31.024 14.452 31.456 14.356C31.912 14.236 32.308 14.08 32.644 13.888C32.98 13.672 33.244 13.432 33.436 13.168C33.652 12.88 33.76 12.568 33.76 12.232C33.76 11.992 33.7 11.752 33.58 11.512C33.46 11.272 33.304 11.056 33.112 10.864C32.92 10.672 32.716 10.528 32.5 10.432C32.284 10.312 32.068 10.252 31.852 10.252C31.924 10.444 31.96 10.612 31.96 10.756C31.96 11.308 31.72 11.836 31.24 12.34C30.76 12.82 30.2479 13 29.5 13C28.7521 13 27.884 12.62 27.5 12.5C27.116 12.38 26.2092 11.98 25.4172 11.692C24.6252 11.404 23.7372 11.068 22.7532 10.684C21.7692 10.3 20.7372 9.90397 19.6572 9.49597C18.6012 9.06397 17.6052 8.66797 16.6692 8.30797C15.7572 7.92397 14.9532 7.59997 14.2572 7.33597C13.5852 7.07197 13.1532 6.90397 12.9612 6.83197C11.7372 6.42397 10.6092 6.08797 9.57722 5.82397C8.54522 5.53597 7.63322 5.39197 6.84122 5.39197C5.97722 5.39197 5.16122 5.52397 4.39322 5.78797C3.62522 6.05197 2.94122 6.42397 2.34122 6.90397C1.76522 7.38397 1.29722 7.95997 0.937217 8.63197C0.601217 9.27997 0.421217 9.98797 0.397217 10.756C0.397217 12.1 0.625217 13.408 1.08122 14.68C1.56122 15.928 2.19722 17.044 2.98922 18.028C3.80522 18.988 4.72922 19.768 5.76122 20.368C6.81722 20.944 7.92122 21.232 9.07322 21.232C10.3692 21.232 11.4012 20.92 12.1692 20.296C12.9612 19.648 13.3572 18.712 13.3572 17.488C13.3572 16.696 13.1052 15.94 12.6012 15.22C12.1212 14.476 11.5212 13.828 10.8012 13.276C10.1052 12.724 9.36122 12.292 8.56922 11.98C7.80122 11.644 7.11722 11.476 6.51722 11.476C5.89322 11.476 5.36522 11.632 4.93322 11.944C4.52522 12.232 4.32122 12.652 4.32122 13.204C4.32122 13.804 4.54922 14.332 5.00522 14.788C5.00522 14.284 5.16122 13.816 5.47322 13.384C5.80922 12.952 6.24122 12.736 6.76922 12.736C7.22522 12.736 7.69322 12.868 8.17322 13.132C8.65322 13.372 9.09722 13.696 9.50522 14.104C9.91322 14.512 10.2492 14.992 10.5132 15.544C10.7772 16.096 10.9092 16.672 10.9092 17.272C10.9092 19.12 10.1292 20.044 8.56922 20.044C7.70522 20.044 6.87722 19.84 6.08522 19.432C5.29322 19.024 4.59722 18.472 3.99722 17.776C3.42122 17.08 2.95322 16.276 2.59322 15.364C2.25722 14.428 2.08922 13.456 2.08922 12.448C2.08922 11.464 2.48522 10.516 3.27722 9.60397C3.92522 8.83597 4.63322 8.34397 5.40122 8.12797C6.19322 7.91197 7.12922 7.80397 8.20922 7.80397C8.95322 7.80397 9.70922 7.87597 10.4772 8.01997C11.2452 8.13997 12.0252 8.33197 12.8172 8.59597C12.9372 8.66797 13.0452 8.82397 13.1412 9.06397C13.2612 9.30397 13.3692 9.61597 13.4652 9.99997C13.5612 10.36 13.6332 10.78 13.6812 11.26C13.7532 11.74 13.8132 12.232 13.8612 12.736C13.8852 13.048 13.8972 13.66 13.8972 14.572C13.9212 15.484 13.9332 16.72 13.9332 18.28C13.9572 22.192 13.9452 25.348 13.8972 27.748C13.8492 30.148 13.8012 31.672 13.7532 32.32C13.6812 33.184 13.6092 33.868 13.5372 34.372C13.4892 34.876 13.3932 35.272 13.2492 35.56C13.1052 35.824 12.9012 36.004 12.6372 36.1C12.3972 36.172 12.0612 36.22 11.6292 36.244V37H18.8652V36.244C18.4332 36.124 18.0972 36.016 17.8572 35.92C17.6172 35.824 17.4372 35.728 17.3172 35.632C17.1972 35.512 17.1132 35.38 17.0652 35.236C17.0172 35.068 16.9812 34.864 16.9572 34.624C16.9572 34.456 16.9452 34.312 16.9212 34.192C16.8972 34.072 16.8732 33.856 16.8492 33.544C16.8252 33.208 16.7892 32.728 16.7412 32.104C16.6932 31.48 16.6572 30.592 16.6332 29.44C16.6092 28.288 16.5852 26.812 16.5612 25.012C16.5372 23.212 16.5252 20.968 16.5252 18.28C16.5252 15.208 16.5612 13.36 16.6332 12.736C16.6812 12.184 16.7292 11.728 16.7772 11.368C16.8252 11.008 16.8732 10.732 16.9212 10.54C18.1452 10.804 19.2612 11.128 20.2692 11.512C21.2772 11.872 22.1412 12.172 22.8612 12.412C22.8852 12.796 22.8972 13.504 22.8972 14.536C22.9212 15.568 22.9332 16.888 22.9332 18.496C22.9572 22.48 22.9452 25.684 22.8972 28.108C22.8679 29.5879 22.8386 34.8368 22.8093 38.8485C23.7583 38.8795 24.7103 39.0749 25.6444 39.3653C25.6286 35.5607 25.6129 30.1942 25.5972 29.44C25.5732 28.264 25.5492 26.8 25.5252 25.048V18.532V14.968Z" fill="black"/>
<path d="M22.8093 38.8485L22.8033 39.646C23.6197 39.77 24.56 40.0196 25.649 40.4341L25.6444 39.3653C24.7103 39.0749 23.7583 38.8795 22.8093 38.8485Z" fill="black"/>
<path d="M25.7772 44.688C25.7532 44.328 25.7172 43.824 25.6692 43.176C25.6625 42.9871 25.6557 41.9103 25.649 40.4341C24.56 40.0196 23.6197 39.77 22.8033 39.646C22.7866 41.8245 22.7699 43.4904 22.7532 43.716C22.6812 44.388 22.6212 44.952 22.5732 45.408C22.5252 45.84 22.4412 46.2 22.3212 46.488C22.2012 46.752 22.0092 46.944 21.7452 47.064C21.4812 47.184 21.1092 47.256 20.6292 47.28V48.036H27.8652V47.244C27.3852 47.124 27.0252 47.016 26.7852 46.92C26.5452 46.8 26.3652 46.692 26.2452 46.596C26.1252 46.476 26.0532 46.356 26.0292 46.236L25.9572 45.804C25.9332 45.684 25.8972 45.552 25.8492 45.408C25.8252 45.264 25.8012 45.024 25.7772 44.688Z" fill="black"/>
<path d="M76.9208 41.992C76.6808 42.36 76.5128 43.04 76.4168 44.032C76.2728 45.776 76.2728 48.376 76.4168 51.832C76.4648 53.016 76.6328 53.776 76.9208 54.112C77.1448 54.368 77.4808 54.496 77.9288 54.496V55.024H73.2008V54.496C73.5688 54.496 73.8808 54.36 74.1368 54.088C74.4088 53.8 74.5608 53.08 74.5928 51.928L74.7128 47.32H71.1368C71.1208 49.304 71.1368 50.824 71.1848 51.88C71.1848 52.968 71.3528 53.704 71.6888 54.088C71.9128 54.36 72.2248 54.496 72.6248 54.496L72.6008 55.024H67.9448V54.496C68.3608 54.512 68.6968 54.376 68.9528 54.088C69.1608 53.832 69.2808 53.096 69.3128 51.88C69.4568 47.88 69.4888 45.264 69.4088 44.032C69.3288 42.896 69.1768 42.176 68.9528 41.872C68.7768 41.632 68.4168 41.512 67.8728 41.512V41.008H72.6968V41.512C72.2168 41.512 71.8568 41.672 71.6168 41.992C71.4408 42.2 71.3288 42.504 71.2808 42.904C71.2488 43.288 71.2168 43.672 71.1848 44.056C71.1528 44.44 71.1368 45.304 71.1368 46.648H74.7128C74.7128 45.288 74.6968 44.424 74.6648 44.056C74.6488 43.672 74.6248 43.288 74.5928 42.904C74.5608 42.504 74.4568 42.2 74.2808 41.992C74.0408 41.672 73.6648 41.512 73.1528 41.512L73.1768 41.008H77.9288V41.512C77.4648 41.512 77.1288 41.672 76.9208 41.992ZM88.1513 40.936V41.464C87.7353 41.464 87.4313 41.528 87.2393 41.656C87.0633 41.784 86.9353 41.952 86.8553 42.16C86.7913 42.368 86.7593 42.608 86.7593 42.88C86.7593 43.136 86.7353 43.392 86.6873 43.648C86.6233 44.16 86.5753 44.816 86.5433 45.616C86.5273 46.4 86.5193 47.344 86.5193 48.448C86.5193 49.536 86.5193 50.464 86.5193 51.232C86.5193 51.984 86.5593 52.6 86.6393 53.08C86.7193 53.56 86.8473 53.912 87.0233 54.136C87.2153 54.36 87.4953 54.472 87.8633 54.472V55H83.4713V54.472C84.2073 54.472 84.6073 54.104 84.6713 53.368C84.6873 53.272 84.7273 52.752 84.7913 51.808C84.8553 50.864 84.8873 49.408 84.8873 47.44H81.9593C81.7833 48.192 81.6073 49.008 81.4313 49.888C81.2553 50.752 81.0553 51.616 80.8313 52.48C80.5433 53.664 80.2313 54.792 79.8953 55.864C79.5753 56.936 79.2473 57.872 78.9113 58.672C78.5913 59.488 78.2793 60.128 77.9753 60.592C77.6553 61.072 77.3513 61.312 77.0633 61.312C76.7593 61.312 76.5193 61.136 76.3433 60.784C76.1673 60.432 76.0793 60.032 76.0793 59.584C76.0793 59.216 76.1113 58.872 76.1753 58.552C76.2393 58.248 76.3273 57.976 76.4393 57.736L76.8953 57.76C76.8793 57.84 76.8713 57.912 76.8713 57.976C76.8553 58.056 76.8473 58.136 76.8473 58.216C76.8473 58.648 76.9993 58.864 77.3033 58.864C77.5593 58.864 77.8153 58.68 78.0713 58.312C78.3273 57.944 78.5753 57.456 78.8153 56.848C79.0713 56.24 79.3193 55.536 79.5593 54.736C79.7993 53.936 80.0233 53.104 80.2313 52.24C80.4393 51.376 80.6313 50.504 80.8073 49.624C80.9833 48.744 81.1273 47.928 81.2393 47.176C81.3673 46.408 81.4633 45.736 81.5273 45.16C81.6073 44.584 81.6473 44.16 81.6473 43.888C81.6473 42.928 81.4873 42.28 81.1673 41.944C80.8633 41.592 80.3433 41.416 79.6073 41.416C79.5273 41.416 79.4393 41.424 79.3433 41.44C79.2473 41.44 79.1433 41.448 79.0313 41.464V40.96L88.1513 40.936ZM84.8873 46.576C84.8873 45.904 84.8873 45.36 84.8873 44.944C84.8873 44.512 84.8793 44.192 84.8633 43.984C84.8313 43.456 84.7913 43.04 84.7433 42.736C84.7113 42.416 84.6713 42.176 84.6233 42.016C84.5913 41.84 84.5513 41.728 84.5033 41.68C84.4553 41.632 84.4073 41.608 84.3593 41.608C83.9273 41.592 83.5993 41.712 83.3753 41.968C83.1673 42.208 82.9993 42.552 82.8713 43C82.7593 43.448 82.6553 43.976 82.5593 44.584C82.4633 45.192 82.3273 45.856 82.1513 46.576H84.8873Z" fill="black"/>
<path d="M41.2848 67.328C41.2848 66.32 41.2848 65.504 41.2848 64.88C41.2848 64.232 41.2728 63.752 41.2488 63.44C41.2008 62.648 41.1408 62.024 41.0688 61.568C41.0208 61.088 40.9608 60.728 40.8888 60.488C40.8408 60.224 40.7808 60.056 40.7088 59.984C40.6368 59.912 40.5648 59.876 40.4928 59.876C39.8448 59.852 39.3168 60.092 38.9088 60.596C38.5248 61.076 38.2128 61.712 37.9728 62.504C37.7568 63.296 37.6008 64.208 37.5048 65.24C37.4088 66.272 37.3248 67.316 37.2528 68.372C37.1088 70.484 36.9048 72.296 36.6408 73.808C36.4008 75.296 36.1008 76.52 35.7408 77.48C35.4048 78.44 34.9968 79.148 34.5168 79.604C34.0608 80.036 33.5448 80.252 32.9688 80.252C32.5128 80.252 32.1528 79.988 31.8888 79.46C31.6248 78.932 31.4928 78.332 31.4928 77.66C31.4928 77.108 31.5408 76.604 31.6368 76.148C31.7328 75.668 31.8648 75.248 32.0328 74.888L32.7168 74.924C32.6928 75.044 32.6688 75.164 32.6448 75.284C32.6448 75.38 32.6448 75.488 32.6448 75.608C32.6448 76.256 32.8728 76.58 33.3288 76.58C33.8328 76.58 34.2648 76.328 34.6248 75.824C34.9848 75.32 35.2728 74.672 35.4888 73.88C35.7288 73.064 35.9088 72.164 36.0288 71.18C36.1488 70.172 36.2328 69.176 36.2808 68.192C36.3528 67.208 36.3888 66.284 36.3888 65.42C36.4128 64.556 36.4248 63.848 36.4248 63.296C36.4248 61.856 36.1848 60.872 35.7048 60.344C35.2248 59.816 34.4328 59.552 33.3288 59.552C33.2088 59.552 33.0768 59.564 32.9328 59.588C32.7888 59.588 32.6328 59.6 32.4648 59.624V58.868H46.1808V59.66C45.5568 59.66 45.1008 59.756 44.8128 59.948C44.5488 60.14 44.3568 60.392 44.2368 60.704C44.1408 61.016 44.0928 61.376 44.0928 61.784C44.0928 62.168 44.0568 62.552 43.9848 62.936C43.8888 63.704 43.8168 64.688 43.7688 65.888C43.7448 67.064 43.7328 68.48 43.7328 70.136C43.7328 71.768 43.7328 73.16 43.7328 74.312C43.7328 75.464 43.7928 76.4 43.9128 77.12C44.0328 77.84 44.2248 78.368 44.4888 78.704C44.7768 79.04 45.1968 79.208 45.7488 79.208V80H39.1608V79.208C40.2648 79.208 40.8648 78.656 40.9608 77.552C40.9848 77.408 41.0448 76.46 41.1408 74.708C41.2368 72.932 41.2848 70.472 41.2848 67.328Z" fill="black"/>
<path d="M47.2546 80V79.208C47.9026 79.208 48.3946 79.016 48.7306 78.632C48.9226 78.392 49.0546 78.068 49.1266 77.66C49.1506 77.516 49.2226 76.772 49.3426 75.428C49.4386 74.3 49.4866 72.188 49.4866 69.092C49.5106 66.14 49.4866 64.256 49.4146 63.44C49.3906 62.888 49.3426 62.336 49.2706 61.784C49.2226 61.208 49.0786 60.752 48.8386 60.416C48.4786 59.96 47.9026 59.732 47.1106 59.732V58.976H58.5586V64.988H57.8026C57.7546 61.484 56.6266 59.732 54.4186 59.732C53.0986 59.732 52.3906 60.884 52.2946 63.188L52.1506 66.572C53.3986 66.572 54.2266 66.332 54.6346 65.852C54.9946 65.444 55.2346 64.544 55.3546 63.152H56.1466V76.076H55.2826C55.1386 73.076 55.0066 71.276 54.8866 70.676C54.6226 69.404 54.2746 68.54 53.8426 68.084C53.4106 67.628 52.8466 67.4 52.1506 67.4C52.0546 70.544 52.0066 72.548 52.0066 73.412C51.9106 76.556 52.1146 78.368 52.6186 78.848C52.9786 79.112 53.5186 79.244 54.2386 79.244C54.4306 79.244 54.6466 79.232 54.8866 79.208C55.9666 79.208 56.7586 78.812 57.2626 78.02C57.7666 77.228 58.0426 75.872 58.0906 73.952H58.8466V80H47.2546Z" fill="black"/>
<path d="M60.0062 78.632C60.4382 78.728 60.7982 78.728 61.0862 78.632C61.3742 78.536 61.6022 78.404 61.7702 78.236C61.9382 78.044 62.0582 77.84 62.1302 77.624C62.2262 77.384 62.2982 77.192 62.3462 77.048C62.7302 75.8 63.0902 74.468 63.4262 73.052C63.7862 71.636 64.0862 70.292 64.3262 69.02C64.5662 67.724 64.7582 66.572 64.9022 65.564C65.0462 64.532 65.1182 63.776 65.1182 63.296C65.1182 61.856 64.8782 60.884 64.3982 60.38C63.9422 59.852 63.1622 59.588 62.0582 59.588C61.9382 59.588 61.8062 59.6 61.6622 59.624C61.5182 59.624 61.3622 59.636 61.1942 59.66V58.904L74.8742 58.868V59.66C74.2502 59.66 73.7942 59.756 73.5062 59.948C73.2422 60.14 73.0502 60.392 72.9302 60.704C72.8342 61.016 72.7862 61.376 72.7862 61.784C72.7862 62.168 72.7502 62.552 72.6782 62.936C72.5822 63.704 72.5102 64.688 72.4622 65.888C72.4382 67.064 72.4262 68.48 72.4262 70.136C72.4262 70.64 72.4262 71.192 72.4262 71.792C72.4262 72.368 72.4262 72.944 72.4262 73.52C72.4262 74.072 72.4262 74.6 72.4262 75.104C72.4502 75.608 72.4862 76.052 72.5342 76.436C72.6542 77.42 72.8462 78.104 73.1102 78.488C73.3742 78.848 73.9022 78.86 74.6942 78.524L75.0902 83.456H74.3702C74.2022 82.712 73.8662 81.956 73.3622 81.188C72.8582 80.42 72.0662 80.036 70.9862 80.036L63.9662 80C62.8862 80 62.0942 80.384 61.5902 81.152C61.0862 81.92 60.7382 82.676 60.5462 83.42H59.8262L60.0062 78.632ZM65.8382 67.328C65.6942 68.048 65.5262 68.828 65.3342 69.668C65.1662 70.508 64.9862 71.36 64.7942 72.224C64.6022 73.064 64.3982 73.892 64.1822 74.708C63.9902 75.524 63.7982 76.268 63.6062 76.94C63.5582 77.108 63.5102 77.276 63.4622 77.444C63.4382 77.588 63.4382 77.732 63.4622 77.876C63.5102 78.02 63.6062 78.164 63.7502 78.308C63.8942 78.428 64.1222 78.56 64.4342 78.704H68.2502C68.6102 78.68 68.8862 78.608 69.0782 78.488C69.2702 78.344 69.4142 78.176 69.5102 77.984C69.6062 77.792 69.6662 77.588 69.6902 77.372C69.7142 77.156 69.7262 76.952 69.7262 76.76C69.7742 75.92 69.8222 74.696 69.8702 73.088C69.9422 71.456 69.9782 69.536 69.9782 67.328C69.9782 66.32 69.9782 65.504 69.9782 64.88C69.9782 64.232 69.9662 63.752 69.9422 63.44C69.8942 62.648 69.8342 62.024 69.7622 61.568C69.7142 61.112 69.6542 60.776 69.5822 60.56C69.5342 60.344 69.4742 60.212 69.4022 60.164C69.3302 60.092 69.2582 60.056 69.1862 60.056C68.5382 60.032 68.0462 60.2 67.7102 60.56C67.3982 60.92 67.1462 61.424 66.9542 62.072C66.7622 62.72 66.5942 63.488 66.4502 64.376C66.3062 65.264 66.1022 66.248 65.8382 67.328Z" fill="black"/>
<path d="M85.3263 66.824H84.6063C84.3423 63.584 84.0183 61.64 83.6343 60.992C83.1063 60.128 82.5663 59.744 82.0143 59.84C81.2703 59.96 80.5983 60.584 79.9983 61.712C79.1103 63.392 78.6663 65.864 78.6663 69.128C78.6663 74.408 79.7823 77.048 82.0143 77.048C83.6223 77.048 84.4503 75.56 84.4983 72.584H85.3263C85.3263 77.768 83.9343 80.36 81.1503 80.36C79.4943 80.36 78.1983 79.148 77.2623 76.724C76.4943 74.66 76.1223 72.284 76.1463 69.596C76.1943 66.476 76.7463 63.944 77.8023 62C78.9543 59.936 80.4783 58.904 82.3743 58.904C83.5983 58.904 84.5823 58.916 85.3263 58.94V66.824Z" fill="black"/>
<path d="M100.047 59.012V66.608H99.2915C99.3635 64.328 99.0635 62.564 98.3915 61.316C97.8155 60.26 97.0715 59.732 96.1595 59.732C95.1995 59.732 94.7195 60.92 94.7195 63.296C94.7195 69.968 94.7795 74.012 94.8995 75.428C95.0435 76.844 95.1155 77.612 95.1155 77.732C95.1875 78.188 95.3195 78.536 95.5115 78.776C95.8715 79.112 96.3755 79.28 97.0235 79.28L97.0595 80.036H89.8595V79.28C90.5315 79.28 91.0355 79.112 91.3715 78.776C91.5635 78.536 91.6955 78.188 91.7675 77.732C91.7915 77.612 91.8635 76.844 91.9835 75.428C92.2715 72.26 92.3315 68.216 92.1635 63.296C92.0915 60.92 91.6475 59.732 90.8315 59.732C89.6315 59.732 88.7795 60.272 88.2755 61.352C87.7715 62.432 87.5435 64.184 87.5915 66.608H86.8715V59.012H100.047Z" fill="black"/>
<path d="M113.16 78.812C112.248 79.604 110.46 80 107.796 80H101.388V79.244C102.252 79.004 102.768 78.788 102.936 78.596C103.128 78.38 103.26 78.092 103.332 77.732C103.356 77.564 103.428 76.856 103.548 75.608C103.644 74.432 103.704 72.224 103.728 68.984C103.752 65.864 103.728 63.896 103.656 63.08C103.632 62.624 103.596 62.156 103.548 61.676C103.5 61.172 103.344 60.764 103.08 60.452C102.72 59.972 102.144 59.732 101.352 59.732V58.976H108.12C111.552 58.976 113.148 60.68 112.908 64.088C112.86 65.024 112.5 65.828 111.828 66.5C111.3 67.076 110.688 67.448 109.992 67.616C111.168 67.736 112.224 68.252 113.16 69.164C114.288 70.244 114.864 71.684 114.888 73.484C114.936 75.98 114.36 77.756 113.16 78.812ZM106.212 73.016C106.212 74.984 106.272 76.268 106.392 76.868C106.704 78.452 107.448 79.244 108.624 79.244C110.928 79.244 112.032 77.24 111.936 73.232C111.864 69.992 110.544 68.324 107.976 68.228C107.592 68.204 107.028 68.204 106.284 68.228C106.236 69.932 106.212 71.528 106.212 73.016ZM106.284 67.328C106.284 67.328 106.74 67.328 107.652 67.328C109.452 67.328 110.436 66.296 110.604 64.232C110.652 63.872 110.676 63.536 110.676 63.224C110.676 60.944 109.884 59.78 108.3 59.732C107.772 59.708 107.328 59.972 106.968 60.524C106.632 61.076 106.452 61.784 106.428 62.648C106.356 63.584 106.308 65.144 106.284 67.328Z" fill="black"/>
<path d="M129.728 60.488C129.368 61.016 129.116 62.036 128.972 63.548C128.756 66.164 128.756 70.064 128.972 75.248C129.044 77.024 129.296 78.164 129.728 78.668C130.04 79.052 130.544 79.244 131.24 79.244V80.036H124.148V79.244C124.676 79.244 125.144 79.04 125.552 78.632C125.984 78.176 126.212 77.096 126.236 75.392L126.344 65.204L121.124 75.5C121.124 76.316 121.184 76.976 121.304 77.48C121.424 77.96 121.616 78.344 121.88 78.632C122.216 79.04 122.684 79.244 123.284 79.244L123.248 80.036H116.264V79.244C116.864 79.268 117.368 79.064 117.776 78.632C118.112 78.224 118.292 77.12 118.316 75.32C118.436 72.296 118.496 69.812 118.496 67.868C118.52 65.9 118.508 64.46 118.46 63.548C118.364 61.892 118.136 60.812 117.776 60.308C117.512 59.948 116.972 59.768 116.156 59.768V59.012H123.392V59.768C122.672 59.768 122.132 60.008 121.772 60.488C121.508 60.8 121.34 61.256 121.268 61.856C121.22 62.432 121.172 63.008 121.124 63.584C121.124 63.728 121.112 64.22 121.088 65.06C121.088 65.876 121.076 66.8 121.052 67.832C121.052 68.864 121.052 69.884 121.052 70.892C121.052 71.9 121.052 72.656 121.052 73.16L126.344 62.864C126.272 62.048 126.188 61.496 126.092 61.208C125.996 60.896 125.888 60.656 125.768 60.488C125.408 60.008 124.844 59.768 124.076 59.768L124.112 59.012H131.24V59.768C130.568 59.768 130.064 60.008 129.728 60.488Z" fill="black"/>
<path d="M132.966 80V79.208C133.614 79.208 134.106 79.016 134.442 78.632C134.634 78.392 134.766 78.068 134.838 77.66C134.862 77.516 134.934 76.772 135.054 75.428C135.15 74.3 135.198 72.188 135.198 69.092C135.222 66.14 135.198 64.256 135.126 63.44C135.102 62.888 135.054 62.336 134.982 61.784C134.934 61.208 134.79 60.752 134.55 60.416C134.19 59.96 133.614 59.732 132.822 59.732V58.976H144.27V64.988H143.514C143.466 61.484 142.338 59.732 140.13 59.732C138.81 59.732 138.102 60.884 138.006 63.188L137.862 66.572C139.11 66.572 139.938 66.332 140.346 65.852C140.706 65.444 140.946 64.544 141.066 63.152H141.857V76.076H140.994C140.85 73.076 140.718 71.276 140.598 70.676C140.334 69.404 139.986 68.54 139.554 68.084C139.122 67.628 138.558 67.4 137.862 67.4C137.766 70.544 137.718 72.548 137.718 73.412C137.622 76.556 137.826 78.368 138.33 78.848C138.69 79.112 139.23 79.244 139.95 79.244C140.142 79.244 140.358 79.232 140.598 79.208C141.678 79.208 142.47 78.812 142.974 78.02C143.478 77.228 143.754 75.872 143.802 73.952H144.558V80H132.966Z" fill="black"/>
<path d="M21.6988 53.036C22.2268 52.388 22.8268 52.064 23.4988 52.064C23.7628 52.064 24.0628 52.076 24.3988 52.1C24.7348 52.1 25.0348 52.148 25.2988 52.244C25.5868 52.34 25.8148 52.484 25.9828 52.676C26.1508 52.844 26.1868 53.108 26.0908 53.468C25.8988 54.068 25.6228 54.848 25.2628 55.808C24.9268 56.744 24.6748 57.692 24.5068 58.652C24.3388 59.612 24.3508 60.488 24.5428 61.28C24.7588 62.072 25.3348 62.612 26.2708 62.9C26.4628 62.996 26.7028 63.044 26.9908 63.044C27.8548 63.092 28.6228 62.708 29.2948 61.892C30.0148 61.052 30.3628 60.26 30.3388 59.516C30.3388 58.988 30.1708 58.532 29.8348 58.148C29.4988 57.74 29.1268 57.536 28.7188 57.536C28.2388 57.488 27.8548 57.74 27.5668 58.292C28.1188 58.412 28.5028 58.52 28.7188 58.616C29.1508 58.88 29.3188 59.276 29.2228 59.804C29.0788 60.572 28.5748 60.944 27.7108 60.92C27.4708 60.92 27.2308 60.884 26.9908 60.812C26.5348 60.692 26.2228 60.38 26.0548 59.876C25.9108 59.372 25.8748 58.784 25.9468 58.112C26.0188 57.416 26.1868 56.696 26.4508 55.952C26.7388 55.184 27.0868 54.488 27.4948 53.864C27.9268 53.24 28.4068 52.736 28.9348 52.352C29.4868 51.944 30.0508 51.764 30.6268 51.812V51.2H17.9188V51.956C18.8788 51.884 19.5628 51.956 19.9708 52.172C20.2348 52.316 20.3668 52.52 20.3668 52.784C20.3668 53.024 20.3668 53.3115 20.0428 53.7238C19.9708 53.8155 19.0784 54.876 19 55C18.9216 55.124 16.5 58 15.5 60.92C14.5 63.84 13.4815 67.852 14 72C14.5185 76.148 18.5 78 20.5 79C20.3412 77.5691 20.4098 77.9955 20.5 77C19.524 75.7985 18.5011 72.8992 18.3325 72C17.733 68.8026 17.9188 65.6743 17.9188 64C17.9188 62.0739 18.8428 58.748 20.0428 56.06C20.6428 54.692 21.1948 53.684 21.6988 53.036Z" fill="black"/>
<path d="M26.5 75.5C28.871 75.824 30 78 28.5 79C27 80 23.0954 79.0848 21.5 78C21.505 78.9516 21.2353 78.2006 21.5 79.5C22.5 80 26.5 80.9427 28.871 80.0875C30.5 79.5 30.6934 77.3415 29.5 76.148C28.3066 74.9546 27.5 74.5 25 74.5C22.5 74.5 20.8595 75.284 20.5 77C20.5 77 21.1054 77.3577 21.5 78C21.7725 76.3554 24.129 75.176 26.5 75.5Z" fill="black"/>
<path d="M20.5 77C20.4098 77.9955 20.3412 77.5691 20.5 79L21.5 79.5C21.2353 78.2006 21.505 78.9516 21.5 78C21.1054 77.3577 20.5 77 20.5 77Z" fill="black"/>
<path d="M63.6062 91.632C46.5395 91.996 36.6932 90.9311 31.0684 89.132C25.4436 87.3329 22.2527 83.1953 21.5 79.5L20.5 79C21.0396 83.8602 23.6308 88.39 30.7804 90.632C37.93 92.874 54.4554 95.132 72.4416 93.632C94.8996 91.7591 110.667 85.1107 120.5 86.5C124.148 87.0154 132.942 86.632 132.442 92.132C131.942 97.632 124.692 95.132 126.442 91.632C126.942 90.632 128.942 90.632 128.942 90.632V90.132H122.942C122.942 90.132 122.922 90.3957 122.942 90.632C123.442 96.632 135.493 99.279 134.442 90.632C134 87 131.24 85.639 128 85C106.8 80.819 87.0515 91.132 63.6062 91.632Z" fill="black"/>
<path d="M32.5 57L144.5 57" stroke="black"/>
<path d="M30 39H118" stroke="black"/>
<path d="M30 14.5L105.5 14.5C109.271 14.5 113.519 14.721 116 11C117 9.50003 118 5.50007 114.5 2.50003C110.857 -0.622213 106.5 1.99998 105.5 4.49998C103.203 10.2423 110 11 113.5 7V6.5H110C110 6.5 110.362 6.86193 110.5 7C111 7.5 110 9.11634 108 8.00003C106.5 7.1628 107 5.00002 108 4C109.525 2.47494 111.776 3.20407 113.5 4.49998C115.245 5.81173 115.131 7.91022 114.5 10C113.409 13.61 109.271 13.5 105.5 13.5H30V14.5Z" fill="black"/>
<path d="M21.5 82L145 82" stroke="black"/>
<path d="M70.75 7.54321L71.5382 8.51335C73.0957 10.4302 75.434 11.5432 77.9039 11.5432L94.3754 11.5432C95.7726 11.5432 97.1506 11.2179 98.4003 10.5931L98.5 10.5432M70.75 7.54321L68.722 5.04728C68.0038 4.16333 67.9794 2.90401 68.6627 1.99286C69.6093 0.730834 71.4775 0.660433 72.5163 1.84764L72.5789 1.91915C73.3998 2.85734 73.4253 4.25054 72.6391 5.21807L70.75 7.54321ZM70.75 7.54321L69.8451 8.65688C68.3614 10.483 66.1339 11.5432 63.781 11.5432L46.1246 11.5432C44.7274 11.5432 43.3494 11.2179 42.0997 10.5931L42 10.5432M87 9.54321L94.7422 9.54321C95.2341 9.54321 95.7127 9.38368 96.1062 9.08855L96.3563 8.90099C97.0311 8.3949 97.2823 7.49899 96.969 6.71584C96.6857 6.00761 95.9998 5.54321 95.237 5.54321H95.1037C94.4141 5.54321 93.7702 5.88783 93.3877 6.46157L93 7.04321M53.5 9.54321L45.7577 9.54321C45.2659 9.54321 44.7873 9.38368 44.3937 9.08855L44.1437 8.90099C43.4689 8.3949 43.2177 7.49899 43.5309 6.71584C43.8142 6.00761 44.5001 5.54321 45.2629 5.54321H45.3962C46.0858 5.54321 46.7297 5.88783 47.1122 6.46157L47.5 7.04321" stroke="black"/>
<path d="M124.5 56.5C124.5 55.6839 124.724 54.8987 125.051 54.1881C126.085 51.937 128.963 51.7406 131.112 52.9725V52.9725L133.697 54.4541C134.351 54.8293 135.09 55.032 135.845 55.0432V55.0432C137.647 55.0701 139.288 54.0074 140.001 52.3515L140.326 51.5961C140.74 50.6351 140.844 49.5693 140.626 48.5462L140.559 48.2339C140.213 46.6137 139.006 45.3138 137.416 44.8481L137.222 44.7914C136.681 44.6329 136.11 44.6019 135.555 44.7009L134.728 44.8483C134.149 44.9516 133.649 45.3144 133.372 45.833V45.833C132.785 46.9305 133.38 48.2882 134.586 48.5992L134.712 48.6319C135.098 48.7314 135.504 48.7149 135.881 48.5846L136.044 48.528C136.876 48.2395 137.506 47.5486 137.716 46.6928L138.293 44.3377C138.414 43.8456 138.378 43.3281 138.192 42.8569V42.8569C137.776 41.8065 138.133 40.5696 139.208 40.2234C139.614 40.0927 140.058 40 140.5 40" stroke="black"/>
<path d="M111 55C115.296 55 122 55 122 55C122 55 123 51 126 50" stroke="black"/>
<path fill-rule="evenodd" clip-rule="evenodd" d="M141.5 40.5L141.5 34.5V23V17C141.5 17 141.777 11.6581 140 9.5C139.205 8.53487 138.747 8.08647 137.5 8.00002C135.847 7.88547 134.5 9.5 134.5 11C134.5 14 136.5 15 136.5 15C136.5 15 136.274 19.9689 136 22.5C135.702 25.2453 135 28.5 135 28.5L134.5 32C134.5 32 138.5 32.5 140 35.5C140.873 37.2465 140 40.5 140 40.5H141.5ZM140.5 24.5V33.5C140.5 33.5 139.088 32.1157 138 31.5C137.085 30.9823 135.5 30.5 135.5 30.5C135.5 30.5 135.5 29 136.5 23C136.787 21.2762 137 15 137 15C137 15 135.086 13.0188 135.5 11.5C135.791 10.4344 136.395 9.50002 137.5 9.50002C138.605 9.50002 139.506 11.012 140 12C140.5 13 140.5 17 140.5 17V24.5Z" fill="black"/>
<path d="M135.925 10.9156L139.498 11.5803L139.775 12.0936L135.702 11.4058L135.925 10.9156Z" fill="black"/>
<path d="M135.8 12.5L140.1 13.4029L140.165 13.8905L136 13L135.8 12.5Z" fill="black"/>
<path d="M137.182 14.5615L140.197 15.5699L140.182 16.0615L137.299 15.0873L137.182 14.5615Z" fill="black"/>
<path d="M137.1 16.2001L140.307 17.3988L140.292 17.8905L137.1 16.7L137.1 16.2001Z" fill="black"/>
<path d="M137.11 17.7926C137.11 17.7926 138.094 18.14 138.714 18.392C139.348 18.65 140.317 19.1 140.317 19.1L140.302 19.7C140.302 19.7 139.347 19.1681 138.706 18.8878C138.097 18.6211 137.11 18.2925 137.11 18.2925L137.11 17.7926Z" fill="black"/>
<path d="M137 19.5001C137 19.5001 138.02 19.8962 138.673 20.1501C139.327 20.4039 140.346 20.8 140.346 20.8L140.335 21.3C140.335 21.3 139.32 20.9041 138.67 20.6505C138.019 20.3968 137.004 20.0009 137.004 20.0009L137 19.5001Z" fill="black"/>
<path d="M136.836 21.2084C136.836 21.2084 137.697 21.4862 138.599 21.8415C139.296 22.1161 140.362 22.6 140.362 22.6L140.355 23.1C140.355 23.1 139.295 22.6135 138.6 22.3391C137.923 22.0717 136.845 21.7104 136.845 21.7104L136.836 21.2084Z" fill="black"/>
<path d="M136.709 23.0834C136.709 23.0834 137.5 23.2846 138.5 23.7C139.5 24.1154 140.333 24.5 140.333 24.5L140.306 25.0639C140.306 25.0639 139.204 24.4921 138.5 24.2C137.796 23.9079 136.699 23.5678 136.699 23.5678L136.709 23.0834Z" fill="black"/>
<path d="M136.577 24.7209C136.577 24.7209 137.745 25.2047 138.479 25.5472C139.232 25.8987 140.381 26.5 140.381 26.5L140.336 27.1C140.336 27.1 139.195 26.4726 138.443 26.1147C137.715 25.7686 136.549 25.2938 136.549 25.2938L136.577 24.7209Z" fill="black"/>
<path d="M136.125 26.54C136.125 26.54 137.424 27.03 138.237 27.3874C139.075 27.7552 140.35 28.4 140.35 28.4L140.333 29C140.333 29 139.073 28.2809 138.23 27.8927C137.427 27.5228 136.128 27.0507 136.128 27.0507L136.125 26.54Z" fill="black"/>
<path d="M135.841 28.1686C135.841 28.1686 137.227 28.6493 138.075 29.0494C138.979 29.4759 140.308 30.4 140.308 30.4L140.298 31.1C140.298 31.1 138.997 30.0256 138.074 29.5566C137.243 29.1338 135.851 28.6814 135.851 28.6814L135.841 28.1686Z" fill="black"/>
<path d="M107.5 41.5C107.5 41.5 111.5 41.5 116.5 41.5C118.423 41.5 120.5 41.5 120.5 44C120.5 46 117.5 47 116.5 44.5" stroke="black"/>
<path d="M32 84.5C32 84.5 19.5103 84.5 14.7824 84.5C12.9639 84.5 11 84.5 11 82.2694C11 80.4849 13.8368 79.5926 14.7824 81.8232" stroke="black"/>
</svg>
