<svg width="462" height="303" viewBox="0 0 462 303" fill="none" xmlns="http://www.w3.org/2000/svg">
<rect x="0.5" y="0.5" width="461" height="302" rx="25.5" fill="#E1DDDD" stroke="#C7C7C7"/>
<path d="M3.00015 59C3.00015 59 2.9999 38.5 3.00005 31.5C3.00036 8.99999 14 2.99994 34 2.99999C45.5 3.00002 81.0001 2.99999 81.0001 2.99999" stroke="black"/>
<path d="M69 2.99999C67.5001 7.49999 74.9201 13 63.9999 13C56 13 16.9863 8.05221 12.4997 26C9.99994 36 18.3619 40.8571 24 40C27.5908 39.4541 31.8967 36.0196 31 32.5C30.2882 29.7062 27.5 28 23 29.5" stroke="black"/>
<path d="M40.5 3.49999C40.5 12.5 47.5 23.5 57.5 29" stroke="black"/>
<path d="M459 61.1537C459 61.1537 459 39.8653 459 32.5961C458.999 9.00002 446.5 3.00006 426.808 3.00003C414.865 3.00001 378 3.00003 378 3.00003" stroke="black"/>
<path d="M390.462 3.00002C392.019 7.67308 384.314 13.3846 395.654 13.3846C403.961 13.3846 444.476 8.24654 449.135 26.8846C451.731 37.2691 443.047 42.3131 437.192 41.423C433.463 40.8561 428.992 37.2896 429.923 33.6345C430.662 30.7333 433.558 28.9615 438.231 30.5192" stroke="black"/>
<path d="M420.058 3.51926C420.058 12.8654 412.788 24.2884 402.404 29.9999" stroke="black"/>
<path d="M3.60269 244.148C3.60269 244.148 3.60244 264.594 3.60259 271.575C3.6029 294.016 14.5735 300 34.5206 300C45.9902 300 81.3965 300 81.3965 300" stroke="black"/>
<path d="M69.4281 300C67.9322 295.512 75.3326 290.026 64.4412 290.026C56.4625 290.026 17.5519 294.961 13.0771 277.061C10.584 267.087 18.9238 262.243 24.547 263.098C28.1284 263.642 32.4229 267.068 31.5285 270.578C30.8186 273.364 28.0378 275.066 23.5497 273.57" stroke="black"/>
<path d="M41.0034 299.501C41.0034 290.525 47.9849 279.554 57.9585 274.069" stroke="black"/>
<path d="M458.397 242C458.397 242 458.397 263.232 458.397 270.482C458.397 294.016 445.93 300 426.29 300C414.379 300 377.611 300 377.611 300" stroke="black"/>
<path d="M390.04 300C391.594 295.339 383.909 289.643 395.219 289.643C403.504 289.643 443.911 294.767 448.558 276.179C451.147 265.821 442.487 260.791 436.647 261.679C432.928 262.244 428.468 265.801 429.397 269.446C430.134 272.34 433.022 274.107 437.683 272.554" stroke="black"/>
<path d="M419.558 299.482C419.558 290.161 412.308 278.768 401.951 273.071" stroke="black"/>
</svg>
