<svg width="462" height="214" viewBox="0 0 462 214" fill="none" xmlns="http://www.w3.org/2000/svg">
<rect x="0.5" y="0.5" width="461" height="213" rx="25.5" fill="#E1DDDD" stroke="#C7C7C7"/>
<path d="M3.00015 59C3.00015 59 2.9999 38.5 3.00005 31.5C3.00036 9 14 2.99995 34 3C45.5 3.00003 81.0001 3 81.0001 3" stroke="black"/>
<path d="M69 3C67.5001 7.5 74.9201 13 63.9999 13C56 13 16.9863 8.05222 12.4997 26C9.99994 36 18.3619 40.8571 24 40C27.5908 39.4541 31.8967 36.0197 31 32.5C30.2882 29.7062 27.5 28 23 29.5" stroke="black"/>
<path d="M40.5 3.5C40.5 12.5 47.5 23.5 57.5 29" stroke="black"/>
<path d="M459 61.1537C459 61.1537 459 39.8653 459 32.5961C458.999 9 446.5 3.00004 426.808 3.00001C414.865 2.99999 378 3.00001 378 3.00001" stroke="black"/>
<path d="M390.462 3.00003C392.019 7.67309 384.314 13.3846 395.654 13.3846C403.961 13.3846 444.476 8.24655 449.135 26.8846C451.731 37.2692 443.047 42.3131 437.192 41.423C433.463 40.8561 428.992 37.2896 429.923 33.6345C430.662 30.7333 433.558 28.9615 438.231 30.5192" stroke="black"/>
<path d="M420.058 3.51926C420.058 12.8654 412.788 24.2884 402.404 29.9999" stroke="black"/>
<path d="M3.60269 155.148C3.60269 155.148 3.60244 175.594 3.60259 182.575C3.6029 205.016 14.5735 211 34.5206 211C45.9902 211 81.3965 211 81.3965 211" stroke="black"/>
<path d="M69.4281 211C67.9322 206.512 75.3326 201.026 64.4412 201.026C56.4625 201.026 17.5519 205.961 13.0771 188.061C10.584 178.087 18.9238 173.243 24.547 174.098C28.1284 174.642 32.4229 178.068 31.5285 181.578C30.8186 184.364 28.0378 186.066 23.5497 184.57" stroke="black"/>
<path d="M41.0034 210.501C41.0034 201.525 47.9849 190.554 57.9585 185.069" stroke="black"/>
<path d="M458.397 153C458.397 153 458.397 174.232 458.397 181.482C458.397 205.016 445.93 211 426.29 211C414.379 211 377.611 211 377.611 211" stroke="black"/>
<path d="M390.04 211C391.594 206.339 383.909 200.643 395.219 200.643C403.504 200.643 443.911 205.767 448.558 187.179C451.147 176.821 442.487 171.791 436.647 172.679C432.928 173.244 428.468 176.801 429.397 180.446C430.134 183.34 433.022 185.107 437.683 183.554" stroke="black"/>
<path d="M419.558 210.482C419.558 201.161 412.308 189.768 401.951 184.071" stroke="black"/>
</svg>
