<?xml version="1.0" encoding="utf-8"?>
<!-- Generator: Adobe Illustrator 25.3.1, SVG Export Plug-In . SVG Version: 6.00 Build 0)  -->
<svg version="1.1" id="Слой_1" xmlns="http://www.w3.org/2000/svg" xmlns:xlink="http://www.w3.org/1999/xlink" x="0px" y="0px"
	 viewBox="0 0 595.28 841.89" style="enable-background:new 0 0 595.28 841.89;" xml:space="preserve">
<style type="text/css">
	.st0{fill:#D8D4D3;}
</style>
<circle class="st0" cx="297.64" cy="420.95" r="125"/>
<path d="M367.68,432.07c0,0-30.59,25.13-23.31,9.49c4.31-9.26-13.84-8.69-19.21-14.46c-26.6-18.14-44.52-9.65-44.52-9.65
	l-4.05-19.58c-0.47-7.05,4.86-13.15,11.91-13.62l77.57-5.2c11.95-0.8,22.3,8.24,23.1,20.19l-8.14,14.48
	C374.52,421.46,377.73,421.78,367.68,432.07z"/>
<path d="M390.17,416.9l-26.38,32.54c-0.7,0.86-1.96,0.99-2.82,0.29l-19.76-16.02c-0.86-0.7-0.99-1.96-0.29-2.82l33.86-41.76
	c1.63-2.01,4.59-2.32,6.6-0.69l6.37,5.16C394.84,399.37,395.93,409.8,390.17,416.9z"/>
<path d="M351.11,424.06l-15.41,21.27c-4.84,6.68-2.35,16.28,5.55,21.46l0,0c3.33,2.18,7.69,1.66,9.73-1.15l20.48-28.27
	c2.54-3.5,1.23-8.54-2.91-11.25l-5.33-3.49C359.07,419.91,353.65,420.55,351.11,424.06z"/>
<path d="M332.79,449.67l-9.08,5.81c-8.6,5.5-10.94,16.58-5.21,24.74l0.06,0.08c1.86,2.66,5.64,3.36,8.44,1.56l19.59-12.54
	c5.72-3.66,7.28-11.03,3.47-16.46l0,0C346.24,447.44,338.51,446.01,332.79,449.67z"/>
<path d="M287.13,384.9l-48.47-0.98c-3.04-0.06-5.55,2.35-5.61,5.39l0,0c-0.14,6.77,5.24,12.36,12,12.5l39.18,0.79
	c5.6,0.11,10.23-4.33,10.34-9.93v0C294.67,388.46,291.33,384.99,287.13,384.9z"/>
<path d="M235.41,384.09l-44.57,16.6c-1.45,0.54-2.18,2.15-1.64,3.59l1.28,3.44c2.24,6,8.92,9.06,14.92,6.82l29.58-11.01
	c5.59-2.08,8.43-8.3,6.35-13.88l-1.28-3.44C239.35,384.35,237.28,383.4,235.41,384.09z"/>
<path d="M285.12,391.24l-47.19,17.65c-1.87,0.7-2.82,2.78-2.12,4.66l1.77,4.74c1.84,4.91,7.31,7.41,12.23,5.57l39.61-14.81
	c3.96-1.48,5.97-5.9,4.49-9.86l-1.77-4.74C291.09,391.62,287.94,390.18,285.12,391.24z"/>
<path d="M238.85,408.35l-30.73,27.76c-1,0.9-1.08,2.44-0.18,3.44l3.24,3.59c3.74,4.14,10.13,4.47,14.27,0.73l20.4-18.42
	c3.85-3.48,4.15-9.42,0.68-13.27l-3.24-3.59C242.11,407.29,240.13,407.19,238.85,408.35z"/>
<path d="M298.34,393.93l-41.23,22.75c-1.64,0.9-2.23,2.96-1.33,4.59l2.28,4.14c2.37,4.29,7.77,5.86,12.07,3.49l34.61-19.1
	c3.46-1.91,4.72-6.27,2.81-9.73l-2.28-4.14C303.91,393.47,300.81,392.57,298.34,393.93z"/>
<path d="M256.86,416.87l-19.79,33.27c-0.64,1.08-0.29,2.48,0.79,3.12l3.88,2.31c4.48,2.67,10.28,1.19,12.94-3.29l13.13-22.08
	c2.48-4.17,1.11-9.56-3.06-12.04l-3.88-2.31C259.49,415.02,257.69,415.48,256.86,416.87z"/>
<path d="M325.59,393.35l-41.23,22.75c-1.64,0.9-2.23,2.96-1.33,4.59l2.28,4.14c2.37,4.29,7.77,5.86,12.07,3.49l34.61-19.1
	c3.46-1.91,4.72-6.27,2.81-9.73l-2.28-4.14C331.16,392.89,328.06,391.99,325.59,393.35z"/>
<path d="M282.99,418.62l-19.79,33.27c-0.64,1.08-0.29,2.48,0.79,3.12l3.88,2.31c4.48,2.67,10.28,1.19,12.94-3.29l13.13-22.08
	c2.48-4.17,1.11-9.56-3.06-12.04L287,417.6C285.61,416.78,283.81,417.23,282.99,418.62z"/>
<path d="M317.49,386.99l-16.12-4.58c-5.12-1.45-10.45,1.52-11.9,6.64l-1.28,4.5c-0.52,1.82,0.54,3.72,2.37,4.24l29.39,8.34
	c1.59,0.45,3.25-0.47,3.71-2.07l1.14-4C326.39,394.44,323.12,388.59,317.49,386.99z"/>
<path d="M293.21,382.61l-15.7,5.85c-4.99,1.86-7.53,7.41-5.67,12.39l1.63,4.39c0.66,1.78,2.64,2.68,4.42,2.02l28.63-10.66
	c1.55-0.58,2.34-2.31,1.77-3.86l-1.45-3.9C304.79,383.36,298.69,380.57,293.21,382.61z"/>
</svg>
