<?xml version="1.0" encoding="utf-8"?>
<!-- Generator: Adobe Illustrator 25.3.1, SVG Export Plug-In . SVG Version: 6.00 Build 0)  -->
<svg version="1.1" id="Слой_1" xmlns="http://www.w3.org/2000/svg" xmlns:xlink="http://www.w3.org/1999/xlink" x="0px" y="0px"
	 viewBox="0 0 595.28 841.89" style="enable-background:new 0 0 595.28 841.89;" xml:space="preserve">
<style type="text/css">
	.st0{fill:#D8D4D3;}
	.st1{fill:#A9A9A9;}
	.st2{fill:#BFBEBE;}
	.st3{stroke:#000000;stroke-miterlimit:10;}
</style>
<circle class="st0" cx="306.17" cy="435.64" r="125"/>
<rect x="315.15" y="358.61" transform="matrix(-0.4042 -0.9147 0.9147 -0.4042 82.5775 869.8107)" class="st1" width="18.84" height="98.81"/>
<rect x="328.34" y="375.17" transform="matrix(-0.4042 -0.9147 0.9147 -0.4042 78.4828 899.4311)" class="st2" width="7.66" height="97.96"/>
<g>
	<path d="M366.31,451.41c-5.08,5.05-11.14,9.11-17.74,11.83c-6.61,2.7-13.73,4.04-20.81,3.99c-14.18-0.05-28.07-5.91-38.1-15.71
		c-10.06-9.77-16.31-23.5-16.74-37.71c-0.24-7.09,0.91-14.26,3.44-20.96c2.53-6.7,6.46-12.88,11.42-18.08
		c5-5.16,11.02-9.35,17.64-12.22c6.62-2.85,13.81-4.35,21.01-4.44c7.2-0.06,14.41,1.3,21.08,3.99c6.68,2.69,12.81,6.72,17.94,11.74
		c5.13,5.02,9.3,11.05,12.12,17.67c2.84,6.61,4.35,13.77,4.45,20.96c0.07,7.19-1.27,14.39-3.96,21.05
		C375.38,440.2,371.33,446.31,366.31,451.41z M360.58,445.81c8.53-8.82,13.32-21,13.14-33.23c-0.08-6.1-1.36-12.19-3.76-17.79
		c-2.4-5.61-5.91-10.72-10.28-15c-4.4-4.25-9.6-7.62-15.27-9.86c-5.66-2.25-11.77-3.36-17.86-3.27c-12.2,0.15-24.2,5.24-32.78,13.95
		c-8.62,8.65-13.85,20.67-13.99,33.12c-0.06,6.2,1.09,12.45,3.45,18.23c2.36,5.79,5.95,11.07,10.42,15.49
		c4.51,4.37,9.87,7.85,15.72,10.09c5.84,2.24,12.12,3.25,18.33,3.06C340.14,460.17,352.15,454.73,360.58,445.81z"/>
</g>
<rect x="258.21" y="439.94" transform="matrix(-0.7362 -0.6768 0.6768 -0.7362 137.0678 1012.4271)" class="st3" width="15.29" height="79.11"/>
<path class="st3" d="M245.6,505.79l-4.23-3.89c-1.94-1.78-4.96-1.66-6.74,0.28l-2.56,2.78c-1.78,1.94-1.66,4.96,0.28,6.74l4.23,3.89
	c1.94,1.78,4.96,1.66,6.74-0.28l2.56-2.78C247.66,510.59,247.53,507.57,245.6,505.79z"/>
</svg>
